<svg width="240" height="90" viewBox="0 0 240 90" fill="none" xmlns="http://www.w3.org/2000/svg">
<g filter="url(#filter0_d)">
<path d="M195.263 10H44.7368C25.5522 10 10 25.67 10 45C10 64.33 25.5522 80 44.7368 80H195.263C214.448 80 230 64.33 230 45C230 25.67 214.448 10 195.263 10Z" fill="#0A090D"/>
<path fill-rule="evenodd" clip-rule="evenodd" d="M116.975 33.8734H118.592V23.4432H116.975V33.8734ZM82.935 32.7116C84.0234 31.8092 84.5684 30.4654 84.5684 28.6803C84.5684 27.0908 84.0636 25.8699 83.0569 25.016C82.1584 24.2607 80.8261 23.8831 79.0584 23.8831C78.0579 23.8831 77.1316 23.9528 76.2717 24.0893V33.843C76.931 33.9219 77.7183 33.9613 78.6384 33.9613C80.4942 33.9613 81.9268 33.5442 82.935 32.7116ZM81.9268 26.061C82.5506 26.6798 82.8624 27.5671 82.8624 28.7243C82.8624 30.0195 82.5228 31.0053 81.8497 31.6818C81.1765 32.3582 80.2209 32.6964 78.9828 32.6964C78.4531 32.6964 78.0889 32.6828 77.8897 32.6524V25.2375C78.2493 25.1677 78.6832 25.1343 79.1927 25.1343C80.3923 25.1343 81.3032 25.4437 81.9268 26.061ZM144.762 55.6208C144.762 57.3377 144.155 58.7346 142.937 59.8129C141.598 60.9914 139.735 61.5798 137.341 61.5798C135.13 61.5798 133.358 61.1612 132.015 60.3225L132.779 57.6274C134.224 58.4858 135.809 58.9166 137.536 58.9166C138.776 58.9166 139.741 58.6405 140.435 58.0915C141.125 57.5424 141.469 56.8054 141.469 55.8863C141.469 55.0673 141.185 54.3772 140.615 53.8175C140.049 53.2579 139.102 52.7377 137.781 52.2569C134.183 50.9389 132.386 49.0082 132.386 46.4693C132.386 44.81 133.016 43.4496 134.278 42.391C135.534 41.3308 137.211 40.8015 139.308 40.8015C141.177 40.8015 142.731 41.1215 143.97 41.76L143.147 44.396C141.99 43.7772 140.68 43.4678 139.215 43.4678C138.057 43.4678 137.152 43.7484 136.504 44.3065C135.956 44.8055 135.681 45.4137 135.681 46.1341C135.681 46.9319 135.994 47.5916 136.624 48.1103C137.173 48.5896 138.169 49.1083 139.614 49.6679C141.381 50.3671 142.68 51.1846 143.515 52.1219C144.347 53.0562 144.762 54.2255 144.762 55.6208ZM91.6624 61.281H88.1563L86.2358 55.3524H79.5601L77.7306 61.281H74.3171L80.931 41.0972H85.0161L91.6624 61.281ZM85.6569 52.8651L83.92 47.5946C83.7363 47.0562 83.392 45.7883 82.8841 43.7924H82.8223C82.6201 44.6508 82.2943 45.9187 81.8466 47.5946L80.1407 52.8651H85.6569ZM108.671 53.8251C108.671 56.3003 107.99 58.2568 106.629 59.6931C105.409 60.9716 103.895 61.6102 102.087 61.6102C100.135 61.6102 98.7333 60.9216 97.8796 59.5445H97.8179V67.2112H94.5263V51.5183C94.5263 49.9622 94.4847 48.3651 94.4044 46.7271H97.2992L97.4828 49.034H97.5446C98.6423 47.2959 100.308 46.4283 102.544 46.4283C104.291 46.4283 105.75 47.1063 106.917 48.4637C108.088 49.8226 108.671 51.6093 108.671 53.8251ZM105.318 53.9434C105.318 52.5268 104.994 51.359 104.342 50.4399C103.631 49.4814 102.675 49.0021 101.477 49.0021C100.665 49.0021 99.9268 49.269 99.2676 49.7953C98.6068 50.3262 98.1745 51.0193 97.9722 51.8777C97.8703 52.2781 97.8194 52.6057 97.8194 52.8635V55.2902C97.8194 56.3488 98.1497 57.2421 98.8105 57.9717C99.4714 58.7012 100.33 59.0652 101.386 59.0652C102.625 59.0652 103.59 58.595 104.28 57.6577C104.972 56.7189 105.318 55.4813 105.318 53.9434ZM123.667 59.6931C125.03 58.2568 125.711 56.3003 125.711 53.8251C125.711 51.6093 125.126 49.8226 123.96 48.4637C122.79 47.1063 121.331 46.4283 119.585 46.4283C117.348 46.4283 115.682 47.2959 114.586 49.034H114.524L114.34 46.7271H111.445C111.526 48.3651 111.567 49.9622 111.567 51.5183V67.2112H114.859V59.5445H114.921C115.773 60.9216 117.175 61.6102 119.126 61.6102C120.934 61.6102 122.449 60.9716 123.667 59.6931ZM121.38 50.4399C122.032 51.359 122.357 52.5268 122.357 53.9434C122.357 55.4813 122.012 56.7189 121.32 57.6577C120.63 58.595 119.665 59.0652 118.425 59.0652C117.366 59.0652 116.508 58.6997 115.847 57.9717C115.189 57.2421 114.859 56.3488 114.859 55.2902V52.8635C114.859 52.6057 114.911 52.2781 115.012 51.8777C115.214 51.0193 115.645 50.3262 116.306 49.7953C116.966 49.269 117.703 49.0021 118.516 49.0021C119.716 49.0021 120.668 49.4814 121.38 50.4399ZM152.017 49.1538H155.645V46.7241H152.017V43.1008L148.784 44.0593V46.7241H146.622V49.1507H148.784V56.4869C148.784 58.3235 149.151 59.6309 149.882 60.4105C150.615 61.1885 151.63 61.5783 152.931 61.5783C153.988 61.5783 154.842 61.4585 155.491 61.2204L155.399 58.7649C155.014 58.865 154.525 58.915 153.937 58.915C152.656 58.915 152.017 58.0172 152.017 56.2199V49.1538ZM172.014 53.8843C172.014 56.1213 171.363 57.958 170.063 59.3943C168.7 60.8731 166.89 61.6102 164.635 61.6102C162.461 61.6102 160.73 60.9019 159.439 59.4853C158.149 58.0687 157.503 56.2806 157.503 54.1254C157.503 51.8701 158.168 50.0228 159.499 48.5865C160.829 47.1487 162.623 46.4298 164.879 46.4298C167.052 46.4298 168.802 47.1381 170.122 48.5562C171.384 49.9318 172.014 51.7078 172.014 53.8843ZM168.599 53.9889C168.599 52.6467 168.307 51.4955 167.716 50.5355C167.026 49.3737 166.039 48.7943 164.761 48.7943C163.438 48.7943 162.433 49.3752 161.743 50.5355C161.152 51.497 160.86 52.6664 160.86 54.0496C160.86 55.3918 161.152 56.543 161.743 57.5015C162.454 58.6633 163.449 59.2426 164.732 59.2426C165.988 59.2426 166.975 58.6511 167.687 57.4712C168.294 56.4929 168.599 55.3296 168.599 53.9889ZM181.675 49.4814C182.04 49.4814 182.387 49.5117 182.713 49.5709V46.4875C182.47 46.4496 182.194 46.4283 181.891 46.4283C181.036 46.4283 180.244 46.6877 179.511 47.2079C178.761 47.7857 178.213 48.5562 177.866 49.5132H177.774L177.654 46.7286H174.787C174.869 48.1058 174.911 49.633 174.911 51.3105L174.88 61.281H178.169V53.6446C178.169 52.4874 178.445 51.5289 178.992 50.7705C179.622 49.9106 180.517 49.4814 181.675 49.4814ZM197.434 53.3155C197.434 53.8949 197.395 54.3832 197.314 54.7821H187.439C187.478 56.2199 187.955 57.3195 188.872 58.0778C189.704 58.7558 190.78 59.0955 192.101 59.0955C193.563 59.0955 194.897 58.8665 196.097 58.407L196.612 60.6516C195.211 61.2522 193.555 61.551 191.646 61.551C189.349 61.551 187.546 60.8867 186.233 59.5596C184.924 58.2325 184.268 56.4505 184.268 54.2149C184.268 52.0203 184.878 50.1927 186.098 48.7352C187.377 47.1791 189.104 46.401 191.279 46.401C193.414 46.401 195.03 47.1791 196.128 48.7352C196.997 49.9713 197.434 51.5001 197.434 53.3155ZM194.295 52.4768C194.317 51.5183 194.102 50.6902 193.656 49.991C193.086 49.0916 192.211 48.6427 191.033 48.6427C189.957 48.6427 189.081 49.081 188.413 49.9606C187.865 50.6598 187.539 51.4985 187.439 52.4753H194.295V52.4768ZM93.6138 30.2394C93.6138 31.339 93.2942 32.2399 92.6551 32.9467C91.985 33.6732 91.0973 34.0356 89.9888 34.0356C88.9205 34.0356 88.0698 33.6883 87.4353 32.9907C86.8023 32.2945 86.4858 31.4164 86.4858 30.3577C86.4858 29.2506 86.8115 28.3421 87.4662 27.6368C88.1208 26.9316 89.0008 26.5782 90.1092 26.5782C91.1776 26.5782 92.0359 26.9255 92.686 27.6217C93.3035 28.2981 93.6138 29.1717 93.6138 30.2394ZM91.9357 30.291C91.9357 29.6312 91.7905 29.0655 91.5018 28.5938C91.1622 28.0236 90.6789 27.7384 90.0506 27.7384C89.4006 27.7384 88.9066 28.0236 88.5669 28.5938C88.2767 29.0655 88.1331 29.6403 88.1331 30.3198C88.1331 30.9796 88.2782 31.5453 88.5669 32.017C88.9174 32.5872 89.4052 32.8724 90.0351 32.8724C90.6527 32.8724 91.1374 32.5827 91.4864 32.0018C91.7858 31.521 91.9357 30.9507 91.9357 30.291ZM105.742 26.7253L105.742 26.7238V26.7253H105.742ZM104.154 26.7253H105.742L103.465 33.8734H101.983L101.04 30.7687C100.801 29.9937 100.606 29.2233 100.455 28.4589H100.425C100.285 29.2445 100.09 30.0134 99.8403 30.7687L98.8383 33.8734H97.3392L95.1979 26.7238H96.8607L97.6835 30.1226C97.8826 30.9265 98.0463 31.6924 98.1775 32.4174H98.2068C98.3272 31.8198 98.5264 31.0584 98.8074 30.1378L99.8403 26.7253H101.159L102.148 30.065C102.388 30.8795 102.582 31.6636 102.732 32.4189H102.777C102.886 31.6833 103.051 30.8992 103.271 30.065L104.154 26.7253ZM114.13 33.8734H112.512V29.7784C112.512 28.5165 112.024 27.8856 111.046 27.8856C110.565 27.8856 110.178 28.0585 109.877 28.4058C109.579 28.7531 109.428 29.1626 109.428 29.6312V33.8718H107.81V28.7667C107.81 28.1388 107.79 27.4579 107.751 26.7208H109.173L109.249 27.8385H109.293C109.482 27.4912 109.763 27.2046 110.132 26.9756C110.57 26.7086 111.061 26.5736 111.598 26.5736C112.278 26.5736 112.843 26.789 113.292 27.2213C113.851 27.7506 114.13 28.5408 114.13 29.5903V33.8734ZM128.118 30.2394C128.118 31.339 127.798 32.2399 127.159 32.9467C126.489 33.6732 125.6 34.0356 124.493 34.0356C123.423 34.0356 122.572 33.6883 121.939 32.9907C121.306 32.2945 120.99 31.4164 120.99 30.3577C120.99 29.2506 121.315 28.3421 121.97 27.6368C122.625 26.9316 123.505 26.5782 124.611 26.5782C125.681 26.5782 126.539 26.9255 127.189 27.6217C127.808 28.2981 128.118 29.1717 128.118 30.2394ZM126.438 30.291C126.438 29.6312 126.293 29.0655 126.004 28.5938C125.666 28.0236 125.181 27.7384 124.554 27.7384C123.903 27.7384 123.409 28.0236 123.071 28.5938C122.78 29.0655 122.637 29.6403 122.637 30.3198C122.637 30.9796 122.782 31.5453 123.071 32.017C123.421 32.5872 123.909 32.8724 124.539 32.8724C125.156 32.8724 125.64 32.5827 125.989 32.0018C126.29 31.521 126.438 30.9507 126.438 30.291ZM134.496 33.8734H135.948C135.878 33.4517 135.844 32.883 135.844 32.1686V29.5357C135.844 27.564 134.889 26.5782 132.987 26.5782C132.002 26.5782 131.167 26.7845 130.491 27.1955L130.819 28.2389C131.366 27.8871 131.999 27.7096 132.717 27.7096C133.725 27.7096 134.228 28.1798 134.228 29.1216V29.2551C132.88 29.2445 131.834 29.4705 131.089 29.9315C130.344 30.3926 129.973 31.0584 129.973 31.932C129.973 32.5099 130.163 32.9967 130.543 33.388C130.962 33.8188 131.518 34.0356 132.204 34.0356C133.125 34.0356 133.833 33.7065 134.33 33.0498H134.375L134.496 33.8734ZM134.269 30.3137V31.4164C134.269 31.524 134.26 31.6181 134.242 31.6954C134.173 32.0397 133.986 32.3203 133.682 32.5417C133.38 32.7616 133.047 32.8724 132.692 32.8724C132.376 32.8724 132.11 32.7798 131.902 32.5933C131.694 32.4067 131.592 32.1277 131.592 31.7546C131.592 30.7642 132.483 30.2834 134.269 30.3137ZM145.141 33.8734H143.706L143.63 32.7252H143.585C143.127 33.5988 142.346 34.0356 141.249 34.0356C140.371 34.0356 139.641 33.6974 139.062 33.021C138.483 32.3446 138.194 31.4664 138.194 30.3881C138.194 29.2308 138.508 28.2935 139.138 27.5777C139.748 26.9103 140.495 26.5767 141.384 26.5767C142.361 26.5767 143.046 26.8997 143.435 27.5473H143.465V23.4432H145.085V31.9472C145.085 32.6433 145.103 33.2849 145.141 33.8734ZM143.465 30.8582V29.6661C143.465 29.4599 143.45 29.293 143.421 29.1656C143.329 28.7834 143.134 28.4619 142.835 28.2025C142.534 27.9432 142.171 27.8128 141.753 27.8128C141.149 27.8128 140.677 28.0478 140.329 28.5195C139.985 28.9912 139.81 29.5933 139.81 30.3289C139.81 31.0357 139.976 31.609 140.308 32.0503C140.658 32.5205 141.13 32.7556 141.722 32.7556C142.254 32.7556 142.677 32.5599 143 32.1671C143.312 31.8046 143.465 31.3678 143.465 30.8582ZM158.021 32.9467C158.66 32.2399 158.979 31.339 158.979 30.2394C158.979 29.1717 158.669 28.2981 158.052 27.6217C157.404 26.9255 156.543 26.5782 155.477 26.5782C154.366 26.5782 153.486 26.9316 152.832 27.6368C152.177 28.3421 151.851 29.2506 151.851 30.3577C151.851 31.4164 152.168 32.2945 152.801 32.9907C153.437 33.6883 154.288 34.0356 155.354 34.0356C156.464 34.0356 157.35 33.6732 158.021 32.9467ZM156.869 28.5938C157.158 29.0655 157.303 29.6312 157.303 30.291C157.303 30.9507 157.151 31.521 156.854 32.0018C156.505 32.5827 156.019 32.8724 155.4 32.8724C154.77 32.8724 154.283 32.5872 153.932 32.017C153.644 31.5453 153.499 30.9796 153.499 30.3198C153.499 29.6403 153.643 29.0655 153.932 28.5938C154.274 28.0236 154.768 27.7384 155.417 27.7384C156.046 27.7384 156.528 28.0236 156.869 28.5938ZM167.679 33.8734H166.062V29.7784C166.062 28.5165 165.575 27.8856 164.594 27.8856C164.115 27.8856 163.727 28.0585 163.427 28.4058C163.128 28.7531 162.978 29.1626 162.978 29.6312V33.8718H161.359V28.7667C161.359 28.1388 161.34 27.4579 161.301 26.7208H162.722L162.797 27.8385H162.842C163.032 27.4912 163.313 27.2046 163.68 26.9756C164.12 26.7086 164.61 26.5736 165.149 26.5736C165.826 26.5736 166.391 26.789 166.84 27.2213C167.401 27.7506 167.679 28.5408 167.679 29.5903V33.8734ZM176.787 27.9144H178.566V26.7223H176.784V24.9432L175.199 25.4134V26.7238H174.135V27.9144H175.199V31.5195C175.199 32.4219 175.379 33.065 175.74 33.4472C176.099 33.8294 176.597 34.0205 177.236 34.0205C177.752 34.0205 178.173 33.9613 178.492 33.843L178.451 32.6373C178.261 32.6873 178.02 32.7116 177.729 32.7116C177.103 32.7116 176.787 32.2702 176.787 31.3875V27.9144ZM187.134 33.8734H185.514V29.8087C185.514 28.5271 185.026 27.8856 184.049 27.8856C183.299 27.8856 182.786 28.2571 182.504 29.0003C182.457 29.1565 182.429 29.3476 182.429 29.5721V33.8718H180.813V23.4432H182.429V27.7521H182.46C182.97 26.968 183.699 26.5767 184.646 26.5767C185.316 26.5767 185.87 26.792 186.31 27.2243C186.858 27.7627 187.134 28.5635 187.134 29.6221V33.8734ZM195.908 30.6808C195.948 30.4851 195.968 30.2455 195.968 29.9604C195.968 29.0686 195.754 28.3178 195.32 27.7111C194.783 26.9467 193.988 26.5645 192.942 26.5645C191.872 26.5645 191.024 26.9467 190.397 27.7111C189.797 28.427 189.498 29.3249 189.498 30.4032C189.498 31.5013 189.818 32.3764 190.464 33.0286C191.105 33.6807 191.993 34.0068 193.12 34.0068C194.06 34.0068 194.873 33.8597 195.563 33.5655L195.31 32.4613C194.72 32.6873 194.065 32.7996 193.347 32.7996C192.698 32.7996 192.169 32.6327 191.758 32.2991C191.309 31.926 191.077 31.3875 191.057 30.6808H195.908ZM194.111 28.3284C194.331 28.6712 194.438 29.0777 194.425 29.5493H191.057C191.109 29.0686 191.267 28.6575 191.536 28.3133C191.865 27.881 192.296 27.6656 192.824 27.6656C193.402 27.6656 193.831 27.8871 194.111 28.3284Z" fill="white"/>
<path d="M55.3555 43.5056C55.3107 38.6174 59.4298 36.2392 59.6181 36.1285C57.2854 32.7873 53.6696 32.3308 52.3991 32.2944C49.3623 31.9804 46.4166 34.0795 44.8696 34.0795C43.2918 34.0795 40.9096 32.3247 38.3422 32.3763C35.0383 32.4263 31.9475 34.3055 30.2524 37.2236C26.754 43.1734 29.3631 51.917 32.7149 56.7264C34.3915 59.0818 36.3507 61.7117 38.9149 61.6191C41.4238 61.5175 42.3608 60.0479 45.3884 60.0479C48.3881 60.0479 49.2681 61.6191 51.8834 61.56C54.5759 61.5175 56.2711 59.194 57.889 56.8174C59.8265 54.1177 60.6046 51.459 60.6355 51.3225C60.5722 51.3013 55.4065 49.3645 55.3555 43.5056Z" fill="white"/>
<path d="M50.4151 29.1307C51.7646 27.4729 52.6877 25.2177 52.4315 22.929C50.4785 23.0139 48.0361 24.2561 46.6296 25.8774C45.3852 27.3061 44.2737 29.6478 44.5608 31.85C46.7547 32.0108 49.0071 30.7626 50.4151 29.1307Z" fill="white"/>
</g>
<defs>
<filter id="filter0_d" x="0" y="0" width="240" height="90" filterUnits="userSpaceOnUse" color-interpolation-filters="sRGB">
<feFlood flood-opacity="0" result="BackgroundImageFix"/>
<feColorMatrix in="SourceAlpha" type="matrix" values="0 0 0 0 0 0 0 0 0 0 0 0 0 0 0 0 0 0 127 0"/>
<feOffset/>
<feGaussianBlur stdDeviation="5"/>
<feColorMatrix type="matrix" values="0 0 0 0 1 0 0 0 0 1 0 0 0 0 1 0 0 0 0.25 0"/>
<feBlend mode="normal" in2="BackgroundImageFix" result="effect1_dropShadow"/>
<feBlend mode="normal" in="SourceGraphic" in2="effect1_dropShadow" result="shape"/>
</filter>
</defs>
</svg>
