<svg width="229" height="66" viewBox="0 0 229 66" fill="none" xmlns="http://www.w3.org/2000/svg">
<path d="M227.728 58.3886C227.728 61.9058 224.813 64.7548 221.207 64.7548H7.80187C4.19775 64.7548 1.27228 61.9058 1.27228 58.3886V7.61991C1.27228 4.10435 4.19775 1.24536 7.80187 1.24536H221.205C224.813 1.24536 227.726 4.10435 227.726 7.61991L227.728 58.3886Z" fill="black"/>
<path d="M220.519 1.32206C224.445 1.32206 227.641 4.43025 227.641 8.25V57.75C227.641 61.5698 224.445 64.6779 220.519 64.6779H8.48148C4.55456 64.6779 1.35916 61.5698 1.35916 57.75V8.25C1.35916 4.43025 4.55456 1.32206 8.48148 1.32206H220.519ZM220.519 3.48806e-06H8.48148C3.81879 3.48806e-06 0 3.71456 0 8.25V57.75C0 62.2854 3.81879 66 8.48148 66H220.519C225.181 66 229 62.2854 229 57.75V8.25C229 3.71456 225.181 3.48806e-06 220.519 3.48806e-06Z" fill="#A6A6A6"/>
<path d="M51.1061 32.6436C51.0569 27.3257 55.5827 24.7385 55.7896 24.618C53.2265 20.9831 49.2538 20.4864 47.8577 20.4468C44.5211 20.1053 41.2846 22.3889 39.5849 22.3889C37.8513 22.3889 35.2339 20.4798 32.4129 20.5359C28.7829 20.5904 25.3869 22.6347 23.5244 25.8093C19.6805 32.2823 22.5473 41.7945 26.2299 47.0266C28.0721 49.5891 30.2247 52.4502 33.0423 52.3495C35.7988 52.239 36.8284 50.6402 40.1548 50.6402C43.4507 50.6402 44.4176 52.3495 47.2912 52.2852C50.2495 52.239 52.112 49.7112 53.8898 47.1257C56.0186 44.1887 56.8735 41.2962 56.9075 41.1477C56.8379 41.1246 51.1621 39.0176 51.1061 32.6436Z" fill="white"/>
<path d="M45.678 17.0049C47.1605 15.2015 48.1749 12.7479 47.8933 10.2581C45.7475 10.3505 43.064 11.7018 41.5187 13.4657C40.1514 15.02 38.9301 17.5676 39.2456 19.9634C41.6561 20.1383 44.131 18.7803 45.678 17.0049Z" fill="white"/>
<path d="M90.9978 51.9816H87.1455L85.0353 45.5318H77.7005L75.6904 51.9816H71.9399L79.2068 30.0234H83.6952L90.9978 51.9816ZM84.3992 42.8258L82.4908 37.092C82.289 36.5063 81.9107 35.1269 81.3526 32.9555H81.2848C81.0626 33.8894 80.7046 35.2688 80.2127 37.092L78.3383 42.8258H84.3992Z" fill="white"/>
<path d="M109.686 43.8703C109.686 46.5631 108.938 48.6916 107.442 50.2541C106.102 51.6451 104.437 52.3397 102.451 52.3397C100.307 52.3397 98.7667 51.5906 97.8287 50.0924H97.7608V58.4332H94.1443V41.3606C94.1443 39.6677 94.0985 37.9303 94.0103 36.1483H97.1909L97.3927 38.6579H97.4606C98.6666 36.767 100.497 35.8232 102.953 35.8232C104.873 35.8232 106.476 36.5608 107.759 38.0375C109.045 39.5159 109.686 41.4596 109.686 43.8703ZM106.001 43.999C106.001 42.4579 105.645 41.1874 104.929 40.1875C104.147 39.1447 103.097 38.6233 101.781 38.6233C100.889 38.6233 100.078 38.9137 99.3536 39.4862C98.6276 40.0637 98.1527 40.8178 97.9305 41.7517C97.8185 42.1873 97.7625 42.5437 97.7625 42.8242V45.4642C97.7625 46.6159 98.1255 47.5877 98.8515 48.3814C99.5776 49.175 100.521 49.571 101.681 49.571C103.043 49.571 104.103 49.0595 104.862 48.0398C105.621 47.0185 106.001 45.6721 106.001 43.999Z" fill="white"/>
<path d="M128.408 43.8703C128.408 46.5631 127.66 48.6916 126.162 50.2541C124.824 51.6451 123.16 52.3397 121.173 52.3397C119.029 52.3397 117.489 51.5906 116.553 50.0924H116.485V58.4332H112.868V41.3606C112.868 39.6677 112.822 37.9303 112.734 36.1483H115.915L116.117 38.6579H116.185C117.389 36.767 119.219 35.8232 121.677 35.8232C123.596 35.8232 125.199 36.5608 126.484 38.0375C127.765 39.5159 128.408 41.4596 128.408 43.8703ZM124.724 43.999C124.724 42.4579 124.366 41.1874 123.65 40.1875C122.868 39.1447 121.821 38.6233 120.503 38.6233C119.609 38.6233 118.8 38.9137 118.074 39.4862C117.348 40.0637 116.875 40.8178 116.653 41.7517C116.542 42.1873 116.485 42.5437 116.485 42.8242V45.4642C116.485 46.6159 116.848 47.5877 117.57 48.3814C118.296 49.1734 119.24 49.571 120.403 49.571C121.765 49.571 122.826 49.0595 123.584 48.0398C124.344 47.0185 124.724 45.6721 124.724 43.999Z" fill="white"/>
<path d="M149.34 45.8238C149.34 47.6916 148.673 49.2113 147.335 50.3844C145.864 51.6665 143.817 52.3067 141.186 52.3067C138.757 52.3067 136.809 51.8513 135.335 50.9388L136.173 48.0068C137.761 48.9407 139.503 49.4093 141.401 49.4093C142.763 49.4093 143.824 49.109 144.585 48.5117C145.343 47.9144 145.722 47.1125 145.722 46.1126C145.722 45.2216 145.41 44.4708 144.784 43.862C144.161 43.2531 143.121 42.6872 141.669 42.1641C137.717 40.7303 135.742 38.6298 135.742 35.8677C135.742 34.0626 136.434 32.5826 137.82 31.4309C139.201 30.2775 141.043 29.7017 143.347 29.7017C145.401 29.7017 147.108 30.0498 148.47 30.7445L147.566 33.6122C146.293 32.939 144.855 32.6024 143.245 32.6024C141.973 32.6024 140.979 32.9076 140.266 33.5148C139.664 34.0577 139.362 34.7193 139.362 35.5031C139.362 36.371 139.707 37.0887 140.399 37.653C141.001 38.1744 142.095 38.7387 143.683 39.3476C145.625 40.1082 147.052 40.9976 147.969 42.0173C148.884 43.0337 149.34 44.3058 149.34 45.8238Z" fill="white"/>
<path d="M161.297 38.7883H157.311V46.4756C157.311 48.4309 158.013 49.4077 159.421 49.4077C160.068 49.4077 160.604 49.3532 161.028 49.2443L161.128 51.9157C160.415 52.1747 159.477 52.3051 158.315 52.3051C156.887 52.3051 155.771 51.881 154.965 51.0346C154.163 50.1865 153.759 48.7642 153.759 46.766V38.785H151.384V36.145H153.759V33.2459L157.311 32.2031V36.145H161.297V38.7883Z" fill="white"/>
<path d="M179.283 43.9345C179.283 46.3682 178.567 48.3664 177.139 49.9289C175.641 51.5377 173.653 52.3396 171.175 52.3396C168.786 52.3396 166.885 51.569 165.467 50.0279C164.049 48.4868 163.34 46.5415 163.34 44.1968C163.34 41.7433 164.069 39.7336 165.533 38.171C166.993 36.6068 168.965 35.8247 171.443 35.8247C173.831 35.8247 175.753 36.5953 177.203 38.138C178.591 39.6346 179.283 41.5667 179.283 43.9345ZM175.531 44.0483C175.531 42.5881 175.21 41.3357 174.561 40.2913C173.802 39.0274 172.718 38.3971 171.314 38.3971C169.86 38.3971 168.756 39.029 167.998 40.2913C167.348 41.3374 167.027 42.6095 167.027 44.1143C167.027 45.5746 167.348 46.8269 167.998 47.8697C168.78 49.1336 169.872 49.7639 171.282 49.7639C172.662 49.7639 173.746 49.1204 174.528 47.8367C175.195 46.7725 175.531 45.5069 175.531 44.0483Z" fill="white"/>
<path d="M191.038 39.242C190.68 39.1777 190.299 39.1447 189.898 39.1447C188.626 39.1447 187.642 39.6116 186.95 40.5472C186.348 41.3722 186.046 42.415 186.046 43.6739V51.9817H182.431L182.465 41.1346C182.465 39.3097 182.419 37.6481 182.33 36.1499H185.48L185.612 39.1793H185.712C186.094 38.1382 186.696 37.3 187.52 36.6713C188.326 36.1054 189.196 35.8232 190.134 35.8232C190.468 35.8232 190.77 35.8463 191.038 35.8876V39.242Z" fill="white"/>
<path d="M207.213 43.3158C207.213 43.9461 207.17 44.4774 207.08 44.9114H196.231C196.273 46.4756 196.797 47.6718 197.805 48.4968C198.719 49.2344 199.902 49.604 201.354 49.604C202.96 49.604 204.426 49.3548 205.744 48.8549L206.31 51.2969C204.77 51.9503 202.952 52.2753 200.853 52.2753C198.329 52.2753 196.348 51.5526 194.906 50.1089C193.468 48.6651 192.747 46.7264 192.747 44.2943C192.747 41.9067 193.417 39.9185 194.758 38.3328C196.163 36.6399 198.061 35.7935 200.45 35.7935C202.795 35.7935 204.572 36.6399 205.778 38.3328C206.733 39.6776 207.213 41.3408 207.213 43.3158ZM203.764 42.4034C203.788 41.3606 203.552 40.4597 203.062 39.699C202.436 38.7206 201.474 38.2322 200.18 38.2322C198.997 38.2322 198.036 38.709 197.301 39.666C196.699 40.4267 196.341 41.3391 196.231 42.4017H203.764V42.4034Z" fill="white"/>
<path d="M83.2034 16.5146C83.2034 18.4567 82.6046 19.9186 81.4087 20.9003C80.3011 21.8062 78.7269 22.2599 76.688 22.2599C75.677 22.2599 74.8118 22.217 74.0875 22.1312V11.5201C75.0324 11.3716 76.0501 11.2957 77.1493 11.2957C79.0916 11.2957 80.5555 11.7065 81.5428 12.5282C82.6487 13.4572 83.2034 14.7854 83.2034 16.5146ZM81.329 16.5625C81.329 15.3035 80.9864 14.3383 80.3011 13.6651C79.6158 12.9935 78.6149 12.6569 77.2969 12.6569C76.7371 12.6569 76.2605 12.6932 75.8652 12.7691V20.836C76.0841 20.869 76.4844 20.8838 77.0662 20.8838C78.4267 20.8838 79.4767 20.5159 80.2163 19.78C80.9558 19.0441 81.329 17.9716 81.329 16.5625Z" fill="white"/>
<path d="M93.1419 18.2106C93.1419 19.4069 92.7908 20.387 92.0885 21.1559C91.3523 21.9462 90.377 22.3406 89.159 22.3406C87.9852 22.3406 87.0505 21.9627 86.3533 21.2037C85.6579 20.4464 85.3101 19.491 85.3101 18.3393C85.3101 17.1348 85.668 16.1465 86.3873 15.3792C87.1065 14.612 88.0734 14.2275 89.2913 14.2275C90.4652 14.2275 91.4083 14.6054 92.1224 15.3627C92.801 16.0986 93.1419 17.049 93.1419 18.2106ZM91.298 18.2667C91.298 17.549 91.1386 16.9335 90.8214 16.4204C90.4482 15.8 89.9173 15.4898 89.2269 15.4898C88.5127 15.4898 87.9699 15.8 87.5967 16.4204C87.2778 16.9335 87.1201 17.5589 87.1201 18.2981C87.1201 19.0158 87.2795 19.6313 87.5967 20.1444C87.9818 20.7648 88.5178 21.075 89.2099 21.075C89.8884 21.075 90.4211 20.7599 90.8044 20.1279C91.1335 19.6049 91.298 18.9845 91.298 18.2667Z" fill="white"/>
<path d="M106.468 14.3862L103.966 22.1643H102.338L101.301 18.7868C101.038 17.9436 100.825 17.1054 100.658 16.2738H100.626C100.472 17.1285 100.258 17.9651 99.9832 18.7868L98.8823 22.1643H97.2352L94.8824 14.3862H96.7094L97.6135 18.0839C97.8323 18.9584 98.0121 19.7916 98.1563 20.5803H98.1885C98.3208 19.9302 98.5397 19.1019 98.8484 18.1004L99.9832 14.3879H101.432L102.519 18.0212C102.782 18.9072 102.996 19.7603 103.16 20.582H103.21C103.33 19.7817 103.512 18.9287 103.752 18.0212L104.723 14.3879H106.468V14.3862Z" fill="white"/>
<path d="M115.684 22.1641H113.906V17.7091C113.906 16.3363 113.37 15.6499 112.295 15.6499C111.767 15.6499 111.342 15.838 111.011 16.2159C110.684 16.5937 110.517 17.0392 110.517 17.5491V22.1625H108.74V16.6086C108.74 15.9255 108.718 15.1846 108.675 14.3827H110.237L110.321 15.5988H110.37C110.577 15.2209 110.885 14.9091 111.291 14.6599C111.773 14.3695 112.312 14.2227 112.902 14.2227C113.649 14.2227 114.269 14.457 114.763 14.9272C115.377 15.5031 115.684 16.3627 115.684 17.5045V22.1641Z" fill="white"/>
<path d="M120.586 22.1642H118.81V10.8171H120.586V22.1642Z" fill="white"/>
<path d="M131.053 18.2106C131.053 19.4069 130.701 20.387 129.999 21.1559C129.263 21.9462 128.286 22.3406 127.07 22.3406C125.894 22.3406 124.96 21.9627 124.264 21.2037C123.569 20.4464 123.221 19.491 123.221 18.3393C123.221 17.1348 123.579 16.1465 124.298 15.3792C125.017 14.612 125.984 14.2275 127.2 14.2275C128.376 14.2275 129.317 14.6054 130.033 15.3627C130.712 16.0986 131.053 17.049 131.053 18.2106ZM129.207 18.2667C129.207 17.549 129.048 16.9335 128.73 16.4204C128.359 15.8 127.826 15.4898 127.138 15.4898C126.422 15.4898 125.879 15.8 125.507 16.4204C125.189 16.9335 125.031 17.5589 125.031 18.2981C125.031 19.0158 125.19 19.6313 125.507 20.1444C125.892 20.7648 126.429 21.075 127.121 21.075C127.799 21.075 128.33 20.7599 128.713 20.1279C129.044 19.6049 129.207 18.9845 129.207 18.2667Z" fill="white"/>
<path d="M139.656 22.164H138.06L137.928 21.2681H137.878C137.332 21.9825 136.554 22.3406 135.543 22.3406C134.788 22.3406 134.177 22.1046 133.717 21.636C133.3 21.2103 133.091 20.6807 133.091 20.052C133.091 19.1016 133.499 18.3773 134.318 17.8757C135.135 17.3741 136.286 17.1282 137.766 17.1398V16.9946C137.766 15.9699 137.213 15.4584 136.106 15.4584C135.317 15.4584 134.621 15.6515 134.021 16.0343L133.66 14.8991C134.403 14.4519 135.32 14.2275 136.403 14.2275C138.492 14.2275 139.541 15.3 139.541 17.445V20.3094C139.541 21.0866 139.58 21.7053 139.656 22.164ZM137.811 19.491V18.2915C135.85 18.2585 134.869 18.7815 134.869 19.859C134.869 20.2649 134.981 20.5685 135.21 20.7714C135.439 20.9744 135.731 21.075 136.079 21.075C136.469 21.075 136.833 20.9546 137.166 20.7153C137.5 20.4744 137.705 20.1692 137.782 19.7946C137.8 19.7105 137.811 19.6082 137.811 19.491Z" fill="white"/>
<path d="M149.758 22.1642H148.18L148.097 20.9151H148.048C147.544 21.8655 146.686 22.3407 145.48 22.3407C144.516 22.3407 143.714 21.9728 143.078 21.2369C142.442 20.501 142.124 19.5456 142.124 18.3725C142.124 17.1135 142.469 16.0938 143.161 15.315C143.831 14.589 144.652 14.226 145.629 14.226C146.703 14.226 147.454 14.5775 147.882 15.282H147.916V10.8171H149.695V20.0687C149.695 20.826 149.715 21.524 149.758 22.1642ZM147.916 18.884V17.5871C147.916 17.3627 147.899 17.1812 147.866 17.0426C147.766 16.6268 147.551 16.277 147.223 15.9948C146.893 15.7127 146.494 15.5708 146.034 15.5708C145.371 15.5708 144.852 15.8265 144.47 16.3397C144.092 16.8528 143.9 17.5079 143.9 18.3081C143.9 19.077 144.082 19.7007 144.447 20.1809C144.832 20.6924 145.351 20.9481 146 20.9481C146.584 20.9481 147.05 20.7353 147.405 20.3079C147.748 19.9136 147.916 19.4384 147.916 18.884Z" fill="white"/>
<path d="M164.962 18.2106C164.962 19.4069 164.611 20.387 163.908 21.1559C163.172 21.9462 162.198 22.3406 160.979 22.3406C159.807 22.3406 158.872 21.9627 158.173 21.2037C157.478 20.4464 157.13 19.491 157.13 18.3393C157.13 17.1348 157.488 16.1465 158.207 15.3792C158.926 14.612 159.893 14.2275 161.113 14.2275C162.285 14.2275 163.23 14.6054 163.942 15.3627C164.621 16.0986 164.962 17.049 164.962 18.2106ZM163.12 18.2667C163.12 17.549 162.96 16.9335 162.643 16.4204C162.268 15.8 161.739 15.4898 161.047 15.4898C160.334 15.4898 159.791 15.8 159.416 16.4204C159.098 16.9335 158.94 17.5589 158.94 18.2981C158.94 19.0158 159.099 19.6313 159.416 20.1444C159.802 20.7648 160.338 21.075 161.03 21.075C161.708 21.075 162.243 20.7599 162.626 20.1279C162.953 19.6049 163.12 18.9845 163.12 18.2667Z" fill="white"/>
<path d="M174.52 22.1641H172.744V17.7091C172.744 16.3363 172.208 15.6499 171.131 15.6499C170.603 15.6499 170.177 15.838 169.848 16.2159C169.519 16.5937 169.355 17.0392 169.355 17.5491V22.1625H167.575V16.6086C167.575 15.9255 167.555 15.1846 167.512 14.3827H169.073L169.156 15.5988H169.205C169.414 15.2209 169.723 14.9091 170.126 14.6599C170.61 14.3695 171.148 14.2227 171.74 14.2227C172.484 14.2227 173.105 14.457 173.599 14.9272C174.215 15.5031 174.52 16.3627 174.52 17.5045V22.1641Z" fill="white"/>
<path d="M186.484 15.6813H184.527V19.4598C184.527 20.4201 184.874 20.9003 185.563 20.9003C185.882 20.9003 186.147 20.8739 186.355 20.8194L186.401 22.1312C186.05 22.2599 185.589 22.3242 185.02 22.3242C184.318 22.3242 183.772 22.1163 183.377 21.7005C182.98 21.2847 182.783 20.5851 182.783 19.6034V15.6813H181.614V14.3861H182.783V12.9605L184.525 12.449V14.3844H186.483V15.6813H186.484Z" fill="white"/>
<path d="M195.895 22.1642H194.116V17.7422C194.116 16.3479 193.58 15.65 192.506 15.65C191.682 15.65 191.118 16.0542 190.81 16.8627C190.757 17.0327 190.727 17.2406 190.727 17.4848V22.1625H188.951V10.8171H190.727V15.5048H190.761C191.32 14.6517 192.123 14.226 193.162 14.226C193.899 14.226 194.508 14.4603 194.991 14.9306C195.593 15.5163 195.895 16.3875 195.895 17.5392V22.1642Z" fill="white"/>
<path d="M205.603 17.907C205.603 18.2172 205.579 18.4779 205.537 18.6907H200.205C200.229 19.4596 200.483 20.0454 200.977 20.4513C201.428 20.8143 202.01 20.9958 202.723 20.9958C203.511 20.9958 204.231 20.8737 204.879 20.6278L205.157 21.829C204.399 22.1491 203.506 22.3092 202.473 22.3092C201.235 22.3092 200.26 21.9544 199.554 21.2449C198.845 20.5354 198.494 19.5834 198.494 18.3888C198.494 17.2156 198.821 16.2388 199.481 15.46C200.17 14.6284 201.101 14.2126 202.276 14.2126C203.427 14.2126 204.3 14.6284 204.89 15.46C205.367 16.12 205.603 16.9368 205.603 17.907ZM203.907 17.4598C203.92 16.9467 203.803 16.5045 203.562 16.1316C203.254 15.6514 202.784 15.4105 202.148 15.4105C201.567 15.4105 201.094 15.6448 200.733 16.1151C200.438 16.4896 200.263 16.9368 200.205 17.4598H203.907Z" fill="white"/>
</svg>
