<svg xmlns="http://www.w3.org/2000/svg" xmlns:xlink="http://www.w3.org/1999/xlink" width="150" height="150" viewBox="0 0 150 150">
  <defs>
    <clipPath id="clip-path">
      <rect id="container" width="150" height="150" stroke-width="1" fill="#fff" stroke="#707070" transform="translate(-6632.5 -2353)"/>
    </clipPath>
  </defs>
  <g id="babel" transform="translate(6632.5 2353)" clip-path="url(#clip-path)">
    <g id="babel-2" data-name="babel" transform="translate(-6632.5 -2307.208)">
      <path id="Trazado_4783" data-name="Trazado 4783" d="M102.873,5.185l-.033-.321-.521.045.033.321.521-.044Zm3.5,8.419.011.177.366-.033a1.4,1.4,0,0,1,.111-.509l-.033-.321c-.155.011-.31.244-.454.687Zm-13.66,10.6c-.022-.3-.953-1.462-2.792-3.512-.033-.376.6-.942,1.894-1.684l3.7-3.224a9.267,9.267,0,0,0,1.463-5.129l-.045-.543c-.144-1.639-1.329-2.958-3.578-3.966Q91.363,4.8,86.178,4.664A42.3,42.3,0,0,0,74.989,7.733a45.877,45.877,0,0,1-4.32,2.725l.022.277a1.028,1.028,0,0,0,.432-.188.245.245,0,0,1,.31.244l.277-.144.133-.011.011.122a15.2,15.2,0,0,1-3,2.338l.155.288-.133.011-.333-.122c.011.1-.133.166-.41.188l.011.122.321.4A1.217,1.217,0,0,1,68,13.87a2.237,2.237,0,0,0-1.374.753l.188-.82A66.956,66.956,0,0,0,68.2,6.071l-.033-.144a5.624,5.624,0,0,1-1.341-1.252,4.415,4.415,0,0,0,0-.587l-.033-.122L66.658,4q-2.193,3.29-8.453,11.233-4.769,5.65-4.919,6.282c-1.3,1.34-1.917,2.149-1.85,2.426-.343.221-.487.443-.432.687a.137.137,0,0,1-.188-.111,3.773,3.773,0,0,1-2.47,1.728l-1.152.266a.278.278,0,0,0-.221.332l.033.144.432-.1.033.122-.975.377-1.728.4-.908.055c-.133.133.72-.011.388.067l-1.13.266c-.687.155-1.063.1-1.13-.177l-.133.033a.65.65,0,0,1,.011.288l-.067-.277-.908.21q-.1-.631-3.678-4.586c-.044-.51.8-1.252,2.515-2.216l4.852-4.265q1.629-2.094,1.939-6.713l-.067-.72c-.188-2.171-1.762-3.922-4.719-5.273-1.75-1.185-4.9-1.817-9.439-1.917q-5.65.482-14.734,4a56.35,56.35,0,0,1-5.683,3.589l.033.377a1.491,1.491,0,0,0,.565-.221.321.321,0,0,1,.4.31l.376-.211.188-.011.011.177c.011.177-1.307,1.208-3.977,3.091l.21.333L9.494,14l-.41-.144c.011.111-.177.188-.565.221l.022.2.443.488a1.621,1.621,0,0,1-.6-.122,3.768,3.768,0,0,0-2.537,1.872l.21.332a5.317,5.317,0,0,1,1.263-1.008l.044.543a1.819,1.819,0,0,0-.565.221l.454.687a15,15,0,0,1,2.892-2.426c.521.133.8.3.809.476l.4-.033a30.924,30.924,0,0,1,8.486-4.586l.033.376q-.781,1.163-1.063,1.2a1.218,1.218,0,0,0,.277.7q.067.715-3.811,9.627Q6.486,43.327.5,53.242a1.277,1.277,0,0,0,.233.532A4.952,4.952,0,0,0,2.6,53.065l.211-.022.033.377.366-.033.377-.21c.011.111.133.166.388.144l.033.377A3.362,3.362,0,0,1,3.39,55.38,8.753,8.753,0,0,0,2.1,58.239l.011.177.366-.033a23.235,23.235,0,0,0,3.634-5.24,58.046,58.046,0,0,0,10.657-4.021,9.978,9.978,0,0,0,5.639-1.939l-.022-.2-.93.277-.211.022-.022-.2a8.4,8.4,0,0,0,3.767-1.23q5.3-4.088,8.01-5.794,5.567-4.088,7.223-7.965.311-.068.621-.144a8.109,8.109,0,0,0,.886-.055c-.022-.1.022-.155.122-.177.831-.088.432.055.964-.067l1.4-.321c-.088.022-.122.067-.1.155l.21-.133a.328.328,0,0,1-.111-.022l.233-.055-.111.067a1.369,1.369,0,0,0,.51-.033l.1.41L38.6,41.81,37.19,43.571l-.687,2.3.133-.033.687-.288-.221.9.067.266.188.233c-.088.022-.122.078-.1.177l.033.144.288-.067q.631-.548.532-1a2.625,2.625,0,0,0,.908.067l.033.144c-.277.067-.421.288-.443.665l.033.144.155-.033c2.3-2.515,7.954-11.123,12.485-16.961q-.216-.947,7.09-2.637l.155-.033q.266,1.147-1.13,5.55a14.959,14.959,0,0,0-.842,2.9,22.262,22.262,0,0,0-1.1,3.833L53.73,45.509a51.7,51.7,0,0,0-2.57,9.162,1.122,1.122,0,0,1,.476.044l.243-.211a.137.137,0,0,0,.188.111l-.1-.41.753-.022c.221-.055.41-.333.565-.842-.033-.764.122-1.174.465-1.263a12.218,12.218,0,0,1,.853-2.759,12.239,12.239,0,0,1,.964-3.091c.654-2.348,1.13-3.556,1.44-3.634l.067.288-.476,1.23a60.266,60.266,0,0,1-2.526,8.741l.244,1.063.155-.033q3.091-6.647,8.9-26.322a3.436,3.436,0,0,1,1.651-2.681l-.222-.233-.033-.122a1.512,1.512,0,0,0,.93-.521c-.022-.1-.41-.244-1.163-.443L66.459,15.3a2.852,2.852,0,0,1,.742-.576l.033.421a1.023,1.023,0,0,0-.432.188l.366.521a11.844,11.844,0,0,1,2.171-1.861c.4.111.6.244.621.377l.288-.022a23.484,23.484,0,0,1,6.458-3.456l.022.277q-.581.881-.8.9a1.213,1.213,0,0,0,.177.532q.05.548-2.869,7.323-6.681,15.7-11.222,23.242a1.029,1.029,0,0,0,.2.41,3.594,3.594,0,0,0,1.407-.543l.133-.011.022.277.31-.022.277-.144q.016.116.3.1l.022.3a2.514,2.514,0,0,1-.476,1.263A6.319,6.319,0,0,0,63.2,46.95l.011.144.288-.022a17.505,17.505,0,0,0,2.759-3.988,44.638,44.638,0,0,0,8.087-3.047,7.6,7.6,0,0,0,4.3-1.473l-.011-.144-.72.21-.155.011-.011-.144a6.373,6.373,0,0,0,2.858-.919c2.681-2.061,4.708-3.534,6.082-4.4,4.276-3.113,6.27-6.1,6.026-8.974Zm-.731.188.1,1.119c-.133.277-.277.421-.41.432l-.166-1.905c.31.111.465.221.476.354ZM8.1,15.377l-.188.011-.033-.343.764-.067.011.177a1.471,1.471,0,0,0-.554.222ZM4.365,52.721a2.374,2.374,0,0,0-1.185-.244l-.045-.543c-.022-.21.1-.354.366-.41.244-.022.388.155.41.51a8.07,8.07,0,0,1,1.064-1.2l.41.166C5.251,52.112,4.908,52.677,4.365,52.721ZM44.258,10.99c-.188.022-.565-.565-1.108-1.728l-.033-.343c.354-.033.72.543,1.108,1.728Zm-.532-4.132-.155.366-5.417-2.26q5.417.183,5.572,1.894ZM20.849,26.5l-.764.067-.033-.344.764-.066Zm-.621-11.8.188-.011.044.543c-.177.011-.41.277-.7.787l-.033-.377c.344-.41.521-.72.5-.942ZM18.623,18.49l.067.72-.188.011-.067-.72Zm-.842,1.352.366-.033c-.033.6-.2.92-.5.942l-.188.011A1.735,1.735,0,0,0,17.781,19.841Zm-.631,1.883.21-.022.011.177-.343.576-.366.033-.011-.177a.478.478,0,0,0,.5-.587Zm-.621,1.7-.111.908-.188.011-.077-.9Zm-6.215,17.67c-.244,1.241-.51,1.872-.787,1.894l-.011-.177a1.988,1.988,0,0,1,.8-1.717ZM9.173,43.56l.011.177a.321.321,0,0,1-.333.4l-.011-.177Q8.807,43.643,9.173,43.56Zm-.332,5.129.576-.055.022.2a1.487,1.487,0,0,0-.565.221l-.366.033c-.022-.188.1-.332.332-.4h0Zm16.4-5.063a30.373,30.373,0,0,0-5.705,3.246Q14.28,48.7,14.324,49.143a57.138,57.138,0,0,0-6.148,2.7,2.207,2.207,0,0,1-1.008-.266,1.631,1.631,0,0,1,.842-1.551,3.27,3.27,0,0,1,1.562.243,15.2,15.2,0,0,1,3.013-.986l-.033-.377-1.152.1a15.63,15.63,0,0,1,3.334-1.562l.576-.055.011.177c-.986.088-1.529.377-1.651.9.022.233.155.332.4.31.742-.466,1.108-.742,1.1-.82q2.111-.4,11.665-6.1l.033.343c.011.166-.532.631-1.629,1.429Zm-9.771,3.213a3.772,3.772,0,0,0,2.393-1.108c.266-.022.41.077.421.31a8.514,8.514,0,0,0-2.6,1.152l-.188.011-.022-.366ZM31.23,34.73,26.344,38.6a49.909,49.909,0,0,1-5.86,3.6Q11.809,46.967,9.7,47.149l-.21.022q.266-.98,7.733-15.82,3.29-.283,10.358-3.069l1.152-.1c2.382-.21,4.165.255,5.34,1.363l.066.72q-1.329,3.822-2.914,4.465ZM21.68,29.358l.787-.067.011.177-.786.067Zm11.045-1.872.576-.055c.532.255.809.476.831.676l.011.177A1.617,1.617,0,0,1,32.725,27.485Zm1.562-8.9A22.544,22.544,0,0,1,30.1,21.7c-.753.067-3.556,1.152-8.408,3.279a1.535,1.535,0,0,0-.775-.133l-.033-.344a4.535,4.535,0,0,1,.942-2.636c.377-1.994.787-3.135,1.241-3.412l4.044-9.1q-.067-.848,2.592-1.3l.576-.055.045.521c1.739-.266,2.825-.421,3.246-.454,3.213-.277,4.886.377,5.019,1.939l.366-.033-.078-.919.4-.033a2.518,2.518,0,0,1,1.518,1.894,2.951,2.951,0,0,1-.82,1.895c-.243.022-.388-.155-.41-.51l-.4.033-.088,1.108Q36.63,17.1,35.528,17.2C34.863,18.124,34.453,18.578,34.287,18.589Zm2.481,6.37a1.431,1.431,0,0,0-.8-.31l-.045-.543.366-.033.809.476a.32.32,0,0,1-.333.41Zm2.57,3.046c.354.144.565.3.609.443l-.177.044.011.011a.394.394,0,0,0-.111.022l-.266.21Zm.244,1.529-.033-.144.465-.111.033.144ZM40.7,30.787c.476-.078.709-.111,1.6-.31l.033.144-1.684.388A2.142,2.142,0,0,0,40.7,30.787Zm1.64.7a7.209,7.209,0,0,0-1.684.233l-.033-.144,1.407-.454.676-.155.066.266C42.474,31.3,42.7,31.3,42.341,31.484Zm1.5-.354a.3.3,0,0,1-.377-.221l.432-.1a.264.264,0,0,1,.354.222l-.41.1Zm4.054-4.365-.033-.144.7-.166.067.266Zm4.332,26.566a1.1,1.1,0,0,0,.033-.443l.155-.033a.249.249,0,0,1,.343.2l.033.144-.565.133Zm3.035-25.425-.31-.055a8.8,8.8,0,0,1-1.263.421l-.288.067a.284.284,0,0,1-.366-.2l2.027-.465.665-.31.221.255a1.479,1.479,0,0,0-.687.288Zm1.562-.5-.033-.144a.849.849,0,0,0,.377-.244l1.44-.332.033.144a11.141,11.141,0,0,0-1.817.576Zm.222-2.914a1.194,1.194,0,0,0-.4.244c-.022-.1-.221-.1-.6-.011-.066-.277,1-.665,3.2-1.175l.31-.067.067.266c-1.551.454-2.415.709-2.581.742Zm3.877-4.187c-.155,1.761-.775,2.759-1.872,3.013l-.033-.144-.975.376-.432.1a1.088,1.088,0,0,1-.6-.011l-.088-.388a58.572,58.572,0,0,1,4.232-5.838l.332.056a6.056,6.056,0,0,1-.565,2.836Zm6.857-5.872-.133.011-.022-.277.576-.055.011.144a1.866,1.866,0,0,0-.432.177ZM64.952,42.807a1.779,1.779,0,0,0-.886-.2l-.033-.421q-.017-.216.266-.3c.188-.022.3.111.321.4a4.85,4.85,0,0,1,.8-.92l.3.122c-.111.842-.366,1.285-.764,1.318ZM95.24,11.123c-.144.011-.421-.432-.853-1.329l-.022-.277c.277-.022.565.41.853,1.3l.022.31Zm-.4-3.168-.133.288-4.1-1.717C93.346,6.614,94.764,7.09,94.841,7.954ZM77.459,22.877l-.576.055-.022-.277.576-.044.022.266Zm-.476-8.963.155-.011.033.421q-.216.017-.532.6l-.022-.277a1.286,1.286,0,0,0,.366-.731Zm-1.208,2.88.044.543-.155.011-.045-.543Zm-.654,1.03.288-.022q-.05.7-.366.731l-.155.011A1.5,1.5,0,0,0,75.122,17.825Zm-.465,1.418.133-.011.011.144-.255.443-.288.022-.011-.144c.3-.022.432-.177.41-.454Zm-.465,1.285-.1.709-.133.011-.055-.7.288-.022ZM69.461,33.966q-.283,1.4-.6,1.429l-.011-.122A1.587,1.587,0,0,1,69.461,33.966Zm-.875,1.872.011.122a.254.254,0,0,1-.266.321l-.011-.144q-.017-.216.266-.3Zm-.244,3.9.443-.033.011.144a1.275,1.275,0,0,0-.432.166l-.288.022q-.017-.232.266-.3Zm12.441-3.844a25.86,25.86,0,0,0-4.343,2.448c-2.659.93-3.977,1.507-3.955,1.739a42.026,42.026,0,0,0-4.642,2.049,1.725,1.725,0,0,1-.764-.21,1.18,1.18,0,0,1,.642-1.152,2.5,2.5,0,0,1,1.185.177A12.865,12.865,0,0,1,71.2,40.2l-.022-.277-.908.067a11.927,11.927,0,0,1,2.548-1.2l.443-.033.011.122c-.753.067-1.174.288-1.263.687a.245.245,0,0,0,.31.244c.554-.366.82-.576.82-.642q1.6-.283,8.852-4.642l.022.277c.011.122-.4.476-1.23,1.086Zm-7.422,2.437A2.975,2.975,0,0,0,75.2,37.5a.244.244,0,0,1,.31.244,7.048,7.048,0,0,0-1.972.842l-.155.011-.022-.266Zm11.987-9.206-3.689,2.969a35.835,35.835,0,0,1-4.487,2.736q-6.58,3.622-8.187,3.756l-.155.011q.2-.748,5.883-12.009a32.416,32.416,0,0,0,7.854-2.348l.9-.078a4.991,4.991,0,0,1,4.044,1.052l.044.543c-.676,1.905-1.407,3.024-2.2,3.368ZM78.1,25.048l.576-.055.011.144-.576.055Zm8.386-1.429.443-.033c.41.2.62.377.631.521l.011.122A1.238,1.238,0,0,1,86.488,23.619Zm1.163-6.746a16.95,16.95,0,0,1-3.157,2.371,42.381,42.381,0,0,0-6.381,2.47,1.453,1.453,0,0,0-.587-.077l-.022-.277a3.478,3.478,0,0,1,.7-2.005c.288-1.529.609-2.382.942-2.581L82.234,9.86c-.033-.41.621-.742,1.95-1l.443-.033.033.421q1.961-.316,2.459-.366c2.437-.211,3.711.277,3.811,1.473l.288-.022-.055-.665.288-.022a1.84,1.84,0,0,1,1.13,1.407,2.294,2.294,0,0,1-.587,1.451c-.188.022-.3-.111-.321-.4l-.288.022-.089.831c-1.23,1.872-2.127,2.836-2.692,2.88-.5.676-.809,1.019-.953,1.03Zm1.3,4.608-.033-.421.288-.022.621.376a.259.259,0,0,1-.266.3,1.137,1.137,0,0,0-.609-.233ZM37.378,48.39l-.288.067-.244.21a.249.249,0,0,0,.343.2c.188-.044.266-.155.222-.332Zm-1.1-2.182.033.144c.188-.044.266-.155.221-.332l-.033-.144a.26.26,0,0,0-.221.333Zm7.8-18.556.333-.077-.067-.288-.332.077.066.288Zm100.525,8.442a18.7,18.7,0,0,1-4.5.676l.022.277.31-.022.166-.011-.044-.033.365-.144c3.335-.366,3.722-.233,3.689-.609ZM126.47,38.5l.022.277h.044l-.022-.277h-.045Zm-2.083-7.3-.3-.1a5,5,0,0,0-.354,1.152l.011.122C123.977,32.36,124.188,31.961,124.387,31.2Zm20.9,4.841.022.277.487.088-.022-.277Zm-22.921,2.8-.753-.088-.133.288.011.144,4.487-.377-.022-.277-3.589.31Zm-2.038-9.826-.011-.144-.155.011-.277.177.155.266c.211-.022.31-.122.288-.31ZM147.419,34l.211-.022c.122-.011.177-.111.166-.288l-.122-.266a3.589,3.589,0,0,0-1.739.443l-.011-.144-.919.088c-.022-.277-.1-.421-.221-.41l-.476.044c-.554.044-.82.022-1.1.233-.011-.1-.044-.144-.1-.144l-.532.044-.31.177c-.011-.1-.044-.144-.1-.144l-.188.166-.011-.144-.742-.055-.177.011.022.277.377.1.354-.022a.642.642,0,0,0,.41.088l.31-.155.011.122a22.69,22.69,0,0,1-2.925.554.5.5,0,0,0-.3-.122l-.022.022a.235.235,0,0,1-.221-.244l.62-.077a3.875,3.875,0,0,0,.421.111c.5-.244.521-.344.787-.366l-.022-.277a18.026,18.026,0,0,1-3.157.3l-.1.011-.022-.277c2.747-.332,1.828-.144,2.77-.41.011.1.044.144.1.144a.644.644,0,0,1,.377-.188l.188-.011a10.06,10.06,0,0,0,3.19-.421l.011.122.31-.155.288-.022c-.022-.277.4-.321.543-.333l-.022-.3c-3.346.676-4.221.487-5.151.754l-.011-.122a4.055,4.055,0,0,1-1.13.1.588.588,0,0,0-.277.177c-.011-.1-.044-.144-.111-.144a.226.226,0,0,0-.055.011l-2.836.465c-.011-.077-.044-.122-.111-.111a14.469,14.469,0,0,1-3.047.543.924.924,0,0,0-.366.155c-.011-.078-.055-.122-.155-.111l-1.208.1-.809.2c-.011-.077-.055-.122-.155-.111a6.456,6.456,0,0,1-1.174.222h-.022c-.2.022.1-.055-.055-.122l-.244.144c-.354.033-.166-.022-1.385-.011-2.138.266-1.905.3-2.138.31l-.8-.055a.11.11,0,0,1-.122.133c-.909-.122-1.374-.266-1.385-.432q.183-1.3.632-1.329l.155-.011-.133.288.155-.011c.288-.155.421-.3.41-.432l-.022-.3-.288.022-.022-.277a1,1,0,0,1,.089-.554l.654-1.052.022.277.31-.022-.022-.277-.177-.255a1.131,1.131,0,0,1,.554-.321l-.011-.144-.421.033-.033-.421a11.877,11.877,0,0,0,1.219-3.058l.3.122c.188-.011.277-.122.266-.321l-.288.022-.011-.122a1.058,1.058,0,0,1,.111-.587,1.854,1.854,0,0,0,.621-1.451c.089-.011.133.033.144.133.388-.221.687-.809.908-1.784a55.7,55.7,0,0,0,2.936-7.433c2.437-6.558,2.338-7.256,2.681-8.807l-.288.022a1,1,0,0,1-.111.565,1.139,1.139,0,0,0-.465-.111l-.011-.122a3.367,3.367,0,0,1,.72-2.038l.133-.011.244.953.288-.022a8.715,8.715,0,0,1,.222-1.141c-.011-.144-.122-.233-.344-.244l-.277.177c-.022-.2-.011-.72.022-1.551l-.144.011a1.079,1.079,0,0,1-.377-.609l-1.584.155a1.465,1.465,0,0,0-.177-.487c-.011-.144.343-.288,1.075-.432l.321.122.3-.177c.011.1.066.144.177.133l.3-.177c.011.1.066.144.178.133l.144-.011L133.659.9c-.221.022-.809.022-1.739-.011l-.3.2L131.61.908q-11.15.914-12.662,1.052c-.133.011-.654,0-1.573-.022.011.122-.1.188-.321.211l-.321-.144-1.086.277a7.228,7.228,0,0,1-1.285-.055,1.107,1.107,0,0,1-.609.233c-.133.011,1.584-.089,3.179-.2a1.454,1.454,0,0,1-.775.244,1.064,1.064,0,0,1-.632-.111,18,18,0,0,1-2.348.554l-.321-.122-5.185.8a1.294,1.294,0,0,0-.7-.111,8.631,8.631,0,0,0-1.385.3l-2.5,1.041.188.31a1.381,1.381,0,0,0,.509-.2l.887.077-.111.831a2.232,2.232,0,0,0-1.429,1.6c-1.23.543-1.839.93-1.839,1.163l.011.144.188-.011.332-.177.388.465.055.642q.033.3-6.193,13.061c-3.589,8.2-5.473,12.685-5.65,13.493-1.23.343-1.939.842-2.149,1.507.022.21.388.354,1.1.41l.033.321-.321.532.055.643q.05.5,2.692.764c-.011-.111.045-.177.166-.188a9.682,9.682,0,0,1-.332,2.326l.188-.011a4.128,4.128,0,0,0,1.041-2.06l.155-.011c.177-.011.366.188.587.62q-.332.133-2.326,5.3l.188.31.188-.011q2.442-6.182,3.069-6.836,3.207-.283,11.089-1.13l.332-.2a.16.16,0,0,0,.2.155l.343-.033.333-.2a.16.16,0,0,0,.2.155l3.977-.343c1.053-.088,1.551-.41,1.507-.953-.011-.144.609-.31,1.861-.487a1.517,1.517,0,0,1,.543.1c-.011-.1.62-.2,1.883-.31.033-.665.244-1.019.621-1.052l-.033-.321a5.5,5.5,0,0,0-1.218.277,7.454,7.454,0,0,1-1.584-.188,1.458,1.458,0,0,1-.509.2l-2.77.089-.332.177q-.017-.15-.2-.133l-.155.011-.354.177c-.011-.1-.3-.177-.875-.255l-.354.21-.687.055-.011-.177q5.351-.581,5.284-1.451a.309.309,0,0,1,.377.321l1.042-.266-.033-.321-8.541.233c.011.111-.045.177-.166.188l-1.041-.088a1.255,1.255,0,0,0-.665.233l-.388-.144a11.857,11.857,0,0,0-2.4.388,15.132,15.132,0,0,0-2.437.033l-1.917.166-.886-.1c-.044-.565,1.052-3.346,3.312-8.331a7.259,7.259,0,0,1,1.828-3.135,1.29,1.29,0,0,1,.543.133l1.363-.465.7.111a15.99,15.99,0,0,0,4.1-1.008,1.92,1.92,0,0,1,.886.078l1.042-.244,3.1-.266a20.574,20.574,0,0,0,4.3-.875l-.033-.321c-.576.055-.875-.044-.9-.277-.033-.432-.454-.609-1.263-.543l-.033-.321.853-.244,2.238-.188-.033-.321c-.088.011-.543,0-1.385-.033l-.033-.343.864-.078c.233-.022.332-.133.31-.354-1.163.033-1.75-.022-1.762-.177q-12.164.6-12.2.221a1.393,1.393,0,0,0-.509.222l-.211-.333q3.224-6.846,3.778-6.9a1.917,1.917,0,0,1-.277.853l.011.144.343-.033c.853-2.038,1.573-3.091,2.171-3.135,2.548-.222-.354-.388,5.1-1.241a1.066,1.066,0,0,0,.487.133q3.207-.648,8.94-1.351l-.022-.321-2.038.188-.022-.321a1.107,1.107,0,0,0,.609-.233l.011.177a1.2,1.2,0,0,0,.466-.222,1.455,1.455,0,0,1,.809.1,11.8,11.8,0,0,1,1.706-.344l1.274-.122c.31-.2.454-.376.443-.543l-.011-.144a4.022,4.022,0,0,1-1.119-.067.325.325,0,0,1,.288-.354l2.371-.221,1.086-.277c.011.122.066.166.155.166a1.2,1.2,0,0,0,.465-.222c.055.011.122.011.177.022a8.821,8.821,0,0,0-.476,1.3l-.31.022a1.351,1.351,0,0,0-.177-.565l-.155.011c-2.88,8.021-4.165,11.754-6.824,17.914-.488,1.573-.9,2.448-1.252,2.637a.245.245,0,0,0,.31.244,3.868,3.868,0,0,1-.543,2.293c-1.23,3.545-2.05,5.484-2.471,5.838l.277,1.673a.259.259,0,0,1-.266.3l-.288.022c-.045-.466-.211-.687-.51-.654l-.155.011a6.592,6.592,0,0,0-.853,2.049l.288-.022a.958.958,0,0,0,.532-.9l.576-.055.332.122a1.779,1.779,0,0,0-.366,1.008l.155.266-.377.886.011.144a1.8,1.8,0,0,1,1.086.31,1.941,1.941,0,0,0,.875-.354c.332-.033,1.573-.044,3.711-.044l1.074-.366a24.938,24.938,0,0,0,2.648-.077l.465-.045.244-.166.011.144a7.268,7.268,0,0,1,2.193.088l.011.144-.654.055.022.277a.94.94,0,0,0,.521-.2c.166-.011.266.077.277.277a3.9,3.9,0,0,0-.9.2l-.288-.1c-.454.122-.354.155-.665.177l-.454-.088a.107.107,0,0,1-.111.133.239.239,0,0,0,.277.255l.465-.044,2.426-.211.92-.2c.011.078.044.122.122.111l.443-.166.831-.067c.642-.055.631-.1,2.027-.321-.011-.088.022-.122.089-.133l.011.122a20.453,20.453,0,0,0,2.781-.532l.033.067c.565-.133.244-.1.4-.21.011.1.044.144.1.144l.4-.033-.022-.3-.809-.011-.011-.022c-.033.011-.056.011-.089.022h-.111v.022a4.265,4.265,0,0,1-.908.067l-2.027.111-.011-.144,1.13-.155.41-.033.233-.166.011.144c1.6-.133,2.16.266,9.538-1.307.4-.033.366-.366.621-1.053a.69.69,0,0,1-.388-.088,11.529,11.529,0,0,1-2.1.31c-.1.011-.177-.078-.211-.255l-.011-.122,1.13.033a2.854,2.854,0,0,0,1.23-.4c0,.1-.222.155-.089.144Zm-54.549.875-.521.044a9.837,9.837,0,0,1,.831-2.371l.344-.033A9.065,9.065,0,0,1,92.869,34.874Zm.631-2.526L93.49,32.2c-.011-.177.1-.3.344-.354l.011.144C93.855,32.2,93.744,32.326,93.5,32.349Zm6.924,5.351.011.144-.864.078-.011-.144.864-.077Zm-1.041-.089c.011.177-.255.377-.831.576l-1.063-.077-.343.033-.033-.321,2.271-.211Zm7-32.227-.521.044-.011-.177c-.011-.177.088-.3.31-.354l.188-.011.354.144a.306.306,0,0,1-.321.355Zm7.921-1.551.166-.011.022.321-.476.045A.325.325,0,0,1,114.306,3.833Zm-1.994.7-.787-.089-.011-.144a8.509,8.509,0,0,0,2.005-.377c.011.122.122.166.321.144l.022.321-.31.033a1.065,1.065,0,0,1-.631-.111,1.355,1.355,0,0,1-.609.221ZM113.3,7.4l-.011-.144,1.274-.122.011.144Zm1.363-1.108-.011-.177.62-.055.011.177Zm.144-2.171-.166.011.144-.344,1.418-.133.011.177A8.532,8.532,0,0,0,114.8,4.121Zm.72,3.057-.022-.321.621-.055q.316-.033.333.3l-.931.077ZM119.28,2.06l-.8.222-.144.011a8.145,8.145,0,0,1-1.44-.033c1.03-.067,2.016-.144,2.382-.2Zm-.853,3.545.011.144-1.1.1-.011-.144,1.1-.1Zm1.795.853c-.011-.133-.221-.221-.654-.266l-1.1.31-.842.033c-.188-.133-.288-.221-.3-.288l.975.055,2.193-.354,1.119.044.011.177A6.288,6.288,0,0,0,120.221,6.458ZM131.51,3.545c.133.011.221.011.255.011a4.259,4.259,0,0,1,1.318-.886,7.793,7.793,0,0,1-1.872,3.889l-.62-.377a20.3,20.3,0,0,0,.92-2.637ZM129.6,6.813l.155-.011c-.211.4-.4.609-.554.62L129.173,7A.947.947,0,0,0,129.6,6.813Zm-1.23,2.936a4.159,4.159,0,0,1,.853-2.049l.011.144c-.155,1.108-.4,1.7-.72,1.739l.055.7a1.569,1.569,0,0,0-.377.886l-.155.011-.089-.964c.177-.022.321-.177.421-.465Zm-.476,1.6a4.037,4.037,0,0,1-.321,1.152l-.155.011-.033-.421c.21-.488.388-.731.509-.742Zm-8.94,25.945-.011-.122.288-.022.033.421C119.114,37.578,119,37.489,118.959,37.289Zm12.773.333c-.011-.1-.055-.144-.155-.133l-.72.067-.011-.144h.066l1.706-.144.011.144A1.493,1.493,0,0,0,131.732,37.622Zm-.853-.354c.066.033.033.067,0,.088C130.846,37.345,130.8,37.312,130.879,37.267Zm.089-1.994-.953.078L130,35.207l.864-.077.754-.188c.011.088.055.122.155.111.9-.155.809-.2,1.241-.233.144-.011.233.078.244.255l-2.293.2Zm3.335-.288a3.794,3.794,0,0,0-.942-.067l-.011-.122.853-.077.011.122C134.125,34.852,134.446,34.874,134.3,34.985Zm.066-.155-.011-.122.465-.044.011.122Zm1.03-.089-.011-.122a.8.8,0,0,0,.332-.177.33.33,0,0,1,.377.31l-.7-.011Zm1.318-.166-.011-.144.565-.045.011.144Zm.787-.067c-.011-.166.055-.266.2-.288l.188.244a.1.1,0,0,1,.089-.133l.144.266-.621-.089Zm-8.364,3.612-.022-.277-.089.011.022.277ZM148.6,33.08c.088-.055.133-.111-.078-.144-.1.111.111.144-.111.155l.011.1c.022-.022.078-.055.122-.088l-.122.1v.011l-.233.3.465-.166h.056l-.022-.277Zm.809.632-.089.011.022.277.654-.055c-.011-.177-.443-.233-.587-.233Zm-1.008-.487.011-.011V33.2a.039.039,0,0,0-.011.022Z"/>
      <path id="Trazado_4784" data-name="Trazado 4784" d="M105.875,12.718l.011.177.366-.033a1.4,1.4,0,0,1,.111-.51l-.033-.321c-.155.011-.31.244-.454.687Zm-3.5-8.419-.033-.321-.521.044.033.321ZM92.216,23.32c-.022-.3-.953-1.462-2.792-3.512-.033-.376.6-.942,1.894-1.684l3.7-3.224a9.267,9.267,0,0,0,1.462-5.129l-.044-.543c-.144-1.64-1.329-2.958-3.578-3.966Q90.864,3.916,85.68,3.778A42.3,42.3,0,0,0,74.491,6.846,45.942,45.942,0,0,1,70.17,9.572l.022.277a1.031,1.031,0,0,0,.432-.188.244.244,0,0,1,.31.244l.277-.144.133-.011.011.122a15.2,15.2,0,0,1-3,2.338l.155.288-.133.011-.332-.122c.011.1-.133.166-.41.188l.011.122.321.4a1.218,1.218,0,0,1-.465-.111,2.237,2.237,0,0,0-1.374.753l.188-.82A66.9,66.9,0,0,0,67.7,5.185l-.033-.144a5.623,5.623,0,0,1-1.34-1.252,4.413,4.413,0,0,0,0-.587l-.033-.122-.133.033Q63.966,6.4,57.707,14.346,52.938,20,52.788,20.628c-1.3,1.341-1.917,2.149-1.85,2.426-.343.221-.487.443-.432.687a.137.137,0,0,1-.188-.111,3.773,3.773,0,0,1-2.471,1.728l-1.152.266a.279.279,0,0,0-.221.333l.033.144.432-.1.033.122L46,26.5l-1.728.4-.908.055c-.133.133.72-.011.388.067l-1.13.266c-.687.155-1.063.1-1.13-.177l-.133.033a.646.646,0,0,1,.011.288l-.067-.277-.908.21q-.1-.631-3.678-4.586c-.044-.509.8-1.252,2.515-2.215L44.08,16.3q1.629-2.094,1.939-6.713l-.067-.72c-.188-2.171-1.761-3.922-4.719-5.273-1.75-1.185-4.9-1.817-9.439-1.917q-5.65.482-14.734,4a56.35,56.35,0,0,1-5.683,3.589l.033.377a1.492,1.492,0,0,0,.565-.221.32.32,0,0,1,.4.31l.377-.211.188-.011.011.177c.011.177-1.307,1.208-3.977,3.091l.211.333L9,13.117l-.41-.144c.011.111-.177.188-.565.221l.022.2.443.488a1.618,1.618,0,0,1-.6-.122,3.768,3.768,0,0,0-2.537,1.872l.211.333a5.319,5.319,0,0,1,1.263-1.008l.045.543a1.815,1.815,0,0,0-.565.221l.454.687a15.015,15.015,0,0,1,2.891-2.426c.521.133.8.3.809.476l.4-.033a30.923,30.923,0,0,1,8.486-4.586l.033.376q-.781,1.163-1.064,1.2a1.218,1.218,0,0,0,.277.7q.066.715-3.811,9.627Q5.988,42.441,0,52.356a1.282,1.282,0,0,0,.233.532A4.955,4.955,0,0,0,2.1,52.179l.21-.022.033.376.365-.033.377-.21c.011.111.133.166.388.144l.033.377a3.36,3.36,0,0,1-.621,1.684,8.758,8.758,0,0,0-1.285,2.858l.011.177.366-.033a23.244,23.244,0,0,0,3.634-5.24,58.077,58.077,0,0,0,10.657-4.021A9.978,9.978,0,0,0,21.913,46.3l-.022-.2-.93.277-.211.022-.022-.2a8.4,8.4,0,0,0,3.767-1.23q5.3-4.088,8.009-5.794,5.567-4.088,7.223-7.965c.2-.045.4-.089.62-.144a8.1,8.1,0,0,0,.886-.055c-.022-.1.022-.155.122-.177.831-.088.432.055.964-.067l1.4-.321.233-.056-.111.067a1.361,1.361,0,0,0,.509-.033l.1.41L38.1,40.923l-1.407,1.762L36,44.989l.133-.033.687-.288-.221.9.067.266.188.233c-.089.022-.122.078-.1.177l.033.144.288-.067q.631-.548.532-1a2.625,2.625,0,0,0,.908.067l.033.144c-.277.067-.421.288-.443.665l.033.144.155-.033c2.3-2.515,7.954-11.123,12.485-16.961q-.216-.947,7.09-2.637l.155-.033q.266,1.147-1.13,5.55a14.953,14.953,0,0,0-.842,2.9,22.219,22.219,0,0,0-1.1,3.833l-1.728,5.661a51.67,51.67,0,0,0-2.57,9.162,1.128,1.128,0,0,1,.476.045l.244-.211a.137.137,0,0,0,.188.111l-.1-.41.754-.022c.221-.055.41-.333.565-.842-.033-.764.122-1.174.465-1.263a12.237,12.237,0,0,1,.853-2.759,12.234,12.234,0,0,1,.964-3.091c.654-2.348,1.13-3.556,1.44-3.634l.067.288-.476,1.23a60.261,60.261,0,0,1-2.526,8.741l.244,1.063L53.973,53q3.091-6.647,8.9-26.322A3.436,3.436,0,0,1,64.52,24l-.221-.233-.033-.122a1.514,1.514,0,0,0,.931-.521c-.022-.1-.41-.244-1.163-.443l1.928-8.264a2.862,2.862,0,0,1,.742-.576l.033.421a1.03,1.03,0,0,0-.432.188l.366.521a11.864,11.864,0,0,1,2.171-1.861c.4.111.6.244.621.376l.288-.022A23.481,23.481,0,0,1,76.208,10l.022.277q-.581.881-.8.9a1.206,1.206,0,0,0,.177.532q.05.548-2.869,7.323-6.68,15.7-11.222,23.242a1.029,1.029,0,0,0,.2.41,3.594,3.594,0,0,0,1.407-.543l.133-.011.022.277.31-.022.277-.144q.017.116.3.1l.022.3a2.52,2.52,0,0,1-.476,1.263,6.313,6.313,0,0,0-1.008,2.16l.011.144L63,46.185A17.5,17.5,0,0,0,65.761,42.2a44.643,44.643,0,0,0,8.087-3.047,7.6,7.6,0,0,0,4.3-1.473l-.011-.144-.72.211-.155.011-.011-.144a6.377,6.377,0,0,0,2.858-.919c2.681-2.061,4.708-3.534,6.082-4.4,4.276-3.113,6.27-6.1,6.027-8.973Zm-.731.188.1,1.119c-.133.277-.277.421-.41.432l-.166-1.905c.31.111.465.221.476.354ZM7.6,14.491l-.188.011-.033-.343.764-.067.011.177a1.471,1.471,0,0,0-.554.222ZM3.866,51.835a2.37,2.37,0,0,0-1.185-.244l-.044-.543c-.022-.21.1-.354.366-.41.243-.022.388.155.41.51a8.06,8.06,0,0,1,1.063-1.2l.41.166C4.753,51.226,4.409,51.791,3.866,51.835ZM43.759,10.1c-.188.022-.565-.565-1.108-1.728l-.033-.343c.354-.033.72.543,1.108,1.728Zm-.532-4.132-.155.366-5.417-2.26Q43.073,4.259,43.228,5.971ZM20.351,25.613l-.764.067-.033-.344.764-.067Zm-.621-11.8.188-.011.045.543c-.177.011-.41.277-.7.787l-.033-.377c.343-.41.521-.72.5-.942ZM18.124,17.6l.067.72L18,18.335l-.067-.72Zm-.842,1.352.366-.033c-.033.6-.2.92-.5.942l-.188.011A1.739,1.739,0,0,0,17.282,18.955Zm-.632,1.883.211-.022.011.177-.343.576-.366.033-.011-.177a.478.478,0,0,0,.5-.587Zm-.62,1.7-.111.908-.188.011-.078-.9ZM9.815,40.2c-.244,1.241-.509,1.872-.787,1.894l-.011-.177a1.988,1.988,0,0,1,.8-1.717Zm-1.141,2.47.011.177a.32.32,0,0,1-.332.4l-.011-.177Q8.309,42.757,8.674,42.674ZM8.342,47.8l.576-.055.022.2a1.487,1.487,0,0,0-.565.221l-.366.033c-.022-.188.1-.332.333-.4Zm16.4-5.063a30.4,30.4,0,0,0-5.705,3.246q-5.251,1.828-5.207,2.271a57.063,57.063,0,0,0-6.149,2.7,2.212,2.212,0,0,1-1.008-.266,1.631,1.631,0,0,1,.842-1.551,3.273,3.273,0,0,1,1.562.244,15.194,15.194,0,0,1,3.013-.986l-.033-.377-1.152.1a15.662,15.662,0,0,1,3.335-1.562l.576-.055.011.177c-.986.088-1.529.376-1.651.9.022.233.155.332.4.31.742-.465,1.108-.742,1.1-.82q2.11-.4,11.665-6.1l.033.343C26.377,41.477,25.835,41.942,24.738,42.74Zm-9.771,3.213a3.771,3.771,0,0,0,2.393-1.108c.266-.022.41.077.421.31a8.52,8.52,0,0,0-2.6,1.152l-.188.011-.022-.366ZM30.731,33.844l-4.886,3.877a48.362,48.362,0,0,1-5.872,3.6Q11.3,46.091,9.2,46.274l-.211.022q.266-.98,7.733-15.82,3.29-.283,10.358-3.069l1.152-.1c2.382-.21,4.165.255,5.34,1.363l.067.72c-.875,2.537-1.85,4.022-2.9,4.453Zm-9.55-5.373.787-.067.011.177-.787.067ZM32.227,26.6l.576-.055c.532.255.809.476.831.676l.011.177A1.617,1.617,0,0,1,32.227,26.6Zm1.562-8.9A22.549,22.549,0,0,1,29.6,20.816c-.754.067-3.556,1.152-8.408,3.279a1.538,1.538,0,0,0-.775-.133l-.033-.343a4.533,4.533,0,0,1,.942-2.636c.376-1.994.787-3.135,1.241-3.412l4.044-9.1q-.066-.848,2.592-1.3l.576-.055.044.521c1.739-.266,2.825-.421,3.246-.454,3.213-.277,4.886.377,5.019,1.939l.366-.033-.078-.919.4-.033a2.517,2.517,0,0,1,1.518,1.894,2.952,2.952,0,0,1-.82,1.895c-.244.022-.388-.155-.41-.51l-.4.033-.088,1.108q-2.443,3.656-3.545,3.756c-.665.919-1.075,1.374-1.241,1.385Zm2.482,6.37a1.432,1.432,0,0,0-.8-.31l-.044-.543.366-.033.809.477a.32.32,0,0,1-.332.41Zm2.57,3.046c.354.144.565.3.609.443l-.177.044.011.011a.392.392,0,0,0-.111.022l-.266.21-.066-.731Zm.243,1.529-.033-.144.465-.111.033.144-.466.111ZM40.2,29.9c.476-.078.709-.111,1.6-.31l.033.144-1.684.388A2.22,2.22,0,0,0,40.2,29.9Zm1.639.7a7.209,7.209,0,0,0-1.684.233l-.033-.144,1.418-.454.676-.155.067.266C41.976,30.41,42.2,30.41,41.843,30.6Zm1.5-.354a.3.3,0,0,1-.377-.221l.432-.1a.264.264,0,0,1,.354.222l-.41.1Zm4.055-4.365-.033-.144.7-.166.067.266Zm4.332,26.566A1.1,1.1,0,0,0,51.758,52l.155-.033a.249.249,0,0,1,.343.2l.033.144-.565.133ZM54.76,27.02l-.31-.055a8.773,8.773,0,0,1-1.263.421l-.288.067a.284.284,0,0,1-.366-.2l2.027-.465.665-.31.222.255a1.482,1.482,0,0,0-.687.288Zm1.562-.5-.033-.144a.847.847,0,0,0,.377-.244l1.44-.333.033.144A11.127,11.127,0,0,0,56.322,26.521Zm.221-2.914a1.188,1.188,0,0,0-.4.244c-.022-.1-.221-.1-.6-.011-.067-.277,1-.664,3.2-1.174l.31-.067.067.266c-1.551.454-2.415.709-2.581.742Zm3.877-4.187c-.155,1.761-.775,2.758-1.872,3.013l-.033-.144-.975.376-.432.1a1.088,1.088,0,0,1-.6-.011l-.089-.388a58.633,58.633,0,0,1,4.232-5.838l.332.055a6.052,6.052,0,0,1-.565,2.836Zm6.858-5.872-.133.011-.022-.277.576-.055.011.144A1.865,1.865,0,0,0,67.279,13.549ZM64.453,41.92a1.775,1.775,0,0,0-.886-.2l-.033-.421q-.017-.216.266-.3c.188-.022.3.111.321.4a4.859,4.859,0,0,1,.8-.919l.3.122C65.107,41.444,64.852,41.887,64.453,41.92ZM94.741,10.236c-.144.011-.421-.432-.853-1.329l-.022-.277c.277-.022.565.41.853,1.3l.022.31Zm-.4-3.168-.133.288-4.1-1.717C92.847,5.728,94.265,6.2,94.343,7.068ZM76.961,21.991l-.576.055-.022-.277.576-.055Zm-.476-8.963.155-.011.033.421q-.216.017-.532.6l-.022-.277a1.284,1.284,0,0,0,.366-.731Zm-1.208,2.88.045.543-.155.011-.044-.543Zm-.654,1.03.288-.022q-.05.7-.365.731l-.155.011a1.5,1.5,0,0,0,.233-.72Zm-.465,1.418.133-.011.011.144-.255.443-.288.022-.011-.144c.3-.022.432-.177.41-.454Zm-.465,1.285-.1.709-.133.011-.055-.7.288-.022ZM68.962,33.08q-.282,1.4-.6,1.429l-.011-.122A1.587,1.587,0,0,1,68.962,33.08Zm-.875,1.872.011.122a.254.254,0,0,1-.266.321l-.011-.144q-.017-.216.266-.3Zm-.244,3.9.443-.033.011.144a1.274,1.274,0,0,0-.432.166l-.288.022q-.017-.232.266-.3Zm12.441-3.844a25.86,25.86,0,0,0-4.343,2.448c-2.659.93-3.977,1.506-3.955,1.739a42.011,42.011,0,0,0-4.642,2.05,1.727,1.727,0,0,1-.765-.21,1.179,1.179,0,0,1,.643-1.152,2.5,2.5,0,0,1,1.185.177,12.871,12.871,0,0,1,2.293-.742l-.022-.277-.9.078a11.9,11.9,0,0,1,2.548-1.2l.443-.033.011.122c-.753.067-1.174.288-1.263.687a.245.245,0,0,0,.31.244c.554-.366.82-.576.82-.642q1.6-.283,8.852-4.642l.022.277c0,.111-.41.465-1.241,1.075Zm-7.422,2.437a2.974,2.974,0,0,0,1.839-.831c.188-.011.3.067.31.244a7.041,7.041,0,0,0-1.972.842l-.155.011-.022-.266Zm11.987-9.206L81.16,31.208a35.858,35.858,0,0,1-4.487,2.736q-6.58,3.622-8.187,3.756l-.155.011q.2-.748,5.883-12.009a32.412,32.412,0,0,0,7.854-2.348l.9-.078a4.991,4.991,0,0,1,4.044,1.052l.045.543c-.676,1.905-1.407,3.024-2.2,3.368ZM77.6,24.162l.576-.055.011.144-.576.055Zm8.386-1.429.443-.033c.41.2.621.376.631.521l.011.122A1.238,1.238,0,0,1,85.99,22.733Zm1.163-6.747A16.95,16.95,0,0,1,84,18.357a42.394,42.394,0,0,0-6.381,2.47,1.457,1.457,0,0,0-.587-.078l-.022-.277a3.477,3.477,0,0,1,.7-2.005c.288-1.529.609-2.382.942-2.581l3.091-6.913c-.033-.41.62-.742,1.95-1l.443-.033.033.421Q86.123,8.048,86.621,8c2.437-.211,3.711.277,3.811,1.473l.288-.022-.055-.665.288-.022a1.839,1.839,0,0,1,1.13,1.407,2.294,2.294,0,0,1-.587,1.451c-.188.022-.3-.111-.321-.4l-.288.022-.088.831c-1.23,1.872-2.127,2.836-2.692,2.88-.5.676-.809,1.019-.953,1.03Zm1.3,4.609-.033-.421.288-.022.62.376a.259.259,0,0,1-.266.3,1.138,1.138,0,0,0-.609-.233ZM36.88,47.5l-.288.067-.244.21a.249.249,0,0,0,.344.2c.188-.044.266-.155.221-.332Zm-1.1-2.182.033.144c.188-.044.266-.155.222-.332L36,44.989a.26.26,0,0,0-.221.333Zm7.843-14.734.211-.133a.335.335,0,0,1-.111-.022A.128.128,0,0,0,43.626,30.587Zm-.044-3.822.332-.077-.067-.288-.332.078Zm78.29,11.189-.754-.088-.133.288L121,38.3l4.487-.377-.022-.277Zm4.1-.343.022.277h.044l-.022-.277Zm18.822-2.459.022.277.488.088-.022-.277Zm-.687.055a18.691,18.691,0,0,1-4.5.676l.022.277.31-.022.166-.011-.044-.033.366-.144c3.335-.366,3.722-.233,3.689-.609Zm-20.218-4.9-.3-.1a5,5,0,0,0-.354,1.152l.011.122C123.479,31.473,123.689,31.075,123.889,30.31Zm-4.055-2.182-.011-.144-.155.011-.277.177.155.266c.21-.022.31-.122.288-.31Zm8.807,9.106-.022-.277-.088.011.022.277.089-.011Zm18.279-4.121.21-.022c.122-.011.177-.111.166-.288l-.122-.266a3.587,3.587,0,0,0-1.739.443l-.011-.144-.92.089c-.022-.277-.1-.421-.221-.41l-.476.044c-.554.044-.82.022-1.1.233-.011-.1-.044-.144-.1-.144l-.532.045-.31.177c-.011-.1-.044-.144-.1-.144l-.188.166-.011-.144-.742-.055-.177.011.022.277.377.1.354-.022a.644.644,0,0,0,.41.088l.31-.155.011.122a22.688,22.688,0,0,1-2.925.554.506.506,0,0,0-.3-.122l-.022.022a.235.235,0,0,1-.221-.244l.621-.078a3.789,3.789,0,0,0,.421.111c.5-.244.521-.344.787-.366l-.022-.277a18.058,18.058,0,0,1-3.157.3l-.1.011-.022-.277c2.747-.333,1.828-.144,2.769-.41.011.1.045.144.1.144a.646.646,0,0,1,.376-.188l.188-.011a10.06,10.06,0,0,0,3.191-.421l.011.122.31-.155.288-.022c-.022-.277.4-.321.543-.333l-.022-.3c-3.346.676-4.221.488-5.152.754l-.011-.122a4.055,4.055,0,0,1-1.13.1.586.586,0,0,0-.277.177c-.011-.1-.044-.144-.111-.144a.223.223,0,0,0-.055.011l-2.836.465c-.011-.077-.044-.122-.111-.111a14.469,14.469,0,0,1-3.047.543.926.926,0,0,0-.365.155c-.011-.077-.056-.122-.155-.111l-1.208.1-.809.2c-.011-.077-.055-.122-.155-.111a6.433,6.433,0,0,1-1.175.221h-.022c-.2.022.1-.055-.055-.122l-.244.144c-.354.033-.166-.022-1.385-.011-2.138.266-1.905.3-2.138.31l-.8-.055a.11.11,0,0,1-.122.133c-.908-.122-1.373-.266-1.385-.432q.183-1.3.631-1.329l.155-.011-.133.288.155-.011c.288-.155.421-.3.41-.432l-.022-.3-.288.022-.022-.277a1,1,0,0,1,.088-.554l.654-1.053.022.277.31-.022-.022-.277-.177-.255a1.131,1.131,0,0,1,.554-.321l-.011-.144-.421.033-.033-.421a11.853,11.853,0,0,0,1.218-3.057l.3.122c.188-.011.277-.122.266-.321l-.288.022-.011-.122a1.053,1.053,0,0,1,.111-.587,1.854,1.854,0,0,0,.62-1.451c.089-.011.133.033.144.133.388-.221.687-.809.909-1.784A55.731,55.731,0,0,0,130.159,14C132.6,7.445,132.5,6.747,132.84,5.2l-.288.022a1,1,0,0,1-.111.565,1.139,1.139,0,0,0-.465-.111l-.011-.122a3.369,3.369,0,0,1,.72-2.038l.133-.011.244.953.288-.022a8.684,8.684,0,0,1,.221-1.141c-.011-.144-.122-.233-.343-.244l-.277.177c-.022-.2-.011-.72.022-1.551l-.144.011a1.08,1.08,0,0,1-.376-.609l-1.584.155a1.455,1.455,0,0,0-.177-.488c-.011-.144.344-.288,1.075-.432l.321.122.3-.177c.011.1.066.144.177.133l.3-.177c.011.1.066.144.177.133l.144-.011-.022-.321c-.221.022-.809.022-1.739-.011l-.3.2-.011-.177q-11.15.914-12.662,1.052c-.133.011-.654,0-1.573-.022.011.122-.1.188-.321.211l-.321-.144-1.085.277a7.21,7.21,0,0,1-1.285-.056,1.1,1.1,0,0,1-.609.233c-.133.011,1.584-.089,3.18-.2a1.455,1.455,0,0,1-.775.244,1.065,1.065,0,0,1-.631-.111,18.007,18.007,0,0,1-2.349.554l-.321-.122-5.185.8a1.3,1.3,0,0,0-.7-.111,8.6,8.6,0,0,0-1.385.3l-2.5,1.041.188.31a1.385,1.385,0,0,0,.51-.2l.886.078-.111.831a2.232,2.232,0,0,0-1.429,1.6c-1.23.543-1.839.931-1.839,1.163l.011.144.188-.011.333-.177.388.465.055.642q.033.3-6.193,13.061c-3.589,8.2-5.473,12.685-5.65,13.493-1.23.343-1.939.842-2.149,1.507.022.21.388.354,1.1.41l.033.321-.321.532.055.643q.05.5,2.692.764c-.011-.111.044-.177.166-.188a9.7,9.7,0,0,1-.333,2.326l.188-.011a4.13,4.13,0,0,0,1.041-2.06l.155-.011c.177-.011.366.188.587.62q-.332.133-2.326,5.3l.188.31.188-.011q2.443-6.181,3.069-6.835,3.208-.283,11.089-1.13l.333-.2a.16.16,0,0,0,.2.155l.344-.033.332-.2a.16.16,0,0,0,.2.155l3.977-.343c1.052-.089,1.551-.41,1.506-.953-.011-.144.609-.31,1.861-.487a1.521,1.521,0,0,1,.543.1c-.011-.1.621-.2,1.883-.31.033-.665.243-1.019.62-1.053l-.033-.321a5.5,5.5,0,0,0-1.219.277,7.448,7.448,0,0,1-1.584-.188,1.461,1.461,0,0,1-.51.2l-2.769.088-.333.177q-.017-.149-.2-.133l-.155.011-.354.178c-.011-.1-.3-.178-.875-.255l-.354.21-.687.055-.011-.177q5.351-.581,5.284-1.451a.309.309,0,0,1,.376.321l1.042-.266-.033-.321-8.542.233c.011.111-.044.177-.166.188l-1.042-.088a1.255,1.255,0,0,0-.664.233l-.388-.144a11.836,11.836,0,0,0-2.4.388,15.132,15.132,0,0,0-2.437.033l-1.916.166-.886-.1c-.045-.565,1.052-3.346,3.312-8.331a7.26,7.26,0,0,1,1.828-3.135,1.29,1.29,0,0,1,.543.133l1.363-.465.7.111a15.989,15.989,0,0,0,4.1-1.008,1.921,1.921,0,0,1,.886.078l1.041-.244,3.1-.266a20.571,20.571,0,0,0,4.3-.875l-.033-.321c-.576.055-.875-.045-.9-.277-.033-.432-.454-.609-1.263-.543l-.033-.321.853-.244,2.238-.188-.033-.321c-.089.011-.543,0-1.385-.033l-.033-.343.864-.078c.233-.022.333-.133.31-.354-1.163.033-1.75-.022-1.761-.177q-12.164.6-12.2.221a1.394,1.394,0,0,0-.51.222l-.21-.333q3.223-6.846,3.778-6.9a2.01,2.01,0,0,1-.266.853l.011.144.344-.033c.853-2.038,1.573-3.091,2.171-3.135,2.548-.222-.354-.388,5.1-1.241a1.062,1.062,0,0,0,.487.133q3.207-.648,8.94-1.351l-.022-.321-2.038.188-.022-.321a1.1,1.1,0,0,0,.609-.233l.011.177a1.2,1.2,0,0,0,.465-.221,1.458,1.458,0,0,1,.809.1,11.793,11.793,0,0,1,1.706-.343l1.274-.122c.31-.2.454-.376.443-.543l-.011-.144a4.022,4.022,0,0,1-1.119-.067.325.325,0,0,1,.288-.354l2.371-.221,1.086-.277c.011.122.066.166.155.166a1.194,1.194,0,0,0,.465-.221c.056.011.122.011.177.022a8.853,8.853,0,0,0-.476,1.3l-.31.022a1.358,1.358,0,0,0-.177-.565l-.155.011c-2.88,8.021-4.165,11.754-6.824,17.914-.488,1.573-.9,2.448-1.252,2.637a.245.245,0,0,0,.31.244,3.863,3.863,0,0,1-.543,2.293c-1.23,3.545-2.05,5.484-2.471,5.838l.277,1.673a.259.259,0,0,1-.266.3l-.288.022c-.044-.466-.211-.687-.509-.654l-.155.011a6.587,6.587,0,0,0-.853,2.05l.288-.022a.959.959,0,0,0,.532-.9l.576-.055.332.122a1.776,1.776,0,0,0-.365,1.008l.155.266-.377.886.011.144a1.8,1.8,0,0,1,1.086.31,1.94,1.94,0,0,0,.875-.354c.333-.033,1.573-.044,3.711-.044l1.075-.366a24.855,24.855,0,0,0,2.648-.078l.465-.044.244-.166.011.144a7.267,7.267,0,0,1,2.193.088l.011.144-.654.055.022.277a.94.94,0,0,0,.521-.2c.166-.011.266.078.277.277a3.9,3.9,0,0,0-.9.2l-.288-.1c-.454.122-.354.155-.665.177l-.454-.088a.107.107,0,0,1-.111.133.239.239,0,0,0,.277.255l.465-.044,2.426-.211.919-.2c.011.077.044.122.122.111l.443-.166.831-.067c.642-.055.631-.1,2.027-.321-.011-.088.022-.122.088-.133l.011.122a20.453,20.453,0,0,0,2.781-.532l.033.067c.565-.133.244-.1.4-.21.011.1.044.144.1.144l.4-.033-.022-.3L138.589,36l-.011-.022c-.033.011-.055.011-.089.022h-.111v.022a4.265,4.265,0,0,1-.908.067l-2.027.111-.011-.144,1.13-.155.41-.033.233-.166.011.144c1.6-.133,2.16.266,9.538-1.307.4-.033.366-.366.621-1.053a.688.688,0,0,1-.388-.088,11.537,11.537,0,0,1-2.1.31c-.1.011-.177-.078-.211-.255l-.011-.122,1.13.033a2.854,2.854,0,0,0,1.23-.4c0,.1-.233.155-.1.144h0Zm-54.55.875-.521.044a9.823,9.823,0,0,1,.831-2.371l.343-.033A9.065,9.065,0,0,1,92.371,33.988ZM93,31.462l-.011-.144c-.011-.177.1-.3.343-.354l.011.144C93.357,31.318,93.246,31.44,93,31.462Zm6.924,5.351.011.144-.864.078-.011-.144Zm-1.041-.088c.011.177-.255.377-.831.576l-1.064-.077-.343.033-.033-.321Zm7-32.227-.521.045-.011-.177c-.011-.177.089-.3.31-.354L105.853,4l.354.144a.306.306,0,0,1-.321.354Zm7.921-1.551.166-.011.022.321-.476.044a.325.325,0,0,1,.288-.354Zm-1.994.7-.786-.089-.011-.144a8.5,8.5,0,0,0,2.005-.377c.011.122.122.166.321.144l.022.321-.31.033a1.064,1.064,0,0,1-.632-.111,1.354,1.354,0,0,1-.609.222Zm.986,2.869-.011-.144,1.274-.122.011.144Zm1.363-1.108-.011-.177.621-.055.011.177Zm.144-2.171-.166.011.144-.343,1.418-.133.011.177a8.559,8.559,0,0,0-1.407.288Zm.72,3.057L115,5.971l.621-.055q.316-.033.332.3l-.93.077Zm3.755-5.118-.8.222-.144.011a8.146,8.146,0,0,1-1.44-.033c1.03-.067,2.017-.144,2.382-.2Zm-.853,3.545.011.144-1.1.1-.011-.144,1.1-.1Zm1.795.853c-.011-.133-.222-.221-.654-.266l-1.1.31-.842.033c-.188-.133-.288-.221-.3-.288l.975.055L120,5.063l1.119.044.011.177a6.281,6.281,0,0,0-1.407.288Zm11.289-2.914c.133.011.221.011.255.011a4.242,4.242,0,0,1,1.318-.886,7.793,7.793,0,0,1-1.872,3.889l-.62-.377A20.2,20.2,0,0,0,131.012,2.659Zm-1.905,3.268.155-.011c-.21.4-.4.609-.554.62l-.033-.421a.944.944,0,0,0,.432-.188Zm-1.23,2.936a4.162,4.162,0,0,1,.853-2.049l.011.144c-.155,1.108-.4,1.7-.72,1.739l.055.7a1.573,1.573,0,0,0-.377.886l-.155.011-.088-.964C127.633,9.306,127.777,9.151,127.877,8.863Zm-.476,1.6a4.055,4.055,0,0,1-.321,1.152l-.155.011-.033-.421c.211-.488.388-.731.509-.742h0ZM118.46,36.4l-.011-.122.288-.022.033.421c-.155.011-.266-.078-.31-.277Zm12.773.333c-.011-.1-.055-.144-.155-.133l-.72.067-.011-.144h.066l1.706-.144.011.144A1.5,1.5,0,0,0,131.233,36.736Zm-.853-.354c.066.033.033.067,0,.088C130.347,36.458,130.3,36.425,130.381,36.381Zm.088-1.994-.953.078-.011-.144.864-.077.753-.188c.011.088.055.122.155.111.9-.155.809-.2,1.241-.233.144-.011.233.078.244.255ZM133.8,34.1a3.793,3.793,0,0,0-.942-.067l-.011-.122.853-.077.011.122C133.626,33.966,133.948,33.988,133.8,34.1Zm.066-.155-.011-.122.465-.045.011.122Zm1.03-.089-.011-.122a.8.8,0,0,0,.332-.177.33.33,0,0,1,.377.31l-.7-.011Zm1.318-.166-.011-.144.565-.044.011.144Zm.786-.067c-.011-.166.055-.266.2-.288l.188.244a.1.1,0,0,1,.088-.133l.144.266-.621-.089Zm10.9-1.285.011-.011v-.011a.039.039,0,0,0-.011.022Zm.2-.144c.088-.055.133-.111-.078-.144-.1.111.111.144-.111.155l.011.1c.022-.022.078-.055.122-.088l-.122.1v.011l-.233.3.465-.166h.055l-.022-.277Zm.809.632-.088.011.022.277.654-.055C149.491,32.88,149.058,32.825,148.914,32.825Z" fill="#f9dc3e"/>
    </g>
  </g>
</svg>
