<svg width="427" height="144" viewBox="0 0 427 144" fill="none" xmlns="http://www.w3.org/2000/svg">
<path d="M264.06 29C264.06 26.2386 266.298 24 269.06 24H415.437C418.194 24 420.43 26.231 420.437 28.9876L420.473 43.6V63.2V79.0393C420.473 79.674 420.594 80.3028 420.829 80.8923L424.507 90.1087C425.251 91.9733 423.877 94 421.87 94V94H269.06C266.298 94 264.06 91.7614 264.06 89V58.3V29Z" fill="#20A6CA"/>
<path d="M278.025 77.8436V39.4H286.539V54.0576H302.618V39.4H311.16V77.8436H302.618V60.6822H286.539V77.8436H278.025Z" fill="#FE2C55"/>
<path d="M323.822 49.4152V66.5505C323.822 68.1675 324.026 69.3846 324.436 70.2019C325.161 71.645 326.585 72.3666 328.707 72.3666C331.424 72.3666 333.285 71.3407 334.289 69.289C334.81 68.1762 335.071 66.707 335.071 64.8813V49.4152H343.138V77.8436H335.406V73.8271C335.332 73.9141 335.145 74.1749 334.848 74.6096C334.55 75.0443 334.196 75.4268 333.787 75.7571C332.54 76.8004 331.33 77.5133 330.158 77.8958C329.004 78.2783 327.646 78.4696 326.083 78.4696C321.579 78.4696 318.546 76.9569 316.982 73.9315C316.108 72.2623 315.671 69.8019 315.671 66.5505V49.4152H323.822Z" fill="#FE2C55"/>
<path d="M364.426 48.7892C368.427 48.7892 371.553 50.1367 373.805 52.8318C376.075 55.5268 377.211 59.0043 377.211 63.2643C377.211 67.6807 376.094 71.3407 373.861 74.2444C371.628 77.1481 368.511 78.6 364.51 78.6C361.997 78.6 359.978 78.1305 358.452 77.1916C357.54 76.6352 356.554 75.6615 355.493 74.2705V77.8436H347.705V39.4522H355.633V53.1187C356.638 51.7972 357.745 50.7888 358.955 50.0933C360.388 49.2239 362.211 48.7892 364.426 48.7892ZM362.388 72.4709C364.435 72.4709 366.026 71.6972 367.161 70.1497C368.297 68.6022 368.864 66.5679 368.864 64.0467C368.864 62.0298 368.585 60.3606 368.027 59.0391C366.966 56.5353 365.012 55.2834 362.165 55.2834C359.28 55.2834 357.298 56.5092 356.219 58.9609C355.661 60.2649 355.382 61.9515 355.382 64.0206C355.382 66.4549 355.958 68.4718 357.112 70.0714C358.266 71.6711 360.025 72.4709 362.388 72.4709Z" fill="#FE2C55"/>
<path d="M396.516 48.7892C400.517 48.7892 403.644 50.1367 405.895 52.8318C408.166 55.5268 409.301 59.0043 409.301 63.2643C409.301 67.6807 408.184 71.3407 405.951 74.2444C403.718 77.1481 400.601 78.6 396.6 78.6C394.088 78.6 392.069 78.1305 390.543 77.1916C389.631 76.6352 388.644 75.6615 387.584 74.2705V77.8436H379.795V39.4522H387.723V53.1187C388.728 51.7972 389.835 50.7888 391.045 50.0933C392.478 49.2239 394.302 48.7892 396.516 48.7892ZM394.478 72.4709C396.526 72.4709 398.117 71.6972 399.252 70.1497C400.387 68.6022 400.955 66.5679 400.955 64.0467C400.955 62.0298 400.675 60.3606 400.117 59.0391C399.056 56.5353 397.102 55.2834 394.255 55.2834C391.371 55.2834 389.389 56.5092 388.309 58.9609C387.751 60.2649 387.472 61.9515 387.472 64.0206C387.472 66.4549 388.049 68.4718 389.203 70.0714C390.356 71.6711 392.115 72.4709 394.478 72.4709Z" fill="#FE2C55"/>
<path d="M280.818 75.0436V36.6H289.332V51.2576H305.411V36.6H313.953V75.0436H305.411V57.8822H289.332V75.0436H280.818Z" fill="#0A090D"/>
<path d="M326.614 46.6152V63.7505C326.614 65.3675 326.819 66.5847 327.229 67.4019C327.954 68.845 329.378 69.5666 331.5 69.5666C334.217 69.5666 336.077 68.5407 337.082 66.489C337.603 65.3762 337.864 63.907 337.864 62.0813V46.6152H345.931V75.0436H338.199V71.0271C338.125 71.1141 337.938 71.3749 337.641 71.8096C337.343 72.2443 336.989 72.6268 336.58 72.9572C335.333 74.0004 334.123 74.7133 332.951 75.0958C331.797 75.4783 330.439 75.6696 328.876 75.6696C324.372 75.6696 321.339 74.1569 319.775 71.1315C318.901 69.4623 318.463 67.002 318.463 63.7505V46.6152H326.614Z" fill="#0A090D"/>
<path d="M367.219 45.9892C371.22 45.9892 374.346 47.3368 376.598 50.0318C378.868 52.7269 380.004 56.2044 380.004 60.4643C380.004 64.8807 378.887 68.5407 376.654 71.4444C374.421 74.3482 371.304 75.8 367.303 75.8C364.79 75.8 362.771 75.3305 361.245 74.3916C360.333 73.8352 359.347 72.8615 358.286 71.4705V75.0436H350.498V36.6522H358.426V50.3187C359.431 48.9973 360.538 47.9888 361.748 47.2933C363.181 46.4239 365.004 45.9892 367.219 45.9892ZM365.181 69.6709C367.228 69.6709 368.819 68.8972 369.954 67.3497C371.09 65.8022 371.657 63.7679 371.657 61.2467C371.657 59.2298 371.378 57.5606 370.82 56.2391C369.759 53.7353 367.805 52.4834 364.958 52.4834C362.073 52.4834 360.091 53.7093 359.012 56.1609C358.454 57.4649 358.175 59.1515 358.175 61.2206C358.175 63.6549 358.751 65.6718 359.905 67.2715C361.059 68.8711 362.818 69.6709 365.181 69.6709Z" fill="#0A090D"/>
<path d="M399.309 45.9892C403.31 45.9892 406.437 47.3368 408.688 50.0318C410.959 52.7269 412.094 56.2044 412.094 60.4643C412.094 64.8807 410.977 68.5407 408.744 71.4444C406.511 74.3482 403.394 75.8 399.393 75.8C396.881 75.8 394.861 75.3305 393.336 74.3916C392.424 73.8352 391.437 72.8615 390.377 71.4705V75.0436H382.588V36.6522H390.516V50.3187C391.521 48.9973 392.628 47.9888 393.838 47.2933C395.271 46.4239 397.095 45.9892 399.309 45.9892ZM397.271 69.6709C399.318 69.6709 400.91 68.8972 402.045 67.3497C403.18 65.8022 403.748 63.7679 403.748 61.2467C403.748 59.2298 403.468 57.5606 402.91 56.2391C401.849 53.7353 399.895 52.4834 397.048 52.4834C394.164 52.4834 392.182 53.7093 391.102 56.1609C390.544 57.4649 390.265 59.1515 390.265 61.2206C390.265 63.6549 390.842 65.6718 391.996 67.2715C393.149 68.8711 394.908 69.6709 397.271 69.6709Z" fill="#0A090D"/>
<g filter="url(#filter0_d)">
<path d="M33.9206 62.5521H14.2468V82.8188H4V33.2249H36.3798V41.5019H14.2468V54.3091H33.9206V62.5521Z" fill="white"/>
<path d="M61.5527 55.1947C60.2092 55.0131 59.0251 54.9222 58.0005 54.9222C54.2661 54.9222 51.8182 56.1825 50.6569 58.7031V82.8188H40.7859V45.964H50.1104L50.3837 50.358C52.3647 46.9745 55.1086 45.2828 58.6153 45.2828C59.7082 45.2828 60.7329 45.4304 61.6893 45.7256L61.5527 55.1947Z" fill="white"/>
<path d="M76.752 82.8188H66.8468V45.964H76.752V82.8188ZM66.2662 36.4267C66.2662 34.9507 66.7557 33.7359 67.7349 32.7821C68.7368 31.8284 70.0916 31.3515 71.7994 31.3515C73.4845 31.3515 74.8279 31.8284 75.8298 32.7821C76.8317 33.7359 77.3327 34.9507 77.3327 36.4267C77.3327 37.9254 76.8203 39.1517 75.7957 40.1054C74.7938 41.0591 73.4617 41.536 71.7994 41.536C70.1372 41.536 68.7937 41.0591 67.769 40.1054C66.7671 39.1517 66.2662 37.9254 66.2662 36.4267Z" fill="white"/>
<path d="M101.925 83.5C96.5055 83.5 92.088 81.8423 88.6724 78.527C85.2796 75.2117 83.5832 70.795 83.5832 65.277V64.3233C83.5832 60.6219 84.3005 57.3179 85.735 54.4113C87.1696 51.482 89.1962 49.2339 91.8148 47.6671C94.4562 46.0775 97.4619 45.2828 100.832 45.2828C105.887 45.2828 109.86 46.8723 112.752 50.0514C115.667 53.2305 117.124 57.738 117.124 63.5739V67.5932H93.5909C93.9097 70.0002 94.866 71.9304 96.46 73.3837C98.0767 74.837 100.115 75.5636 102.574 75.5636C106.377 75.5636 109.348 74.1898 111.489 71.4422L116.339 76.858C114.859 78.9471 112.855 80.582 110.327 81.7629C107.8 82.921 104.999 83.5 101.925 83.5ZM100.798 53.2532C98.8395 53.2532 97.2456 53.9117 96.016 55.2288C94.8091 56.5458 94.0349 58.4306 93.6934 60.883H107.424V60.0996C107.378 57.9197 106.786 56.2393 105.648 55.0585C104.509 53.855 102.893 53.2532 100.798 53.2532Z" fill="white"/>
<path d="M131.845 45.964L132.153 50.2217C134.794 46.9291 138.335 45.2828 142.775 45.2828C146.692 45.2828 149.607 46.4295 151.519 48.723C153.432 51.0165 154.411 54.4454 154.457 59.0096V82.8188H144.586V59.2481C144.586 57.159 144.13 55.6489 143.219 54.7179C142.309 53.7641 140.794 53.2873 138.677 53.2873C135.899 53.2873 133.815 54.4681 132.426 56.8297V82.8188H122.555V45.964H131.845Z" fill="white"/>
<path d="M160.434 64.1189C160.434 58.3738 161.72 53.7982 164.294 50.392C166.889 46.9859 170.43 45.2828 174.916 45.2828C178.514 45.2828 181.485 46.6225 183.831 49.3021V30.5H193.736V82.8188H184.821L184.343 78.9017C181.884 81.9672 178.719 83.5 174.848 83.5C170.499 83.5 167.003 81.7969 164.362 78.3907C161.743 74.9619 160.434 70.2046 160.434 64.1189ZM170.305 64.8342C170.305 68.2858 170.908 70.9312 172.115 72.7706C173.322 74.6099 175.075 75.5296 177.375 75.5296C180.427 75.5296 182.578 74.2466 183.831 71.6806V57.1362C182.601 54.5703 180.472 53.2873 177.444 53.2873C172.685 53.2873 170.305 57.1362 170.305 64.8342Z" fill="white"/>
<path d="M221.402 72.6343C221.402 71.4308 220.799 70.4884 219.592 69.8072C218.408 69.1033 216.495 68.4788 213.854 67.9338C205.064 66.0945 200.67 62.3704 200.67 56.7616C200.67 53.4916 202.024 50.7667 204.734 48.5868C207.467 46.3841 211.03 45.2828 215.425 45.2828C220.116 45.2828 223.861 46.3841 226.662 48.5868C229.486 50.7894 230.898 53.6506 230.898 57.1703H221.026C221.026 55.7624 220.571 54.6043 219.66 53.696C218.749 52.765 217.326 52.2995 215.391 52.2995C213.729 52.2995 212.442 52.6742 211.531 53.4235C210.62 54.1729 210.165 55.1266 210.165 56.2847C210.165 57.3747 210.677 58.2603 211.702 58.9415C212.749 59.6 214.503 60.1791 216.962 60.6787C219.421 61.1555 221.493 61.7005 223.178 62.3136C228.393 64.2211 231 67.5251 231 72.2256C231 75.5863 229.554 78.3113 226.662 80.4004C223.77 82.4668 220.036 83.5 215.459 83.5C212.362 83.5 209.607 82.955 207.193 81.865C204.802 80.7524 202.924 79.2423 201.558 77.3348C200.191 75.4047 199.508 73.3269 199.508 71.1015H208.867C208.958 72.85 209.607 74.1898 210.814 75.1208C212.021 76.0518 213.637 76.5174 215.664 76.5174C217.554 76.5174 218.977 76.1654 219.933 75.4614C220.913 74.7348 221.402 73.7924 221.402 72.6343Z" fill="white"/>
</g>
<path d="M175.714 6.6515C176.254 7.19362 175.648 8.16097 175.106 8.21564C174.565 8.2703 174.075 7.27197 174.39 7.18461C174.717 7.09388 174.671 6.37559 175.119 6.22902C175.564 6.08367 175.159 6.09491 175.714 6.6515V6.6515Z" fill="#D20000"/>
<path d="M172.347 3.87643C172.887 4.41855 172.281 5.3859 171.739 5.44057C171.198 5.49523 170.708 4.4969 171.023 4.40954C171.35 4.31881 171.304 3.60052 171.752 3.45395C172.197 3.3086 171.792 3.31984 172.347 3.87643V3.87643Z" fill="#D20000"/>
<path d="M76.6644 119.27C77.2048 119.812 76.5984 120.779 76.0569 120.834C75.5153 120.888 75.0255 119.89 75.3405 119.803C75.6677 119.712 75.6214 118.994 76.0696 118.847C76.5141 118.702 76.1096 118.713 76.6644 119.27V119.27Z" fill="#D20000"/>
<path d="M72.2985 117.087C72.8388 117.629 72.2325 118.596 71.6909 118.651C71.1493 118.705 70.6596 117.707 70.9746 117.62C71.3017 117.529 71.2554 116.811 71.7036 116.664C72.1481 116.519 71.7437 116.53 72.2985 117.087V117.087Z" fill="#D20000"/>
<path d="M86.9402 35.8093C86.8651 36.571 85.7329 36.7177 85.3465 36.3343C84.9601 35.951 85.4195 34.9383 85.6872 35.126C85.9652 35.3209 86.4903 34.8286 86.8883 35.0815C87.283 35.3323 87.0173 35.0272 86.9402 35.8093V35.8093Z" fill="#D20000"/>
<path d="M105.574 56.8669C105.499 57.6286 104.366 57.7753 103.98 57.3919C103.594 57.0086 104.053 55.9959 104.321 56.1836C104.599 56.3785 105.124 55.8863 105.522 56.1391C105.917 56.3899 105.651 56.0848 105.574 56.8669V56.8669Z" fill="#D20000"/>
<path d="M92.928 43.4668C92.8529 44.2285 91.7206 44.3752 91.3342 43.9918C90.9478 43.6085 91.4073 42.5958 91.675 42.7835C91.9529 42.9784 92.4781 42.4861 92.8761 42.739C93.2708 42.9898 93.0051 42.6847 92.928 43.4668V43.4668Z" fill="#D20000"/>
<path d="M96.783 47.2481C96.7079 48.0099 95.5756 48.1566 95.1892 47.7732C94.8028 47.3898 95.2623 46.3772 95.53 46.5649C95.8079 46.7598 96.3331 46.2675 96.7311 46.5204C97.1258 46.7712 96.8601 46.4661 96.783 47.2481Z" fill="#D20000"/>
<path d="M123.907 75.7224C123.969 76.4853 122.881 76.8314 122.432 76.5231C121.984 76.2147 122.255 75.1364 122.552 75.2734C122.86 75.4156 123.289 74.8376 123.726 75.0155C124.159 75.1919 123.843 74.9391 123.907 75.7224V75.7224Z" fill="#D20000"/>
<path d="M145.198 93.2571C145.259 94.02 144.171 94.3661 143.723 94.0578C143.274 93.7495 143.546 92.6711 143.843 92.8081C144.151 92.9503 144.58 92.3724 145.017 92.5502C145.45 92.7267 145.134 92.4738 145.198 93.2571V93.2571Z" fill="#D20000"/>
<path d="M132.039 82.4059C132.101 83.1689 131.013 83.515 130.565 83.2066C130.116 82.8983 130.388 81.8199 130.685 81.9569C130.993 82.0991 131.422 81.5212 131.858 81.699C132.292 81.8755 131.976 81.6226 132.039 82.4059V82.4059Z" fill="#D20000"/>
<path d="M136.807 86.2499C136.869 87.0129 135.781 87.359 135.332 87.0506C134.884 86.7423 135.156 85.664 135.452 85.8009C135.761 85.9432 136.19 85.3652 136.626 85.5431C137.059 85.7195 136.744 85.4666 136.807 86.2499V86.2499Z" fill="#D20000"/>
<path d="M123.525 60.3483C124.29 60.3725 124.511 61.4925 124.155 61.9035C123.798 62.3146 122.757 61.9236 122.926 61.644C123.102 61.3537 122.576 60.8625 122.802 60.4485C123.026 60.038 122.739 60.3234 123.525 60.3483V60.3483Z" fill="#D20000"/>
<path d="M143.819 42.0062C144.261 42.6314 143.5 43.4831 142.957 43.4459C142.414 43.4088 142.099 42.3424 142.424 42.3092C142.762 42.2747 142.837 41.5589 143.304 41.4897C143.766 41.4211 143.366 41.3642 143.819 42.0062V42.0062Z" fill="#D20000"/>
<path d="M133.917 51.1987C134.682 51.2229 134.903 52.3428 134.547 52.7539C134.19 53.165 133.149 52.7739 133.318 52.4944C133.494 52.204 132.968 51.7128 133.194 51.2989C133.418 50.8884 133.131 51.1738 133.917 51.1987Z" fill="#D20000"/>
<path d="M135.273 49.5783C135.738 50.1864 135.011 51.0662 134.467 51.0497C133.922 51.0331 133.567 49.9793 133.891 49.9339C134.227 49.8867 134.275 49.1685 134.739 49.0818C135.198 48.9957 134.796 48.954 135.273 49.5783V49.5783Z" fill="#D20000"/>
<path d="M158.143 102.426C158.272 103.18 157.219 103.621 156.745 103.354C156.271 103.087 156.446 101.988 156.754 102.099C157.074 102.213 157.45 101.599 157.9 101.738C158.347 101.875 158.01 101.651 158.143 102.426V102.426Z" fill="#D20000"/>
<path d="M179.909 119.254C180.038 120.009 178.985 120.45 178.511 120.183C178.037 119.915 178.212 118.817 178.519 118.927C178.839 119.042 179.215 118.428 179.666 118.566C180.113 118.704 179.776 118.48 179.909 119.254V119.254Z" fill="#D20000"/>
<path d="M167.989 108.983C168.118 109.737 167.065 110.179 166.591 109.911C166.117 109.644 166.292 108.546 166.6 108.656C166.919 108.77 167.296 108.156 167.746 108.295C168.193 108.432 167.856 108.208 167.989 108.983V108.983Z" fill="#D20000"/>
<path d="M172.529 112.048C172.658 112.802 171.605 113.243 171.131 112.976C170.657 112.708 170.832 111.61 171.139 111.72C171.459 111.835 171.835 111.221 172.286 111.36C172.733 111.497 172.396 111.273 172.529 112.048V112.048Z" fill="#D20000"/>
<path d="M115.619 52.6385C115.16 52.0265 115.894 51.1528 116.438 51.1739C116.982 51.195 117.329 52.2517 117.004 52.2945C116.668 52.3389 116.614 53.0566 116.15 53.1395C115.689 53.2217 116.091 53.2667 115.619 52.6385V52.6385Z" fill="#D20000"/>
<path d="M168.96 5.45839C169.725 5.48261 169.946 6.60256 169.59 7.01363C169.233 7.4247 168.192 7.03367 168.361 6.75411C168.537 6.46378 168.011 5.97258 168.237 5.55862C168.461 5.14809 168.174 5.43352 168.96 5.45839Z" fill="#D20000"/>
<path d="M122.362 45.5404C121.886 44.9409 122.598 44.0479 123.142 44.0544C123.686 44.061 124.061 45.1081 123.738 45.1595C123.402 45.2128 123.368 45.9318 122.906 46.027C122.448 46.1215 122.851 46.1558 122.362 45.5404Z" fill="#D20000"/>
<path d="M125.51 41.2576C125.11 40.605 125.924 39.8046 126.464 39.8769C127.003 39.9493 127.248 41.034 126.922 41.0459C126.582 41.0583 126.461 41.7678 125.991 41.8065C125.525 41.8448 125.921 41.9276 125.51 41.2576V41.2576Z" fill="#D20000"/>
<path d="M170.092 6.28111C170.858 6.30533 171.079 7.42529 170.722 7.83635C170.366 8.24742 169.325 7.85639 169.494 7.57683C169.67 7.2865 169.144 6.7953 169.37 6.38134C169.594 5.97081 169.307 6.25625 170.092 6.28111V6.28111Z" fill="#D20000"/>
<path d="M158.793 10.1694C159.558 10.1936 159.78 11.3136 159.423 11.7246C159.066 12.1357 158.025 11.7447 158.195 11.4651C158.371 11.1748 157.844 10.6836 158.07 10.2696C158.294 9.8591 158.007 10.1445 158.793 10.1694V10.1694Z" fill="#D20000"/>
<path d="M146.113 20.9769C146.829 20.7061 147.463 21.6556 147.291 22.172C147.119 22.6884 146.008 22.7262 146.057 22.403C146.108 22.0674 145.434 21.8154 145.484 21.3465C145.534 20.8815 145.378 21.255 146.113 20.9769V20.9769Z" fill="#D20000"/>
<path d="M150.428 36.9607C150.928 37.5405 150.253 38.4614 149.709 38.4767C149.165 38.492 148.749 37.4609 149.069 37.3965C149.402 37.3297 149.408 36.61 149.866 36.4962C150.32 36.3835 149.915 36.3654 150.428 36.9607V36.9607Z" fill="#D20000"/>
<path d="M172.993 16.0878C173.758 16.112 173.98 17.232 173.623 17.6431C173.267 18.0541 172.226 17.6631 172.395 17.3835C172.571 17.0932 172.045 16.602 172.271 16.188C172.495 15.7775 172.208 16.0629 172.993 16.0878V16.0878Z" fill="#D20000"/>
<path d="M157.432 29.8698C158.197 29.894 158.419 31.014 158.062 31.4251C157.706 31.8361 156.665 31.4451 156.834 31.1655C157.01 30.8752 156.484 30.384 156.71 29.9701C156.934 29.5595 156.647 29.845 157.432 29.8698V29.8698Z" fill="#D20000"/>
<path d="M161.343 26.3488C162.108 26.373 162.33 27.493 161.973 27.904C161.616 28.3151 160.575 27.9241 160.744 27.6445C160.92 27.3542 160.394 26.863 160.62 26.449C160.844 26.0385 160.557 26.3239 161.343 26.3488Z" fill="#D20000"/>
<path d="M77.8405 94.9682C78.4554 95.4241 77.9994 96.4707 77.4719 96.6052C76.9445 96.7396 76.3119 95.8251 76.6105 95.6919C76.9205 95.5536 76.7681 94.8502 77.1896 94.6387C77.6075 94.429 77.2093 94.5001 77.8405 94.9682V94.9682Z" fill="#D20000"/>
<path d="M93.9329 74.3419C93.6084 73.6487 94.5068 72.9442 95.0348 73.0764C95.5628 73.2086 95.6851 74.3138 95.3591 74.2892C95.0206 74.2637 94.8206 74.9551 94.3493 74.941C93.8819 74.9271 94.2661 75.0536 93.9329 74.3419V74.3419Z" fill="#D20000"/>
<path d="M84.1668 85.5591C84.9261 85.4625 85.3215 86.5336 85.0339 86.9957C84.7463 87.4578 83.6567 87.2356 83.78 86.9329C83.908 86.6184 83.3111 86.2162 83.4689 85.7719C83.6254 85.3312 83.3872 85.6582 84.1668 85.5591V85.5591Z" fill="#D20000"/>
<path d="M86.9129 82.027C87.6722 81.9304 88.0675 83.0015 87.7799 83.4636C87.4923 83.9257 86.4028 83.7035 86.5261 83.4008C86.6541 83.0863 86.0572 82.6841 86.215 82.2398C86.3715 81.7991 86.1333 82.1261 86.9129 82.027V82.027Z" fill="#D20000"/>
<path d="M87.6757 103.326C88.427 103.179 88.892 104.222 88.6354 104.702C88.3788 105.182 87.2769 105.032 87.3801 104.722C87.4872 104.4 86.8651 104.038 86.9933 103.584C87.1205 103.134 86.9043 103.476 87.6757 103.326V103.326Z" fill="#D20000"/>
<path d="M103.789 80.1858C104.54 80.0395 105.005 81.0823 104.748 81.5623C104.492 82.0423 103.39 81.8923 103.493 81.5821C103.6 81.2599 102.978 80.8978 103.106 80.444C103.234 79.994 103.017 80.336 103.789 80.1858Z" fill="#D20000"/>
<path d="M94.0043 93.7409C94.7556 93.5946 95.2205 94.6374 94.964 95.1174C94.7074 95.5974 93.6056 95.4474 93.7087 95.1372C93.8158 94.815 93.1937 94.4529 93.3219 93.9992C93.4491 93.5491 93.2329 93.8911 94.0043 93.7409V93.7409Z" fill="#D20000"/>
<path d="M97.6165 90.926C96.9196 91.2427 96.2255 90.3362 96.3637 89.8098C96.5019 89.2833 97.6085 89.1736 97.5801 89.4993C97.5507 89.8375 98.2398 90.0454 98.2203 90.5165C98.201 90.9838 98.332 90.601 97.6165 90.926V90.926Z" fill="#D20000"/>
<path d="M74.0444 130.515C74.7679 130.265 75.3742 131.232 75.1873 131.743C75.0004 132.255 73.8884 132.26 73.9471 131.939C74.0081 131.605 73.3414 131.333 73.4049 130.866C73.4678 130.403 73.3017 130.771 74.0444 130.515V130.515Z" fill="#D20000"/>
<path d="M86.6296 104.955C87.3531 104.705 87.9594 105.672 87.7725 106.183C87.5856 106.695 86.4736 106.7 86.5323 106.379C86.5933 106.045 85.9266 105.773 85.9901 105.306C86.053 104.843 85.8869 105.211 86.6296 104.955V104.955Z" fill="#D20000"/>
<path d="M78.9165 119.735C79.6399 119.485 80.2462 120.452 80.0594 120.963C79.8725 121.475 78.7605 121.48 78.8192 121.159C78.8801 120.825 78.2135 120.553 78.277 120.086C78.3399 119.623 78.1737 119.992 78.9165 119.735V119.735Z" fill="#D20000"/>
<path d="M81.2036 114.758C81.9271 114.508 82.5333 115.475 82.3465 115.987C82.1596 116.498 81.0476 116.504 81.1063 116.182C81.1673 115.848 80.5006 115.577 80.5641 115.109C80.627 114.646 80.4608 115.015 81.2036 114.758V114.758Z" fill="#D20000"/>
<path d="M62.7009 127.282C63.3982 126.966 64.0913 127.873 63.9525 128.4C63.8137 128.926 62.707 129.034 62.7357 128.709C62.7655 128.371 62.0766 128.162 62.0966 127.691C62.1165 127.223 61.9851 127.606 62.7009 127.282Z" fill="#D20000"/>
<path d="M74.0908 99.8169C74.7881 99.5011 75.4812 100.408 75.3424 100.935C75.2036 101.461 74.0969 101.569 74.1256 101.244C74.1554 100.906 73.4665 100.697 73.4865 100.226C73.5063 99.7585 73.375 100.141 74.0908 99.8169V99.8169Z" fill="#D20000"/>
<path d="M67.0369 116.357C67.7341 116.041 68.4272 116.948 68.2884 117.475C68.1496 118.001 67.0429 118.109 67.0716 117.784C67.1014 117.446 66.4126 117.237 66.4326 116.766C66.4524 116.298 66.321 116.681 67.0369 116.357V116.357Z" fill="#D20000"/>
<path d="M69.0022 111.227C69.6995 110.911 70.3926 111.818 70.2538 112.345C70.1149 112.871 69.0082 112.98 69.0369 112.654C69.0668 112.316 68.3779 112.107 68.3979 111.636C68.4177 111.169 68.2863 111.551 69.0022 111.227V111.227Z" fill="#D20000"/>
<path d="M175.554 11.0285C174.789 11.0584 174.489 9.95686 174.816 9.52164C175.143 9.08641 176.209 9.40299 176.059 9.69382C175.904 9.99584 176.464 10.4487 176.268 10.8776C176.073 11.3029 176.339 10.9979 175.554 11.0285Z" fill="#D20000"/>
<path d="M116.112 50.8483C115.683 50.2142 116.461 49.3783 117.003 49.4266C117.545 49.4749 117.838 50.5476 117.512 50.5741C117.174 50.6016 117.084 51.3157 116.616 51.3753C116.152 51.4343 116.552 51.4995 116.112 50.8483V50.8483Z" fill="#D20000"/>
<path d="M171.544 6.89555C170.779 6.92539 170.479 5.82387 170.806 5.38865C171.133 4.95343 172.199 5.27001 172.049 5.56084C171.894 5.86286 172.454 6.31571 172.258 6.74457C172.063 7.16988 172.329 6.86492 171.544 6.89555Z" fill="#D20000"/>
<path d="M73.9222 119.285C73.1574 119.315 72.8572 118.214 73.1841 117.778C73.5109 117.343 74.5769 117.66 74.4276 117.951C74.2726 118.253 74.8321 118.705 74.636 119.134C74.4416 119.56 74.7075 119.255 73.9222 119.285V119.285Z" fill="#D20000"/>
<path d="M72.938 123.305C73.376 123.933 72.6107 124.78 72.0679 124.74C71.5251 124.699 71.2162 123.631 71.5416 123.6C71.8796 123.567 71.9588 122.852 72.4257 122.785C72.8886 122.719 72.4884 122.66 72.938 123.305V123.305Z" fill="#D20000"/>
<path d="M122.806 61.3078C123.245 61.9348 122.481 62.7834 121.938 62.744C121.395 62.7047 121.084 61.6369 121.41 61.6051C121.748 61.572 121.826 60.8565 122.292 60.7892C122.755 60.7225 122.355 60.664 122.806 61.3078V61.3078Z" fill="#D20000"/>
<path d="M174.428 7.06117C174.883 7.67651 174.141 8.54474 173.598 8.5196C173.054 8.49446 172.715 7.43521 173.04 7.39487C173.377 7.35298 173.436 6.63564 173.901 6.55622C174.362 6.47746 173.96 6.4294 174.428 7.06117V7.06117Z" fill="#D20000"/>
<path d="M131.681 54.3143C132.08 54.9673 131.265 55.7668 130.726 55.6939C130.186 55.6209 129.942 54.5359 130.269 54.5243C130.608 54.5123 130.731 53.803 131.201 53.7649C131.667 53.727 131.271 53.6437 131.681 54.3143V54.3143Z" fill="#D20000"/>
<path d="M100.885 85.2796C100.134 85.4272 99.6676 84.3853 99.9233 83.9048C100.179 83.4243 101.281 83.5724 101.179 83.8828C101.072 84.2051 101.695 84.5661 101.567 85.0201C101.441 85.4704 101.657 85.128 100.885 85.2796V85.2796Z" fill="#D20000"/>
<path d="M85.496 109.432C84.745 109.579 84.2782 108.537 84.5339 108.057C84.7896 107.576 85.8917 107.725 85.7892 108.035C85.6826 108.357 86.3054 108.718 86.1779 109.172C86.0516 109.622 86.2671 109.28 85.496 109.432V109.432Z" fill="#D20000"/>
<path d="M95.1718 94.21C94.4207 94.3576 93.954 93.3157 94.2097 92.8352C94.4654 92.3547 95.5675 92.5028 95.465 92.8132C95.3584 93.1355 95.9812 93.4965 95.8537 93.9505C95.7274 94.4007 95.9429 94.0584 95.1718 94.21V94.21Z" fill="#D20000"/>
<path d="M104.946 80.8826C104.195 81.0303 103.729 79.9884 103.984 79.5079C104.24 79.0274 105.342 79.1755 105.24 79.4859C105.133 79.8082 105.756 80.1692 105.628 80.6232C105.502 81.0734 105.718 80.731 104.946 80.8826V80.8826Z" fill="#D20000"/>
<path d="M90.989 78.4484C90.2379 78.596 89.7711 77.5541 90.0268 77.0736C90.2825 76.5931 91.3847 76.7412 91.2821 77.0516C91.1756 77.374 91.7983 77.7349 91.6709 78.1889C91.5445 78.6392 91.7601 78.2968 90.989 78.4484V78.4484Z" fill="#D20000"/>
<path d="M69.4011 121.938C68.65 122.085 68.1832 121.043 68.4389 120.563C68.6947 120.082 69.7968 120.23 69.6942 120.541C69.5877 120.863 70.2104 121.224 70.083 121.678C69.9566 122.128 70.1722 121.786 69.4011 121.938V121.938Z" fill="#D20000"/>
<path d="M104.913 82.357C105.285 83.0262 104.437 83.791 103.901 83.6956C103.365 83.6002 103.167 82.506 103.494 82.5081C103.833 82.5102 103.985 81.8066 104.456 81.7881C104.923 81.7697 104.531 81.67 104.913 82.357Z" fill="#D20000"/>
<path d="M77.3069 43.4804C77.1846 44.236 76.0455 44.3121 75.6836 43.9055C75.3218 43.4989 75.8432 42.5167 76.0987 42.7206C76.3641 42.9324 76.9188 42.4738 77.3003 42.7508C77.6787 43.0257 77.4324 42.7046 77.3069 43.4804V43.4804Z" fill="#D20000"/>
<path d="M93.0956 65.6171C93.0568 64.8527 94.1548 64.5397 94.5938 64.8615C95.0328 65.1833 94.7286 66.2529 94.4361 66.107C94.1323 65.9555 93.686 66.5202 93.2549 66.3291C92.8273 66.1397 93.1353 66.402 93.0956 65.6171V65.6171Z" fill="#D20000"/>
<path d="M83.8938 52.7184C83.7715 53.4741 82.6324 53.5501 82.2705 53.1435C81.9087 52.7369 82.4301 51.7547 82.6856 51.9586C82.951 52.1704 83.5057 51.7118 83.8872 51.9889C84.2656 52.2637 84.0193 51.9426 83.8938 52.7184V52.7184Z" fill="#D20000"/>
<path d="M87.3257 57.4292C87.2034 58.1848 86.0643 58.2608 85.7024 57.8542C85.3406 57.4476 85.862 56.4654 86.1175 56.6694C86.3829 56.8812 86.9376 56.4225 87.3191 56.6996C87.6975 56.9744 87.4512 56.6534 87.3257 57.4292Z" fill="#D20000"/>
<path d="M115.424 84.1072C115.486 84.8702 114.398 85.2163 113.949 84.908C113.501 84.5996 113.772 83.5213 114.069 83.6582C114.377 83.8005 114.806 83.2225 115.243 83.4004C115.676 83.5768 115.36 83.3239 115.424 84.1072V84.1072Z" fill="#D20000"/>
<path d="M136.469 102.577C136.531 103.34 135.443 103.686 134.995 103.378C134.546 103.07 134.818 101.991 135.114 102.128C135.423 102.271 135.852 101.693 136.288 101.87C136.722 102.047 136.406 101.794 136.469 102.577V102.577Z" fill="#D20000"/>
<path d="M123.562 92.0338C123.624 92.7967 122.536 93.1428 122.088 92.8345C121.639 92.5261 121.911 91.4478 122.208 91.5848C122.516 91.727 122.945 91.1491 123.382 91.3269C123.815 91.5033 123.499 91.2505 123.562 92.0338V92.0338Z" fill="#D20000"/>
<path d="M127.028 95.0701C127.089 95.8331 126.001 96.1792 125.553 95.8708C125.104 95.5625 125.376 94.4842 125.673 94.6211C125.981 94.7634 126.41 94.1854 126.847 94.3633C127.28 94.5397 126.964 94.2868 127.028 95.0701V95.0701Z" fill="#D20000"/>
<path d="M89.6998 60.8027C90.3834 60.4582 91.1135 61.3359 90.9967 61.8675C90.8799 62.3991 89.7786 62.5534 89.7938 62.2268C89.8095 61.8877 89.1126 61.7078 89.113 61.2363C89.1134 60.7686 88.9981 61.1564 89.6998 60.8027V60.8027Z" fill="#D20000"/>
<path d="M72.075 37.2648C72.2021 36.51 73.3418 36.4413 73.701 36.8502C74.0602 37.2591 73.5325 38.2379 73.2783 38.0324C73.0143 37.8189 72.4567 38.274 72.0769 37.9944C71.7003 37.7172 71.9445 38.0398 72.075 37.2648V37.2648Z" fill="#D20000"/>
<path d="M81.3538 51.1156C81.4809 50.3608 82.6205 50.2921 82.9798 50.701C83.339 51.1099 82.8113 52.0887 82.5571 51.8831C82.2931 51.6697 81.7355 52.1248 81.3557 51.8452C80.9791 51.568 81.2233 51.8906 81.3538 51.1156Z" fill="#D20000"/>
<path d="M78.0811 46.7241C78.2082 45.9692 79.3479 45.9005 79.7071 46.3094C80.0663 46.7184 79.5386 47.6972 79.2844 47.4916C79.0204 47.2781 78.4628 47.7332 78.083 47.4537C77.7064 47.1765 77.9506 47.499 78.0811 46.7241V46.7241Z" fill="#D20000"/>
<path d="M104.893 55.8175C105.149 56.5391 104.186 57.1528 103.674 56.9698C103.161 56.7869 103.147 55.675 103.469 55.7312C103.803 55.7896 104.069 55.1209 104.537 55.1807C105.001 55.2401 104.631 55.0768 104.893 55.8175V55.8175Z" fill="#D20000"/>
<path d="M86.0592 34.3005C86.1181 35.0637 85.0288 35.4056 84.5814 35.0955C84.1341 34.7854 84.4099 33.7081 84.7062 33.8462C85.0139 33.9897 85.4452 33.4134 85.8812 33.593C86.3136 33.7711 85.9987 33.517 86.0592 34.3005V34.3005Z" fill="#D20000"/>
<path d="M96.0011 46.2439C95.9095 47.0038 94.7744 47.1259 94.3964 46.7343C94.0184 46.3426 94.4996 45.3402 94.7632 45.5336C95.0369 45.7345 95.5725 45.2537 95.965 45.5151C96.3542 45.7744 96.0951 45.4636 96.0011 46.2439V46.2439Z" fill="#D20000"/>
<path d="M142.459 92.3501C142.428 91.5853 143.529 91.2829 143.964 91.6089C144.4 91.9349 144.086 93.0015 143.795 92.8528C143.492 92.6984 143.041 93.2587 142.611 93.0636C142.186 92.87 142.491 93.1353 142.459 92.3501V92.3501Z" fill="#D20000"/>
<path d="M121.286 74.7599C121.254 73.9951 122.355 73.6927 122.791 74.0187C123.227 74.3447 122.913 75.4113 122.621 75.2626C122.319 75.1082 121.867 75.6686 121.438 75.4734C121.012 75.2799 121.318 75.5451 121.286 74.7599V74.7599Z" fill="#D20000"/>
<path d="M133.888 85.4677C133.857 84.7029 134.957 84.4005 135.393 84.7265C135.829 85.0525 135.515 86.1191 135.224 85.9704C134.921 85.816 134.47 86.3764 134.04 86.1812C133.615 85.9877 133.92 86.2529 133.888 85.4677V85.4677Z" fill="#D20000"/>
<path d="M128.854 81.3279C128.823 80.5631 129.924 80.2607 130.36 80.5867C130.796 80.9127 130.481 81.9793 130.19 81.8306C129.888 81.6762 129.436 82.2366 129.007 82.0414C128.581 81.8479 128.887 82.1131 128.854 81.3279V81.3279Z" fill="#D20000"/>
<path d="M147.624 112.405C147.83 113.143 146.827 113.689 146.328 113.471C145.829 113.253 145.892 112.143 146.209 112.221C146.539 112.302 146.851 111.654 147.313 111.746C147.772 111.837 147.414 111.648 147.624 112.405V112.405Z" fill="#D20000"/>
<path d="M171.423 122.714C171.628 123.452 170.625 123.998 170.126 123.78C169.628 123.562 169.69 122.452 170.007 122.53C170.337 122.611 170.649 121.963 171.111 122.055C171.57 122.146 171.212 121.957 171.423 122.714V122.714Z" fill="#D20000"/>
<path d="M158.085 117.93C158.29 118.667 157.288 119.213 156.789 118.995C156.29 118.777 156.352 117.667 156.67 117.745C156.999 117.826 157.311 117.178 157.774 117.27C158.232 117.361 157.874 117.172 158.085 117.93V117.93Z" fill="#D20000"/>
<path d="M162.912 120.517C163.117 121.255 162.115 121.801 161.616 121.583C161.117 121.365 161.18 120.255 161.497 120.333C161.827 120.414 162.138 119.765 162.601 119.857C163.06 119.949 162.702 119.76 162.912 120.517V120.517Z" fill="#D20000"/>
<path d="M59.9611 16.8179C59.7935 17.5648 58.6518 17.572 58.3152 17.1443C57.9785 16.7166 58.5583 15.7677 58.801 15.9866C59.0531 16.2141 59.6344 15.7897 59.9985 16.0893C60.3596 16.3864 60.1332 16.0511 59.9611 16.8179V16.8179Z" fill="#D20000"/>
<path d="M68.4311 31.0654C68.2635 31.8123 67.1218 31.8195 66.7851 31.3918C66.4485 30.9641 67.0282 30.0152 67.271 30.2342C67.523 30.4616 68.1044 30.0372 68.4685 30.3368C68.8296 30.6339 68.6032 30.2986 68.4311 31.0654V31.0654Z" fill="#D20000"/>
<path d="M58.6562 14.0102C58.4886 14.7571 57.3469 14.7643 57.0102 14.3366C56.6736 13.9089 57.2533 12.9599 57.4961 13.1789C57.7481 13.4063 58.3295 12.982 58.6936 13.2816C59.0547 13.5787 58.8283 13.2434 58.6562 14.0102V14.0102Z" fill="#D20000"/>
<path d="M63.3359 22.8645C63.1682 23.6114 62.0266 23.6186 61.6899 23.1908C61.3533 22.7631 61.933 21.8142 62.1757 22.0332C62.4278 22.2606 63.0092 21.8362 63.3733 22.1358C63.7344 22.433 63.508 22.0977 63.3359 22.8645V22.8645Z" fill="#D20000"/>
<path d="M59.934 8.62525C59.7664 9.37212 58.6247 9.37933 58.2881 8.95162C57.9514 8.52391 58.5312 7.575 58.7739 7.79398C59.026 8.02139 59.6073 7.597 59.9714 7.89661C60.3325 8.19374 60.1061 7.85846 59.934 8.62525V8.62525Z" fill="#D20000"/>
<path d="M77.7741 22.0701C77.6065 22.8169 76.4648 22.8242 76.1282 22.3964C75.7915 21.9687 76.3713 21.0198 76.614 21.2388C76.866 21.4662 77.4474 21.0418 77.8115 21.3414C78.1726 21.6386 77.9462 21.3033 77.7741 22.0701V22.0701Z" fill="#D20000"/>
<path d="M68.976 11.7954C68.8084 12.5422 67.6667 12.5494 67.3301 12.1217C66.9934 11.694 67.5732 10.7451 67.8159 10.9641C68.0679 11.1915 68.6493 10.7671 69.0134 11.0667C69.3745 11.3639 69.1481 11.0286 68.976 11.7954V11.7954Z" fill="#D20000"/>
<path d="M72.0705 14.7521C71.9029 15.499 70.7612 15.5062 70.4245 15.0785C70.0879 14.6508 70.6676 13.7019 70.9104 13.9209C71.1624 14.1483 71.7438 13.7239 72.1079 14.0235C72.469 14.3206 72.2426 13.9854 72.0705 14.7521V14.7521Z" fill="#D20000"/>
<path d="M172.806 14.8081C173.346 15.3502 172.74 16.3175 172.198 16.3722C171.656 16.4269 171.167 15.4285 171.482 15.3412C171.809 15.2504 171.763 14.5322 172.211 14.3856C172.655 14.2402 172.251 14.2515 172.806 14.8081V14.8081Z" fill="#D20000"/>
<path d="M177.209 9.0731C177.749 9.61522 177.143 10.5826 176.601 10.6372C176.059 10.6919 175.57 9.69357 175.885 9.60621C176.212 9.51548 176.166 8.79719 176.614 8.65062C177.058 8.50527 176.654 8.51651 177.209 9.0731V9.0731Z" fill="#D20000"/>
<path d="M66.2489 9.37231C66.7893 9.91443 66.1829 10.8818 65.6413 10.9364C65.0998 10.9911 64.61 9.99278 64.925 9.90541C65.2522 9.81469 65.2059 9.0964 65.6541 8.94983C66.0985 8.80448 65.6941 8.81571 66.2489 9.37231V9.37231Z" fill="#D20000"/>
<path d="M61.8829 9.89038C62.4233 10.4325 61.8169 11.3998 61.2754 11.4545C60.7338 11.5092 60.244 10.5108 60.559 10.4235C60.8862 10.3328 60.8399 9.61446 61.2881 9.4679C61.7326 9.32255 61.3281 9.33378 61.8829 9.89038V9.89038Z" fill="#D20000"/>
<path d="M72.1613 134.133C72.7016 134.675 72.0953 135.642 71.5537 135.697C71.0121 135.752 70.5223 134.753 70.8374 134.666C71.1645 134.575 71.1182 133.857 71.5664 133.71C72.0109 133.565 71.6065 133.576 72.1613 134.133V134.133Z" fill="#D20000"/>
<path d="M66.5372 137.759C67.0776 138.301 66.4712 139.268 65.9297 139.323C65.3881 139.378 64.8983 138.379 65.2133 138.292C65.5405 138.201 65.4942 137.483 65.9424 137.336C66.3869 137.191 65.9824 137.202 66.5372 137.759V137.759Z" fill="#D20000"/>
<path d="M181.316 123.037C181.856 123.579 181.25 124.546 180.708 124.601C180.166 124.656 179.677 123.657 179.992 123.57C180.319 123.479 180.273 122.761 180.721 122.614C181.165 122.469 180.761 122.48 181.316 123.037V123.037Z" fill="#D20000"/>
<path d="M176.95 120.854C177.49 121.396 176.884 122.363 176.342 122.418C175.8 122.473 175.311 121.474 175.626 121.387C175.953 121.296 175.907 120.578 176.355 120.431C176.799 120.286 176.395 120.297 176.95 120.854V120.854Z" fill="#D20000"/>
<path d="M165.618 111.525C166.158 112.067 165.552 113.035 165.01 113.089C164.469 113.144 163.979 112.146 164.294 112.058C164.621 111.968 164.575 111.249 165.023 111.103C165.467 110.957 165.063 110.969 165.618 111.525V111.525Z" fill="#D20000"/>
<path d="M161.252 109.342C161.792 109.884 161.186 110.852 160.644 110.906C160.103 110.961 159.613 109.963 159.928 109.875C160.255 109.785 160.209 109.066 160.657 108.92C161.101 108.774 160.697 108.786 161.252 109.342V109.342Z" fill="#D20000"/>
<path d="M172.734 116.758C173.274 117.3 172.668 118.267 172.126 118.322C171.585 118.377 171.095 117.378 171.41 117.291C171.737 117.2 171.691 116.482 172.139 116.335C172.584 116.19 172.179 116.201 172.734 116.758V116.758Z" fill="#D20000"/>
<path d="M168.368 114.575C168.908 115.117 168.302 116.084 167.76 116.139C167.219 116.194 166.729 115.195 167.044 115.108C167.371 115.017 167.325 114.299 167.773 114.152C168.218 114.007 167.813 114.018 168.368 114.575V114.575Z" fill="#D20000"/>
<path d="M75.827 124.921C76.3674 125.463 75.761 126.43 75.2195 126.485C74.6779 126.54 74.1881 125.541 74.5031 125.454C74.8303 125.363 74.784 124.645 75.2322 124.498C75.6767 124.353 75.2722 124.364 75.827 124.921V124.921Z" fill="#D20000"/>
<path d="M71.4611 122.738C72.0015 123.28 71.3951 124.247 70.8535 124.302C70.3119 124.357 69.8221 123.358 70.1372 123.271C70.4643 123.18 70.418 122.462 70.8662 122.315C71.3107 122.17 70.9063 122.181 71.4611 122.738V122.738Z" fill="#D20000"/>
<path d="M72.5765 131.434C73.1169 131.977 72.5105 132.944 71.969 132.999C71.4274 133.053 70.9376 132.055 71.2526 131.968C71.5798 131.877 71.5335 131.159 71.9817 131.012C72.4262 130.867 72.0217 130.878 72.5765 131.434V131.434Z" fill="#D20000"/>
<path d="M68.3217 128.807C68.862 129.35 68.2557 130.317 67.7141 130.372C67.1725 130.426 66.6827 129.428 66.9978 129.341C67.3249 129.25 67.2786 128.532 67.7268 128.385C68.1713 128.24 67.7669 128.251 68.3217 128.807V128.807Z" fill="#D20000"/>
<path d="M63.6534 134.497C63.0211 134.065 63.4358 133.001 63.9576 132.846C64.4794 132.691 65.1473 133.58 64.8542 133.725C64.5498 133.876 64.7296 134.573 64.3167 134.8C63.9073 135.026 64.3025 134.94 63.6534 134.497V134.497Z" fill="#D20000"/>
<path d="M67.3887 137.563C66.7565 137.132 67.1712 136.068 67.693 135.913C68.2147 135.758 68.8826 136.647 68.5895 136.792C68.2851 136.942 68.4649 137.639 68.0521 137.867C67.6427 138.093 68.0378 138.006 67.3887 137.563V137.563Z" fill="#D20000"/>
<path d="M166.211 120.264C165.579 119.832 165.994 118.769 166.516 118.614C167.037 118.459 167.705 119.348 167.412 119.493C167.108 119.643 167.288 120.34 166.875 120.568C166.465 120.794 166.861 120.707 166.211 120.264V120.264Z" fill="#D20000"/>
<path d="M170.909 121.592C170.276 121.16 170.691 120.096 171.213 119.941C171.735 119.786 172.403 120.675 172.11 120.82C171.805 120.971 171.985 121.668 171.572 121.895C171.163 122.121 171.558 122.035 170.909 121.592Z" fill="#D20000"/>
<path d="M157.839 115.45C157.207 115.018 157.622 113.955 158.144 113.8C158.665 113.645 159.333 114.534 159.04 114.679C158.736 114.829 158.916 115.526 158.503 115.754C158.093 115.98 158.489 115.893 157.839 115.45Z" fill="#D20000"/>
<path d="M162.537 116.778C161.904 116.346 162.319 115.282 162.841 115.127C163.363 114.972 164.031 115.862 163.737 116.006C163.433 116.157 163.613 116.854 163.2 117.081C162.791 117.307 163.186 117.221 162.537 116.778V116.778Z" fill="#D20000"/>
<path d="M67.8394 121.52C67.2071 121.088 67.6219 120.025 68.1436 119.87C68.6654 119.715 69.3333 120.604 69.0402 120.748C68.7358 120.899 68.9156 121.596 68.5028 121.823C68.0933 122.049 68.4885 121.963 67.8394 121.52V121.52Z" fill="#D20000"/>
<path d="M72.5367 122.847C71.9044 122.416 72.3191 121.352 72.8409 121.197C73.3627 121.042 74.0306 121.931 73.7375 122.076C73.4331 122.226 73.6129 122.923 73.2 123.151C72.7906 123.377 73.1858 123.29 72.5367 122.847V122.847Z" fill="#D20000"/>
<path d="M154.412 113.226C153.78 112.795 154.195 111.731 154.716 111.576C155.238 111.421 155.906 112.31 155.613 112.455C155.309 112.605 155.488 113.302 155.076 113.53C154.666 113.756 155.061 113.669 154.412 113.226V113.226Z" fill="#D20000"/>
<path d="M159.188 114.685C158.556 114.253 158.97 113.189 159.492 113.034C160.014 112.879 160.682 113.769 160.389 113.913C160.084 114.064 160.264 114.761 159.851 114.988C159.442 115.214 159.837 115.128 159.188 114.685V114.685Z" fill="#D20000"/>
<path d="M169.142 117.752C168.509 117.321 168.924 116.257 169.446 116.102C169.968 115.947 170.636 116.836 170.342 116.981C170.038 117.131 170.218 117.828 169.805 118.056C169.396 118.282 169.791 118.195 169.142 117.752Z" fill="#D20000"/>
<path d="M173.839 119.08C173.207 118.649 173.621 117.585 174.143 117.43C174.665 117.275 175.333 118.164 175.04 118.309C174.735 118.459 174.915 119.156 174.502 119.384C174.093 119.61 174.488 119.523 173.839 119.08Z" fill="#D20000"/>
<path d="M64.6998 127.38C64.0675 126.949 64.4822 125.885 65.004 125.73C65.5258 125.575 66.1937 126.464 65.9006 126.609C65.5962 126.759 65.776 127.456 65.3631 127.684C64.9537 127.91 65.3489 127.823 64.6998 127.38V127.38Z" fill="#D20000"/>
<path d="M69.397 128.708C68.7648 128.276 69.1795 127.213 69.7013 127.058C70.223 126.903 70.8909 127.792 70.5978 127.937C70.2934 128.087 70.4732 128.784 70.0604 129.012C69.6509 129.238 70.0461 129.151 69.397 128.708V128.708Z" fill="#D20000"/>
<path d="M118.92 89.336C118.908 88.5706 120.017 88.2963 120.444 88.6333C120.872 88.9703 120.53 90.0285 120.243 89.8725C119.945 89.7104 119.479 90.2592 119.055 90.0531C118.634 89.8488 118.933 90.1218 118.92 89.336V89.336Z" fill="#D20000"/>
<path d="M108.909 79.5624C108.897 78.797 110.005 78.5227 110.432 78.8597C110.86 79.1966 110.518 80.2549 110.231 80.0989C109.933 79.9368 109.467 80.4855 109.043 80.2795C108.622 80.0752 108.921 80.3482 108.909 79.5624V79.5624Z" fill="#D20000"/>
<path d="M137.466 105.31C137.366 104.551 138.435 104.151 138.899 104.437C139.362 104.722 139.145 105.813 138.841 105.691C138.526 105.564 138.127 106.163 137.682 106.007C137.24 105.853 137.569 106.089 137.466 105.31V105.31Z" fill="#D20000"/>
<path d="M128.888 98.2914C128.788 97.5326 129.857 97.1325 130.321 97.418C130.784 97.7035 130.567 98.7941 130.263 98.6721C129.948 98.5455 129.549 99.1442 129.104 98.9884C128.662 98.8338 128.99 99.0706 128.888 98.2914V98.2914Z" fill="#D20000"/>
<path d="M158.332 107.785C159.007 108.147 158.708 109.249 158.205 109.458C157.703 109.668 156.944 108.855 157.22 108.68C157.507 108.498 157.254 107.824 157.64 107.554C158.023 107.286 157.639 107.414 158.332 107.785V107.785Z" fill="#D20000"/>
<path d="M160.869 106.679C161.628 106.586 162.019 107.659 161.729 108.119C161.44 108.58 160.351 108.353 160.476 108.051C160.605 107.737 160.01 107.332 160.17 106.889C160.328 106.449 160.089 106.775 160.869 106.679V106.679Z" fill="#D20000"/>
<path d="M152.696 111.869C153.456 111.776 153.846 112.849 153.556 113.309C153.267 113.77 152.178 113.543 152.303 113.241C152.432 112.927 151.837 112.522 151.997 112.079C152.155 111.639 151.916 111.965 152.696 111.869V111.869Z" fill="#D20000"/>
<path d="M169.345 115.529C168.616 115.763 168.032 114.782 168.231 114.275C168.429 113.768 169.541 113.788 169.475 114.108C169.406 114.441 170.067 114.727 169.993 115.193C169.919 115.655 170.094 115.29 169.345 115.529V115.529Z" fill="#D20000"/>
<path d="M151.351 113.065C150.622 113.299 150.038 112.318 150.236 111.811C150.435 111.304 151.547 111.324 151.481 111.644C151.412 111.976 152.073 112.263 151.999 112.729C151.925 113.19 152.1 112.825 151.351 113.065V113.065Z" fill="#D20000"/>
<path d="M159.089 105.923C159.826 105.716 160.374 106.718 160.157 107.217C159.94 107.716 158.83 107.656 158.907 107.338C158.988 107.008 158.339 106.698 158.43 106.235C158.52 105.776 158.332 106.135 159.089 105.923V105.923Z" fill="#D20000"/>
<path d="M146.375 110.268C146.858 109.675 147.883 110.178 147.993 110.711C148.104 111.244 147.161 111.834 147.042 111.53C146.918 111.214 146.208 111.334 146.016 110.904C145.826 110.477 145.879 110.878 146.375 110.268V110.268Z" fill="#D20000"/>
<path d="M156.271 103.43C156.754 102.836 157.779 103.339 157.89 103.872C158 104.405 157.058 104.996 156.938 104.691C156.814 104.375 156.104 104.496 155.912 104.065C155.722 103.638 155.775 104.039 156.271 103.43Z" fill="#D20000"/>
<path d="M159.923 109.598C159.56 110.272 158.459 109.969 158.251 109.466C158.042 108.963 158.858 108.207 159.032 108.484C159.213 108.771 159.888 108.52 160.157 108.907C160.424 109.291 160.297 108.907 159.923 109.598V109.598Z" fill="#D20000"/>
<path d="M156.409 102.89C156.045 103.563 154.944 103.261 154.736 102.758C154.528 102.255 155.343 101.498 155.517 101.775C155.698 102.062 156.373 101.811 156.642 102.198C156.909 102.582 156.782 102.198 156.409 102.89V102.89Z" fill="#D20000"/>
<path d="M175.511 9.27909C175.494 10.0444 174.377 10.2771 173.962 9.92441C173.547 9.5717 173.928 8.52689 174.209 8.69357C174.501 8.86667 174.987 8.33572 175.404 8.55743C175.816 8.77731 175.528 8.49341 175.511 9.27909V9.27909Z" fill="#D20000"/>
<path d="M174.583 10.8551C174.455 11.6096 173.315 11.6764 172.956 11.2668C172.598 10.8573 173.127 9.8794 173.381 10.0854C173.645 10.2994 174.203 9.84524 174.583 10.1254C174.959 10.4033 174.715 10.0803 174.583 10.8551V10.8551Z" fill="#D20000"/>
<path d="M71.2419 114.868C70.5352 114.574 70.7252 113.448 71.2046 113.19C71.684 112.933 72.5186 113.667 72.261 113.869C71.9934 114.078 72.3111 114.724 71.9531 115.031C71.5981 115.335 71.9674 115.17 71.2419 114.868Z" fill="#D20000"/>
<path d="M74.639 118.755C74.6664 117.99 75.7873 117.773 76.1969 118.131C76.6064 118.49 76.2111 119.529 75.9322 119.358C75.6426 119.181 75.1492 119.705 74.7362 119.478C74.3266 119.252 74.6109 119.54 74.639 118.755V118.755Z" fill="#D20000"/>
<path d="M80.2166 116.905C80.3328 117.662 79.2723 118.084 78.8029 117.809C78.3335 117.533 78.5275 116.438 78.8333 116.554C79.1509 116.674 79.5376 116.067 79.9859 116.213C80.4304 116.358 80.0974 116.128 80.2166 116.905V116.905Z" fill="#D20000"/>
<path d="M73.0267 105.95C73.1428 106.706 72.0824 107.129 71.613 106.854C71.1435 106.578 71.3375 105.483 71.6434 105.599C71.961 105.718 72.3476 105.111 72.7959 105.258C73.2405 105.403 72.9074 105.173 73.0267 105.95Z" fill="#D20000"/>
<path d="M71.8055 112.397C71.9217 113.153 70.8612 113.576 70.3918 113.3C69.9224 113.025 70.1163 111.93 70.4222 112.045C70.7398 112.165 71.1265 111.558 71.5747 111.704C72.0193 111.849 71.6862 111.62 71.8055 112.397V112.397Z" fill="#D20000"/>
<path d="M71.5543 119.259C71.3093 118.533 72.281 117.934 72.7909 118.124C73.3008 118.315 73.2986 119.427 72.9775 119.366C72.6439 119.302 72.3678 119.967 71.901 119.9C71.4381 119.834 71.8058 120.003 71.5543 119.259V119.259Z" fill="#D20000"/>
<path d="M67.379 118.473C67.9249 117.936 68.888 118.549 68.9389 119.091C68.9898 119.633 67.988 120.116 67.9029 119.8C67.8144 119.472 67.0958 119.514 66.9524 119.064C66.8102 118.619 66.8186 119.023 67.379 118.473Z" fill="#D20000"/>
<path d="M67.1366 130.46C67.6825 129.924 68.6456 130.537 68.6965 131.079C68.7473 131.621 67.7456 132.104 67.6605 131.788C67.572 131.46 66.8534 131.502 66.71 131.052C66.5678 130.607 66.5762 131.011 67.1366 130.46V130.46Z" fill="#D20000"/>
<path d="M75.6352 129.813C75.1993 130.442 74.1385 130.02 73.9872 129.497C73.8358 128.974 74.7295 128.313 74.8722 128.607C75.0204 128.912 75.7186 128.737 75.9435 129.152C76.1666 129.563 76.0827 129.167 75.6352 129.813V129.813Z" fill="#D20000"/>
<path d="M69.7783 116.404C69.167 116.864 68.2923 116.131 68.3126 115.587C68.333 115.043 69.3892 114.695 69.4324 115.019C69.4772 115.356 70.1951 115.409 70.2786 115.873C70.3614 116.333 70.4059 115.931 69.7783 116.404V116.404Z" fill="#D20000"/>
<path d="M75.2659 124.243C75.7223 124.857 74.9825 125.727 74.4387 125.703C73.8949 125.678 73.5545 124.62 73.8789 124.579C74.2157 124.536 74.2737 123.819 74.7383 123.739C75.1991 123.659 74.7973 123.612 75.2659 124.243Z" fill="#D20000"/>
<path d="M73.5599 120.494C74.1242 121.011 73.5623 122.005 73.0237 122.084C72.4852 122.163 71.9507 121.188 72.2615 121.087C72.5842 120.981 72.5054 120.266 72.9465 120.099C73.384 119.934 72.9805 119.963 73.5599 120.494V120.494Z" fill="#D20000"/>
<path d="M158.877 113.774C158.658 114.507 157.519 114.435 157.213 113.985C156.907 113.535 157.551 112.628 157.778 112.864C158.014 113.108 158.623 112.726 158.966 113.05C159.305 113.372 159.103 113.021 158.877 113.774V113.774Z" fill="#D20000"/>
<path d="M75.3045 118.34C74.5436 118.256 74.4097 117.122 74.7974 116.74C75.1851 116.358 76.1925 116.829 76.0018 117.095C75.8038 117.37 76.2901 117.901 76.0328 118.296C75.7776 118.688 76.0857 118.426 75.3045 118.34V118.34Z" fill="#D20000"/>
<path d="M156.838 117.472C156.515 118.166 155.398 117.929 155.161 117.44C154.923 116.95 155.692 116.146 155.882 116.412C156.08 116.688 156.738 116.397 157.03 116.768C157.32 117.135 157.17 116.759 156.838 117.472V117.472Z" fill="#D20000"/>
<path d="M92.342 42.3212C92.2669 43.083 91.1347 43.2296 90.7483 42.8462C90.3619 42.4629 90.8214 41.4502 91.089 41.6379C91.367 41.8328 91.8922 41.3406 92.2902 41.5934C92.6849 41.8442 92.4192 41.5391 92.342 42.3212V42.3212Z" fill="#D20000"/>
<path d="M81.6222 28.323C81.4546 29.0699 80.313 29.0771 79.9763 28.6494C79.6396 28.2217 80.2194 27.2727 80.4621 27.4917C80.7142 27.7191 81.2955 27.2948 81.6597 27.5944C82.0208 27.8915 81.7943 27.5562 81.6222 28.323V28.323Z" fill="#D20000"/>
<path d="M65.0271 28.3222C65.1111 27.5614 66.245 27.4281 66.6269 27.8159C67.0087 28.2038 66.5374 29.211 66.272 29.0202C65.9963 28.822 65.4654 29.3081 65.0704 29.0506C64.6787 28.7952 64.9408 29.1034 65.0271 28.3222Z" fill="#D20000"/>
<path d="M61.0681 21.8102C61.1521 21.0494 62.286 20.916 62.6679 21.3039C63.0497 21.6918 62.5784 22.699 62.313 22.5082C62.0373 22.31 61.5064 22.7961 61.1114 22.5385C60.7197 22.2831 60.9818 22.5913 61.0681 21.8102V21.8102Z" fill="#D20000"/>
<path d="M108.49 59.3584C108.061 58.7242 108.839 57.8883 109.381 57.9366C109.923 57.9849 110.216 59.0576 109.89 59.0841C109.552 59.1116 109.462 59.8258 108.994 59.8853C108.53 59.9444 108.93 60.0095 108.49 59.3584V59.3584Z" fill="#D20000"/>
<path d="M98.7515 49.2354C99.0071 49.9569 98.0443 50.5706 97.5317 50.3876C97.019 50.2047 97.0048 49.0928 97.3269 49.149C97.6613 49.2074 97.9276 48.5387 98.3954 48.5986C98.8592 48.6579 98.4891 48.4946 98.7515 49.2354V49.2354Z" fill="#D20000"/>
<path d="M163.314 26.2961C163.205 27.0538 162.067 27.1501 161.698 26.7499C161.329 26.3498 161.833 25.3585 162.092 25.5579C162.361 25.765 162.908 25.2965 163.294 25.5668C163.677 25.8349 163.425 25.5183 163.314 26.2961V26.2961Z" fill="#D20000"/>
<path d="M161.709 8.03487C162.474 8.05909 162.696 9.17904 162.339 9.59011C161.982 10.0012 160.941 9.61015 161.111 9.33059C161.287 9.04026 160.761 8.54905 160.987 8.13509C161.21 7.72456 160.924 8.01 161.709 8.03487V8.03487Z" fill="#D20000"/>
<path d="M158.482 11.9067C158.373 12.6644 157.235 12.7606 156.866 12.3605C156.497 11.9603 157.001 10.9691 157.26 11.1684C157.529 11.3755 158.076 10.9071 158.462 11.1773C158.845 11.4454 158.593 11.1288 158.482 11.9067Z" fill="#D20000"/>
<path d="M162.808 7.30223C163.573 7.32645 163.795 8.4464 163.438 8.85747C163.081 9.26854 162.04 8.87752 162.21 8.59795C162.385 8.30762 161.859 7.81642 162.085 7.40246C162.309 6.99193 162.022 7.27736 162.808 7.30223V7.30223Z" fill="#D20000"/>
<path d="M174.659 15.4648C174.55 16.2225 173.413 16.3187 173.044 15.9186C172.675 15.5185 173.179 14.5272 173.438 14.7266C173.707 14.9336 174.253 14.4652 174.64 14.7355C175.023 15.0035 174.771 14.6869 174.659 15.4648V15.4648Z" fill="#D20000"/>
<path d="M168.858 21.2818C168.11 21.4444 167.622 20.412 167.869 19.9265C168.115 19.441 169.219 19.567 169.123 19.8794C169.023 20.2038 169.653 20.5523 169.535 21.0087C169.417 21.4614 169.626 21.1148 168.858 21.2818V21.2818Z" fill="#D20000"/>
<path d="M170.637 19.1364C169.889 19.299 169.402 18.2667 169.648 17.7811C169.894 17.2956 170.999 17.4216 170.902 17.734C170.802 18.0584 171.432 18.4069 171.314 18.8633C171.196 19.316 171.405 18.9694 170.637 19.1364V19.1364Z" fill="#D20000"/>
<path d="M175.078 13.7381C174.969 14.4957 173.831 14.592 173.462 14.1919C173.093 13.7917 173.597 12.8005 173.856 12.9998C174.125 13.2069 174.672 12.7384 175.058 13.0087C175.441 13.2768 175.19 12.9602 175.078 13.7381V13.7381Z" fill="#D20000"/>
<path d="M168.956 6.93576C168.847 7.69343 167.709 7.78968 167.34 7.38955C166.971 6.98941 167.475 5.99815 167.734 6.19753C168.003 6.40459 168.55 5.93613 168.936 6.20642C169.319 6.47447 169.067 6.15788 168.956 6.93576V6.93576Z" fill="#D20000"/>
<path d="M166.444 7.45905C166.335 8.21672 165.198 8.31297 164.829 7.91284C164.46 7.5127 164.964 6.52144 165.223 6.72082C165.492 6.92787 166.038 6.45942 166.425 6.72971C166.808 6.99776 166.556 6.68116 166.444 7.45905V7.45905Z" fill="#D20000"/>
<path d="M165.422 113.244C166.187 113.272 166.404 114.393 166.045 114.802C165.686 115.212 164.647 114.816 164.818 114.537C164.995 114.248 164.471 113.754 164.699 113.341C164.925 112.932 164.637 113.216 165.422 113.244V113.244Z" fill="#D20000"/>
<path d="M77.3982 117.735C77.1694 117.004 78.1541 116.426 78.6596 116.628C79.1652 116.83 79.1384 117.941 78.8186 117.873C78.4866 117.803 78.1958 118.461 77.7306 118.384C77.2692 118.308 77.6331 118.484 77.3982 117.735Z" fill="#D20000"/>
<path d="M75.8494 121.413C75.3444 121.988 74.3389 121.447 74.2484 120.911C74.1579 120.374 75.1215 119.819 75.2296 120.127C75.3419 120.448 76.0555 120.354 76.2315 120.791C76.406 121.225 76.368 120.822 75.8494 121.413V121.413Z" fill="#D20000"/>
<path d="M72.5457 107.097C72.6619 107.853 71.6014 108.276 71.132 108.001C70.6626 107.725 70.8566 106.63 71.1624 106.746C71.48 106.866 71.8667 106.258 72.315 106.405C72.7595 106.55 72.4265 106.32 72.5457 107.097Z" fill="#D20000"/>
<path d="M96.9575 71.1628C96.3132 70.7495 96.6975 69.6745 97.2147 69.5047C97.7318 69.3349 98.4247 70.2046 98.1359 70.3576C97.8359 70.5165 98.0355 71.2081 97.6292 71.4476C97.2264 71.6851 97.619 71.5872 96.9575 71.1628V71.1628Z" fill="#D20000"/>
<path d="M98.0303 70.7704C97.386 70.3571 97.7703 69.282 98.2874 69.1122C98.8046 68.9424 99.4975 69.8122 99.2086 69.9652C98.9086 70.1241 99.1082 70.8157 98.702 71.0551C98.2992 71.2926 98.6917 71.1947 98.0303 70.7704V70.7704Z" fill="#D20000"/>
<path d="M82.4755 89.008C91.7783 77.4285 92.7253 77.4913 98.8141 69.7493C93.5662 64.8182 87.4812 58.3451 77.9073 44.2041C68.4564 30.2448 54.6353 14.0888 60.8046 10.9272C69.2368 6.60597 77.4662 25.5723 86.3842 36.9754C95.0102 48.0052 108.42 61.704 108.42 61.704C108.42 61.704 120.208 47.9976 135.053 33.65C150.085 19.1219 165.755 1.57398 171.996 8.98442C178.38 16.5666 155.857 29.9867 144.317 40.7049C132.977 51.2374 122.274 60.4449 115.379 68.4374C121.428 75.7191 128.528 81.2442 140.704 91.0617C153.106 101.061 160.297 104.358 156.586 110.254C152.707 116.416 137.966 104.701 126.637 94.6083C115.598 84.7736 106.935 76.1034 106.935 76.1034C106.935 76.1034 101.509 83.7353 94.5748 92.8709C87.7838 101.818 81.4538 118.054 74.3091 116.548C67.2497 115.061 74.6935 98.6943 82.4755 89.008V89.008Z" fill="#D20000"/>
<defs>
<filter id="filter0_d" x="0" y="30.5" width="235" height="61" filterUnits="userSpaceOnUse" color-interpolation-filters="sRGB">
<feFlood flood-opacity="0" result="BackgroundImageFix"/>
<feColorMatrix in="SourceAlpha" type="matrix" values="0 0 0 0 0 0 0 0 0 0 0 0 0 0 0 0 0 0 127 0" result="hardAlpha"/>
<feOffset dy="4"/>
<feGaussianBlur stdDeviation="2"/>
<feColorMatrix type="matrix" values="0 0 0 0 0 0 0 0 0 0 0 0 0 0 0 0 0 0 0.25 0"/>
<feBlend mode="normal" in2="BackgroundImageFix" result="effect1_dropShadow"/>
<feBlend mode="normal" in="SourceGraphic" in2="effect1_dropShadow" result="shape"/>
</filter>
</defs>
</svg>
