<svg width="229" height="66" viewBox="0 0 229 66" fill="none" xmlns="http://www.w3.org/2000/svg">
<path d="M220.519 66H8.48148C3.81879 66 0 62.2854 0 57.75V8.25001C0 3.71457 3.81879 1.29364e-05 8.48148 1.29364e-05H220.519C225.181 1.29364e-05 229 3.71457 229 8.25001V57.75C229 62.2854 225.181 66 220.519 66Z" fill="black"/>
<path d="M220.519 1.32207C224.445 1.32207 227.641 4.43026 227.641 8.25001V57.75C227.641 61.5698 224.445 64.6779 220.519 64.6779H8.48148C4.55456 64.6779 1.35916 61.5698 1.35916 57.75V8.25001C1.35916 4.43026 4.55456 1.32207 8.48148 1.32207H220.519ZM220.519 1.29364e-05H8.48148C3.81879 1.29364e-05 0 3.71457 0 8.25001V57.75C0 62.2854 3.81879 66 8.48148 66H220.519C225.181 66 229 62.2854 229 57.75V8.25001C229 3.71457 225.181 1.29364e-05 220.519 1.29364e-05Z" fill="#A6A6A6"/>
<path d="M80.4339 16.9023C80.4339 18.2801 80.0098 19.3835 79.1744 20.2065C78.2139 21.182 76.9629 21.6729 75.4298 21.6729C73.9647 21.6729 72.7136 21.1738 71.6874 20.19C70.659 19.1917 70.1459 17.9666 70.1459 16.5001C70.1459 15.0337 70.659 13.8086 71.6874 12.8186C72.7136 11.8265 73.9647 11.3274 75.4298 11.3274C76.1592 11.3274 76.8547 11.4738 77.5184 11.7461C78.18 12.0204 78.7185 12.3916 79.1087 12.8495L78.2224 13.7199C77.5417 12.9382 76.6151 12.5525 75.4298 12.5525C74.3612 12.5525 73.4346 12.9155 72.6479 13.6477C71.8697 14.382 71.4796 15.3328 71.4796 16.5001C71.4796 17.6675 71.8697 18.6266 72.6479 19.3608C73.4346 20.0848 74.3612 20.456 75.4298 20.456C76.5642 20.456 77.5184 20.0848 78.2711 19.3526C78.7673 18.8679 79.0493 18.1996 79.1235 17.3458H75.4298V16.1536H80.3576C80.4169 16.4115 80.4339 16.661 80.4339 16.9023Z" fill="white" stroke="white" stroke-width="0.16" stroke-miterlimit="10"/>
<path d="M88.2519 12.769H83.6231V15.904H87.796V17.0961H83.6231V20.2311H88.2519V21.4459H82.3127V11.5542H88.2519V12.769Z" fill="white" stroke="white" stroke-width="0.16" stroke-miterlimit="10"/>
<path d="M93.7691 21.4459H92.4587V12.769H89.6195V11.5542H96.6104V12.769H93.7691V21.4459Z" fill="white" stroke="white" stroke-width="0.16" stroke-miterlimit="10"/>
<path d="M101.67 21.4459V11.5542H102.978V21.4459H101.67Z" fill="white" stroke="white" stroke-width="0.16" stroke-miterlimit="10"/>
<path d="M108.777 21.4459H107.477V12.769H104.628V11.5542H111.627V12.769H108.777V21.4459Z" fill="white" stroke="white" stroke-width="0.16" stroke-miterlimit="10"/>
<path d="M124.862 20.1735C123.859 21.1738 122.617 21.6729 121.135 21.6729C119.644 21.6729 118.402 21.1738 117.399 20.1735C116.398 19.1752 115.899 17.9501 115.899 16.5001C115.899 15.0502 116.398 13.8251 117.399 12.8268C118.402 11.8265 119.644 11.3274 121.135 11.3274C122.608 11.3274 123.851 11.8265 124.854 12.8351C125.863 13.8416 126.361 15.0585 126.361 16.5001C126.361 17.9501 125.863 19.1752 124.862 20.1735ZM118.368 19.3443C119.122 20.0848 120.041 20.456 121.135 20.456C122.22 20.456 123.147 20.0848 123.893 19.3443C124.646 18.6039 125.028 17.6531 125.028 16.5001C125.028 15.3472 124.646 14.3964 123.893 13.656C123.147 12.9155 122.22 12.5443 121.135 12.5443C120.041 12.5443 119.122 12.9155 118.368 13.656C117.615 14.3964 117.233 15.3472 117.233 16.5001C117.233 17.6531 117.615 18.6039 118.368 19.3443Z" fill="white" stroke="white" stroke-width="0.16" stroke-miterlimit="10"/>
<path d="M128.2 21.4459V11.5542H129.79L134.735 19.2473H134.792L134.735 17.3457V11.5542H136.043V21.4459H134.678L129.5 13.3733H129.442L129.5 15.2832V21.4459H128.2Z" fill="white" stroke="white" stroke-width="0.16" stroke-miterlimit="10"/>
<path d="M115.577 35.8918C111.593 35.8918 108.338 38.8412 108.338 42.9105C108.338 46.9468 111.593 49.9271 115.577 49.9271C119.57 49.9271 122.825 46.9468 122.825 42.9105C122.825 38.8412 119.57 35.8918 115.577 35.8918ZM115.577 47.1633C113.391 47.1633 111.51 45.4082 111.51 42.9105C111.51 40.3798 113.391 38.6555 115.577 38.6555C117.763 38.6555 119.653 40.3798 119.653 42.9105C119.653 45.4082 117.763 47.1633 115.577 47.1633ZM99.7826 35.8918C95.7899 35.8918 92.5436 38.8412 92.5436 42.9105C92.5436 46.9468 95.7899 49.9271 99.7826 49.9271C103.773 49.9271 107.022 46.9468 107.022 42.9105C107.022 38.8412 103.773 35.8918 99.7826 35.8918ZM99.7826 47.1633C97.5944 47.1633 95.7072 45.4082 95.7072 42.9105C95.7072 40.3798 97.5944 38.6555 99.7826 38.6555C101.969 38.6555 103.849 40.3798 103.849 42.9105C103.849 45.4082 101.969 47.1633 99.7826 47.1633ZM80.9876 38.043V41.0253H88.3093C88.0951 42.6918 87.5226 43.917 86.6448 44.7708C85.5761 45.8021 83.9116 46.9468 80.9876 46.9468C76.4818 46.9468 72.9535 43.4096 72.9535 39.0268C72.9535 34.644 76.4818 31.1068 80.9876 31.1068C83.4239 31.1068 85.1966 32.0328 86.5048 33.2332L88.6655 31.1315C86.8356 29.432 84.4014 28.1265 80.9876 28.1265C74.8089 28.1265 69.6161 33.0167 69.6161 39.0268C69.6161 45.0369 74.8089 49.9271 80.9876 49.9271C84.3272 49.9271 86.8356 48.8628 88.8076 46.8663C90.8283 44.9008 91.458 42.137 91.458 39.9054C91.458 39.2124 91.3986 38.5751 91.2926 38.043H80.9876ZM157.843 40.355C157.247 38.7855 155.408 35.8918 151.664 35.8918C147.953 35.8918 144.864 38.736 144.864 42.9105C144.864 46.8416 147.921 49.9271 152.02 49.9271C155.334 49.9271 157.247 47.9615 158.033 46.8168L155.574 45.2225C154.753 46.3899 153.636 47.1633 152.02 47.1633C150.415 47.1633 149.264 46.4477 148.526 45.0369L158.175 41.1532L157.843 40.355ZM148.004 42.6918C147.921 39.9858 150.165 38.5998 151.772 38.5998C153.031 38.5998 154.1 39.2124 154.456 40.089L148.004 42.6918ZM140.161 49.5002H143.333V28.8752H140.161V49.5002ZM134.966 37.4552H134.86C134.147 36.6343 132.788 35.8918 131.067 35.8918C127.453 35.8918 124.15 38.9773 124.15 42.9332C124.15 46.8663 127.453 49.9271 131.067 49.9271C132.788 49.9271 134.147 49.1784 134.86 48.3328H134.966V49.3393C134.966 52.0226 133.492 53.4643 131.115 53.4643C129.177 53.4643 127.975 52.103 127.479 50.9583L124.72 52.0783C125.515 53.9387 127.621 56.228 131.115 56.228C134.834 56.228 137.973 54.0995 137.973 48.9206V36.3187H134.966V37.4552ZM131.338 47.1633C129.152 47.1633 127.322 45.3834 127.322 42.9332C127.322 40.4602 129.152 38.6555 131.338 38.6555C133.492 38.6555 135.191 40.4602 135.191 42.9332C135.191 45.3834 133.492 47.1633 131.338 47.1633ZM172.694 28.8752H165.107V49.5002H168.271V41.6853H172.694C176.207 41.6853 179.653 39.2124 179.653 35.2792C179.653 31.3481 176.199 28.8752 172.694 28.8752ZM172.776 38.8164H168.271V31.7441H172.776C175.138 31.7441 176.487 33.6519 176.487 35.2792C176.487 36.8756 175.138 38.8164 172.776 38.8164ZM192.332 35.8526C190.047 35.8526 187.67 36.8343 186.692 39.0103L189.5 40.155C190.104 39.0103 191.215 38.639 192.39 38.639C194.031 38.639 195.695 39.5981 195.721 41.2914V41.508C195.148 41.1862 193.923 40.7098 192.415 40.7098C189.392 40.7098 186.311 42.3288 186.311 45.3504C186.311 48.1142 188.787 49.8941 191.571 49.8941C193.7 49.8941 194.875 48.9598 195.613 47.8728H195.721V49.4672H198.776V41.5554C198.776 37.8986 195.969 35.8526 192.332 35.8526ZM191.951 47.1551C190.916 47.1551 189.474 46.656 189.474 45.4082C189.474 43.8118 191.272 43.1992 192.829 43.1992C194.222 43.1992 194.875 43.4983 195.721 43.8922C195.473 45.8021 193.783 47.1551 191.951 47.1551ZM209.908 36.3043L206.272 45.2452H206.164L202.404 36.3043H198.993L204.641 48.7989L201.418 55.7516H204.724L213.428 36.3043H209.908ZM181.391 49.5002H184.563V28.8752H181.391V49.5002Z" fill="white"/>
<path d="M17.7007 12.4389C17.2024 12.9463 16.914 13.7362 16.914 14.7592V51.249C16.914 52.272 17.2024 53.0619 17.7007 53.5693L17.8236 53.6807L38.845 33.2413V32.7587L17.8236 12.3193L17.7007 12.4389Z" fill="url(#paint0_linear)"/>
<path d="M45.8446 40.0579L38.8453 33.2413V32.7587L45.8531 25.9421L46.01 26.0308L54.3091 30.624C56.6776 31.9275 56.6776 34.0725 54.3091 35.3842L46.01 39.9692L45.8446 40.0579Z" fill="url(#paint1_linear)"/>
<path d="M46.01 39.9693L38.8453 33.0001L17.7009 53.5695C18.4876 54.3738 19.7704 54.4708 21.2292 53.6664L46.01 39.9693Z" fill="url(#paint2_linear)"/>
<path d="M46.01 26.0308L21.2292 12.3338C19.7704 11.5376 18.4876 11.6346 17.7009 12.4389L38.8453 33L46.01 26.0308Z" fill="url(#paint3_linear)"/>
<defs>
<linearGradient id="paint0_linear" x1="36.9785" y1="51.629" x2="9.29818" y2="23.172" gradientUnits="userSpaceOnUse">
<stop stop-color="#00A0FF"/>
<stop offset="0.0066" stop-color="#00A1FF"/>
<stop offset="0.2601" stop-color="#00BEFF"/>
<stop offset="0.5122" stop-color="#00D2FF"/>
<stop offset="0.7604" stop-color="#00DFFF"/>
<stop offset="1" stop-color="#00E3FF"/>
</linearGradient>
<linearGradient id="paint1_linear" x1="57.3933" y1="32.9977" x2="16.3481" y2="32.9977" gradientUnits="userSpaceOnUse">
<stop stop-color="#FFE000"/>
<stop offset="0.4087" stop-color="#FFBD00"/>
<stop offset="0.7754" stop-color="#FFA500"/>
<stop offset="1" stop-color="#FF9C00"/>
</linearGradient>
<linearGradient id="paint2_linear" x1="42.114" y1="29.2116" x2="4.57721" y2="-9.37846" gradientUnits="userSpaceOnUse">
<stop stop-color="#FF3A44"/>
<stop offset="1" stop-color="#C31162"/>
</linearGradient>
<linearGradient id="paint3_linear" x1="12.3785" y1="65.7093" x2="29.1403" y2="48.4772" gradientUnits="userSpaceOnUse">
<stop stop-color="#32A071"/>
<stop offset="0.0685" stop-color="#2DA771"/>
<stop offset="0.4762" stop-color="#15CF74"/>
<stop offset="0.8009" stop-color="#06E775"/>
<stop offset="1" stop-color="#00F076"/>
</linearGradient>
</defs>
</svg>
