<svg width="242" height="90" viewBox="0 0 242 90" fill="none" xmlns="http://www.w3.org/2000/svg">
<g filter="url(#filter0_d)">
<path d="M196.947 10H45.0526C25.6936 10 10 25.67 10 45C10 64.33 25.6936 80 45.0526 80H196.947C216.306 80 232 64.33 232 45C232 25.67 216.306 10 196.947 10Z" fill="#0A090D"/>
<path fill-rule="evenodd" clip-rule="evenodd" d="M115.204 54.1095C115.204 50.369 118.189 47.658 121.843 47.658C125.505 47.658 128.491 50.369 128.491 54.1095C128.491 57.8196 125.505 60.5591 121.843 60.5591C118.189 60.5591 115.204 57.8196 115.204 54.1095ZM118.113 54.1095C118.113 56.4053 119.838 58.0187 121.843 58.0187C123.848 58.0187 125.581 56.4053 125.581 54.1095C125.581 51.7833 123.848 50.1984 121.843 50.1984C119.838 50.1984 118.113 51.7833 118.113 54.1095ZM100.718 54.1095C100.718 50.369 103.695 47.658 107.357 47.658C111.017 47.658 113.996 50.369 113.996 54.1095C113.996 57.8196 111.017 60.5591 107.357 60.5591C103.695 60.5591 100.718 57.8196 100.718 54.1095ZM103.62 54.1095C103.62 56.4053 105.35 58.0187 107.357 58.0187C109.362 58.0187 111.087 56.4053 111.087 54.1095C111.087 51.7833 109.362 50.1984 107.357 50.1984C105.35 50.1984 103.62 51.7833 103.62 54.1095ZM90.1196 52.3767V49.6354H99.5708C99.668 50.1244 99.7225 50.7102 99.7225 51.3472C99.7225 53.3986 99.1449 55.939 97.2916 57.7457C95.4831 59.5808 93.1825 60.5591 90.1196 60.5591C84.4527 60.5591 79.6902 56.064 79.6902 50.5396C79.6902 45.0151 84.4527 40.5202 90.1196 40.5202C93.2506 40.5202 95.4831 41.7202 97.1613 43.2824L95.1797 45.2143C93.9798 44.1108 92.3541 43.2596 90.1196 43.2596C85.9871 43.2596 82.7512 46.511 82.7512 50.5396C82.7512 54.5683 85.9871 57.8196 90.1196 57.8196C92.8013 57.8196 94.3279 56.7674 95.3081 55.8195C96.1131 55.0347 96.6382 53.9085 96.8346 52.3767H90.1196ZM154.94 47.658C158.374 47.658 160.06 50.3179 160.607 51.7606L160.912 52.4943L152.061 56.064C152.739 57.3608 153.794 58.0187 155.266 58.0187C156.749 58.0187 157.774 57.3077 158.526 56.2347L160.782 57.7002C160.06 58.7524 158.307 60.5591 155.266 60.5591C151.507 60.5591 148.703 57.7229 148.703 54.1095C148.703 50.2724 151.537 47.658 154.94 47.658ZM155.04 50.1472C153.565 50.1472 151.507 51.4212 151.583 53.9085L157.501 51.516C157.174 50.7102 156.194 50.1472 155.04 50.1472ZM147.299 60.1666H144.391V41.2083H147.299V60.1666ZM139.529 49.095H139.626V48.0504H142.383V59.6339C142.383 64.3944 139.505 66.3509 136.094 66.3509C132.889 66.3509 130.958 64.2465 130.229 62.5365L132.759 61.507C133.214 62.5592 134.317 63.8105 136.094 63.8105C138.274 63.8105 139.626 62.4853 139.626 60.0188V59.0936H139.529C138.875 59.8709 137.629 60.5591 136.049 60.5591C132.736 60.5591 129.706 57.7457 129.706 54.1303C129.706 50.4941 132.736 47.658 136.049 47.658C137.629 47.658 138.875 48.3405 139.529 49.095ZM132.615 54.1303C132.615 56.3825 134.293 58.0187 136.298 58.0187C138.274 58.0187 139.831 56.3825 139.831 54.1303C139.831 51.8573 138.274 50.1984 136.298 50.1984C134.293 50.1984 132.615 51.8573 132.615 54.1303ZM167.269 41.2083H174.227C177.442 41.2083 180.611 43.4814 180.611 47.0949C180.611 50.7102 177.45 52.9833 174.227 52.9833H170.171V60.1666H167.269V41.2083ZM170.171 50.3462H174.303C176.47 50.3462 177.707 48.5623 177.707 47.0949C177.707 45.599 176.47 43.8454 174.303 43.8454H170.171V50.3462ZM187.066 50.5245C187.963 48.5243 190.142 47.6219 192.239 47.6219C195.574 47.6219 198.15 49.5026 198.15 52.8639V60.1363H195.347V58.6708H195.247C194.571 59.67 193.494 60.5288 191.541 60.5288C188.988 60.5288 186.717 58.8926 186.717 56.3522C186.717 53.5748 189.542 52.0866 192.315 52.0866C193.698 52.0866 194.822 52.5246 195.347 52.8204V52.6212C195.323 51.0648 193.797 50.1832 192.291 50.1832C191.214 50.1832 190.195 50.5245 189.641 51.5767L187.066 50.5245ZM189.618 56.4053C189.618 57.5524 190.941 58.0111 191.889 58.0111C193.569 58.0111 195.119 56.7674 195.347 55.0119C194.571 54.6498 193.971 54.3749 192.694 54.3749C191.267 54.3749 189.618 54.938 189.618 56.4053ZM205.024 56.2556L208.358 48.0371H211.587L203.604 65.9129H200.572L203.528 59.522L198.347 48.0371H201.476L204.924 56.2556H205.024ZM185.114 60.1666H182.204V41.2083H185.114V60.1666ZM88.4569 33.2401C89.2232 32.4836 89.6121 31.4693 89.6121 30.2029C89.6121 29.9811 89.5965 29.7517 89.542 29.5147H85.0226V30.6105H88.4103C88.3422 31.3953 88.0836 32.0096 87.6285 32.4551C86.9381 33.1282 86.0631 33.4694 85.0226 33.4694C84.0425 33.4694 83.1927 33.1282 82.4712 32.4627C81.7575 31.7878 81.3996 30.9063 81.3996 29.8332C81.3996 28.7602 81.7575 27.8862 82.4712 27.2113C83.1927 26.5383 84.0425 26.2046 85.0226 26.2046C86.1097 26.2046 86.9596 26.5592 87.5837 27.2776L88.3966 26.4776C88.0388 26.0567 87.5448 25.7154 86.9381 25.4633C86.3295 25.2131 85.6916 25.0784 85.0226 25.0784C83.6789 25.0784 82.5315 25.5373 81.5902 26.4491C80.6471 27.3591 80.1764 28.4853 80.1764 29.8332C80.1764 31.1811 80.6471 32.3073 81.5902 33.2249C82.5315 34.1292 83.6789 34.5879 85.0226 34.5879C86.4287 34.5879 87.576 34.1368 88.4569 33.2401ZM92.5369 26.4038H96.7821V25.2871H91.3351V34.3796H96.7821V33.2628H92.5369V30.3812H96.3641V29.2854H92.5369V26.4038ZM101.842 34.3796H100.64V26.4038H98.0363V25.2871H104.448V26.4038H101.842V34.3796ZM109.088 25.2871V34.3796H110.288V25.2871H109.088ZM115.607 34.3796H114.415V26.4038H111.801V25.2871H118.22V26.4038H115.607V34.3796ZM126.94 34.5879C128.299 34.5879 129.44 34.1292 130.359 33.2097C131.277 32.2922 131.734 31.166 131.734 29.8332C131.734 28.5081 131.277 27.3895 130.351 26.4643C129.431 25.5373 128.292 25.0784 126.94 25.0784C125.573 25.0784 124.434 25.5373 123.514 26.4567C122.596 27.3743 122.139 28.5005 122.139 29.8332C122.139 31.166 122.596 32.2922 123.514 33.2097C124.434 34.1292 125.573 34.5879 126.94 34.5879ZM126.94 33.4694C125.937 33.4694 125.095 33.1282 124.403 32.4476C123.712 31.7669 123.362 30.893 123.362 29.8332C123.362 28.7735 123.712 27.8994 124.403 27.2189C125.095 26.5383 125.937 26.197 126.94 26.197C127.936 26.197 128.786 26.5383 129.47 27.2189C130.16 27.8994 130.511 28.7735 130.511 29.8332C130.511 30.893 130.16 31.7669 129.47 32.4476C128.786 33.1282 127.936 33.4694 126.94 33.4694ZM133.42 34.3796V25.2871H134.879L139.413 32.3585H139.466L139.413 30.6106V25.2871H140.613V34.3796H139.361L134.612 26.9592H134.56L134.612 28.7148V34.3796H133.42Z" fill="white"/>
<path d="M90.1195 49.6354H90.0027V49.5187H90.1195V49.6354ZM90.1195 52.3767V52.4934H90.0027V52.3767H90.1195ZM99.5708 49.6354V49.5187H99.6667L99.6854 49.6126L99.5708 49.6354ZM97.2915 57.7457L97.2082 57.6639L97.21 57.6623L97.2915 57.7457ZM97.1613 43.2824L97.2409 43.197L97.3306 43.2804L97.2429 43.3658L97.1613 43.2824ZM95.1796 45.2143L95.2613 45.2977L95.182 45.3751L95.1005 45.3001L95.1796 45.2143ZM95.308 55.8195L95.3896 55.9031L95.3892 55.9033L95.308 55.8195ZM96.8346 52.3767V52.26H96.9673L96.9505 52.3915L96.8346 52.3767ZM160.607 51.7606L160.498 51.8054L160.497 51.8019L160.607 51.7606ZM160.912 52.4943L161.02 52.4495L161.065 52.5584L160.956 52.6025L160.912 52.4943ZM152.061 56.0641L151.958 56.118L151.899 56.0041L152.018 55.9559L152.061 56.0641ZM158.526 56.2348L158.43 56.1678L158.495 56.0755L158.589 56.137L158.526 56.2348ZM160.782 57.7002L160.845 57.6024L160.946 57.6675L160.878 57.7661L160.782 57.7002ZM151.583 53.9085L151.628 54.0167L151.471 54.0796L151.467 53.9122L151.583 53.9085ZM157.501 51.5161L157.609 51.4722L157.653 51.5803L157.545 51.6242L157.501 51.5161ZM144.391 60.1667V60.2833H144.274V60.1667H144.391ZM147.299 60.1667H147.416V60.2833H147.299V60.1667ZM144.391 41.2083H144.274V41.0917H144.391V41.2083ZM147.299 41.2083V41.0917H147.416V41.2083H147.299ZM139.626 49.095H139.743V49.2117H139.626V49.095ZM139.529 49.095V49.2117H139.475L139.44 49.1713L139.529 49.095ZM139.626 48.0505H139.509V47.9338H139.626V48.0505ZM142.383 48.0505V47.9338H142.5V48.0505H142.383ZM130.229 62.5365L130.122 62.5822L130.075 62.4732L130.185 62.4285L130.229 62.5365ZM132.759 61.507L132.715 61.399L132.821 61.3558L132.866 61.4608L132.759 61.507ZM139.626 59.0937V58.977H139.743V59.0937H139.626ZM139.529 59.0937L139.439 59.0187L139.474 58.977H139.529V59.0937ZM167.269 41.2083H167.153V41.0917H167.269V41.2083ZM170.171 52.9834H170.054V52.8667H170.171V52.9834ZM170.171 60.1667H170.287V60.2833H170.171V60.1667ZM167.269 60.1667V60.2833H167.153V60.1667H167.269ZM170.171 50.3462V50.4629H170.054V50.3462H170.171ZM170.171 43.8455H170.054V43.7288H170.171V43.8455ZM187.066 50.5245L187.022 50.6324L186.911 50.5868L186.96 50.4768L187.066 50.5245ZM198.15 60.1363H198.266V60.253H198.15V60.1363ZM195.347 60.1363V60.253H195.23V60.1363H195.347ZM195.347 58.6709V58.5542H195.463V58.6709H195.347ZM195.247 58.6709L195.15 58.6055L195.185 58.5542H195.247V58.6709ZM195.347 52.8204H195.463V53.0201L195.289 52.922L195.347 52.8204ZM195.347 52.6212L195.463 52.6195V52.6212H195.347ZM189.641 51.5767L189.744 51.631L189.695 51.7248L189.597 51.6846L189.641 51.5767ZM195.347 55.012L195.397 54.9063L195.474 54.9423L195.462 55.0269L195.347 55.012ZM208.358 48.0372L208.251 47.9933L208.28 47.9205H208.358V48.0372ZM205.023 56.2556L205.132 56.2994L205.102 56.3723H205.023V56.2556ZM211.586 48.0372V47.9205H211.766L211.694 48.0847L211.586 48.0372ZM203.604 65.913L203.71 65.9604L203.68 66.0296H203.604V65.913ZM200.572 65.913V66.0296H200.39L200.467 65.8641L200.572 65.913ZM203.528 59.5221L203.634 59.4742L203.656 59.5228L203.634 59.5711L203.528 59.5221ZM198.347 48.0372L198.241 48.0851L198.167 47.9205H198.347V48.0372ZM201.476 48.0372V47.9205H201.554L201.584 47.992L201.476 48.0372ZM204.924 56.2556V56.3723H204.847L204.817 56.3007L204.924 56.2556ZM182.204 60.1667V60.2833H182.087V60.1667H182.204ZM185.114 60.1667H185.23V60.2833H185.114V60.1667ZM182.204 41.2083H182.087V41.0917H182.204V41.2083ZM185.114 41.2083V41.0917H185.23V41.2083H185.114ZM88.4569 33.2401L88.3734 33.1583L88.3747 33.1572L88.4569 33.2401ZM89.542 29.5147V29.398H89.6351L89.6559 29.4887L89.542 29.5147ZM85.0225 29.5147H84.9057V29.398H85.0225V29.5147ZM85.0225 30.6106V30.7272H84.9057V30.6106H85.0225ZM88.4103 30.6106V30.4939H88.5376L88.5266 30.6206L88.4103 30.6106ZM87.6285 32.4552L87.7102 32.5385L87.7101 32.5387L87.6285 32.4552ZM82.4712 32.4628L82.3918 32.5485L82.3908 32.5475L82.4712 32.4628ZM82.4712 27.2114L82.3908 27.1267L82.3914 27.1261L82.4712 27.2114ZM87.5837 27.2776L87.6657 27.3608L87.577 27.4481L87.4955 27.3542L87.5837 27.2776ZM88.3966 26.4776L88.4857 26.4022L88.5558 26.4846L88.4786 26.5607L88.3966 26.4776ZM86.938 25.4633L86.9826 25.3554L86.983 25.3557L86.938 25.4633ZM81.5902 26.4492L81.6715 26.5329L81.6714 26.5331L81.5902 26.4492ZM81.5902 33.2249L81.5092 33.3089L81.5086 33.3085L81.5902 33.2249ZM96.7821 26.4038H96.8989V26.5205H96.7821V26.4038ZM92.5369 26.4038H92.42V26.2871H92.5369V26.4038ZM96.7821 25.2872V25.1705H96.8989V25.2872H96.7821ZM91.335 25.2872H91.2182V25.1705H91.335V25.2872ZM91.335 34.3796V34.4963H91.2182V34.3796H91.335ZM96.7821 34.3796H96.8989V34.4963H96.7821V34.3796ZM96.7821 33.2629V33.1462H96.8989V33.2629H96.7821ZM92.5369 33.2629V33.3795H92.42V33.2629H92.5369ZM92.5369 30.3812H92.42V30.2645H92.5369V30.3812ZM96.364 30.3812H96.4809V30.4979H96.364V30.3812ZM96.364 29.2855V29.1688H96.4809V29.2855H96.364ZM92.5369 29.2855V29.4021H92.42V29.2855H92.5369ZM100.64 34.3796V34.4963H100.523V34.3796H100.64ZM101.842 34.3796H101.959V34.4963H101.842V34.3796ZM100.64 26.4038V26.2871H100.757V26.4038H100.64ZM98.0363 26.4038V26.5205H97.9194V26.4038H98.0363ZM98.0363 25.2872H97.9194V25.1705H98.0363V25.2872ZM104.448 25.2872V25.1705H104.565V25.2872H104.448ZM104.448 26.4038H104.565V26.5205H104.448V26.4038ZM101.842 26.4038H101.725V26.2871H101.842V26.4038ZM109.088 34.3796V34.4963H108.971V34.3796H109.088ZM109.088 25.2872H108.971V25.1705H109.088V25.2872ZM110.288 34.3796H110.405V34.4963H110.288V34.3796ZM110.288 25.2872V25.1705H110.405V25.2872H110.288ZM114.415 34.3796V34.4963H114.298V34.3796H114.415ZM115.607 34.3796H115.723V34.4963H115.607V34.3796ZM114.415 26.4038V26.2871H114.531V26.4038H114.415ZM111.801 26.4038V26.5205H111.684V26.4038H111.801ZM111.801 25.2872H111.684V25.1705H111.801V25.2872ZM118.22 25.2872V25.1705H118.337V25.2872H118.22ZM118.22 26.4038H118.337V26.5205H118.22V26.4038ZM115.607 26.4038H115.49V26.2871H115.607V26.4038ZM130.359 33.2098L130.442 33.2921L130.359 33.2098ZM130.351 26.4643L130.269 26.5468L130.268 26.5465L130.351 26.4643ZM123.514 26.4568L123.431 26.3743L123.514 26.4568ZM123.514 33.2098L123.431 33.2921L123.514 33.2098ZM124.403 32.4476L124.321 32.5308L124.32 32.5307L124.403 32.4476ZM124.403 27.2189L124.32 27.1359L124.321 27.1358L124.403 27.2189ZM129.47 27.2189L129.388 27.3019V27.3015L129.47 27.2189ZM129.47 32.4476L129.388 32.365V32.3646L129.47 32.4476ZM133.42 25.2872H133.303V25.1705H133.42V25.2872ZM133.42 34.3796V34.4963H133.303V34.3796H133.42ZM134.878 25.2872V25.1705H134.943L134.977 25.2242L134.878 25.2872ZM139.413 32.3586V32.4752H139.35L139.315 32.4215L139.413 32.3586ZM139.466 32.3586L139.583 32.3551L139.586 32.4752H139.466V32.3586ZM139.413 30.6107L139.296 30.6142V30.6107H139.413ZM139.413 25.2872H139.296V25.1705H139.413V25.2872ZM140.613 25.2872V25.1705H140.73V25.2872H140.613ZM140.613 34.3796H140.73V34.4963H140.613V34.3796ZM139.361 34.3796V34.4963H139.297L139.262 34.4424L139.361 34.3796ZM134.612 26.9592V26.8426H134.676L134.71 26.8965L134.612 26.9592ZM134.559 26.9592L134.443 26.9627L134.439 26.8426H134.559V26.9592ZM134.612 28.7148L134.729 28.7113V28.7148H134.612ZM134.612 34.3796H134.729V34.4963H134.612V34.3796ZM121.843 47.7747C118.248 47.7747 115.321 50.4386 115.321 54.1096H115.087C115.087 50.2995 118.13 47.5413 121.843 47.5413V47.7747ZM128.374 54.1096C128.374 50.4388 125.446 47.7747 121.843 47.7747V47.5413C125.564 47.5413 128.608 50.2993 128.608 54.1096H128.374ZM121.843 60.4425C125.446 60.4425 128.374 57.7503 128.374 54.1096H128.608C128.608 57.8891 125.565 60.6758 121.843 60.6758V60.4425ZM115.321 54.1096C115.321 57.7504 118.249 60.4425 121.843 60.4425V60.6758C118.13 60.6758 115.087 57.889 115.087 54.1096H115.321ZM121.843 58.1354C119.772 58.1354 117.997 56.4683 117.997 54.1096H118.23C118.23 56.3424 119.904 57.902 121.843 57.902V58.1354ZM125.698 54.1096C125.698 56.4686 123.914 58.1354 121.843 58.1354V57.902C123.783 57.902 125.464 56.3421 125.464 54.1096H125.698ZM121.843 50.0818C123.913 50.0818 125.698 51.7195 125.698 54.1096H125.464C125.464 51.847 123.783 50.3151 121.843 50.3151V50.0818ZM117.997 54.1096C117.997 51.7199 119.773 50.0818 121.843 50.0818V50.3151C119.904 50.3151 118.23 51.8468 118.23 54.1096H117.997ZM107.357 47.7747C103.755 47.7747 100.835 50.4385 100.835 54.1096H100.601C100.601 50.2995 103.636 47.5413 107.357 47.5413V47.7747ZM113.88 54.1096C113.88 50.4385 110.958 47.7747 107.357 47.7747V47.5413C111.076 47.5413 114.113 50.2995 114.113 54.1096H113.88ZM107.357 60.4425C110.958 60.4425 113.88 57.7504 113.88 54.1096H114.113C114.113 57.8889 111.077 60.6758 107.357 60.6758V60.4425ZM100.835 54.1096C100.835 57.7505 103.755 60.4425 107.357 60.4425V60.6758C103.636 60.6758 100.601 57.8889 100.601 54.1096H100.835ZM107.357 58.1354C105.285 58.1354 103.503 56.4686 103.503 54.1096H103.736C103.736 56.3422 105.416 57.902 107.357 57.902V58.1354ZM111.204 54.1096C111.204 56.4683 109.428 58.1354 107.357 58.1354V57.902C109.296 57.902 110.97 56.3424 110.97 54.1096H111.204ZM107.357 50.0818C109.428 50.0818 111.204 51.7199 111.204 54.1096H110.97C110.97 51.8468 109.297 50.3151 107.357 50.3151V50.0818ZM103.503 54.1096C103.503 51.7196 105.285 50.0818 107.357 50.0818V50.3151C105.416 50.3151 103.736 51.847 103.736 54.1096H103.503ZM90.2364 49.6354V52.3767H90.0027V49.6354H90.2364ZM99.5708 49.7521H90.1195V49.5187H99.5708V49.7521ZM99.6056 51.3472C99.6056 50.7165 99.5516 50.1385 99.4562 49.658L99.6854 49.6126C99.7844 50.1105 99.8393 50.7041 99.8393 51.3472H99.6056ZM97.21 57.6623C99.0325 55.8855 99.6056 53.3809 99.6056 51.3472H99.8393C99.8393 53.4163 99.2572 55.9926 97.3732 57.8292L97.21 57.6623ZM90.1195 60.4425C93.1538 60.4425 95.4235 59.4749 97.2083 57.6639L97.3748 57.8275C95.5425 59.6868 93.2111 60.6758 90.1195 60.6758V60.4425ZM79.807 50.5397C79.807 55.9949 84.5124 60.4425 90.1195 60.4425V60.6758C84.3931 60.6758 79.5734 56.1334 79.5734 50.5397H79.807ZM90.1195 40.6369C84.5124 40.6369 79.807 45.0845 79.807 50.5397H79.5734C79.5734 44.946 84.3931 40.4036 90.1195 40.4036V40.6369ZM97.0816 43.3677C95.4212 41.8222 93.2162 40.6369 90.1195 40.6369V40.4036C93.2848 40.4036 95.5447 41.6182 97.2409 43.197L97.0816 43.3677ZM95.0981 45.1308L97.0797 43.1989L97.2429 43.3658L95.2613 45.2977L95.0981 45.1308ZM90.1195 43.143C92.3874 43.143 94.0406 44.0082 95.2588 45.1284L95.1005 45.3001C93.9189 44.2135 92.3205 43.3763 90.1195 43.3763V43.143ZM82.6343 50.5397C82.6343 46.446 85.9231 43.143 90.1195 43.143V43.3763C86.051 43.3763 82.868 46.576 82.868 50.5397H82.6343ZM90.1195 57.9363C85.9231 57.9363 82.6343 54.6333 82.6343 50.5397H82.868C82.868 54.5033 86.051 57.703 90.1195 57.703V57.9363ZM95.3892 55.9033C94.3928 56.8671 92.8383 57.9363 90.1195 57.9363V57.703C92.7641 57.703 94.263 56.6678 95.2267 55.7358L95.3892 55.9033ZM96.9505 52.3915C96.7516 53.9424 96.2181 55.0954 95.3896 55.9031L95.2263 55.7361C96.008 54.9741 96.5247 53.8747 96.7187 52.3619L96.9505 52.3915ZM90.1195 52.26H96.8346V52.4934H90.1195V52.26ZM160.497 51.8019C159.957 50.3774 158.302 47.7747 154.94 47.7747V47.5413C158.447 47.5413 160.163 50.2583 160.716 51.7193L160.497 51.8019ZM160.805 52.539L160.498 51.8054L160.715 51.7158L161.02 52.4495L160.805 52.539ZM152.018 55.9559L160.869 52.386L160.956 52.6025L152.106 56.1723L152.018 55.9559ZM155.266 58.1354C154.513 58.1354 153.858 57.9667 153.304 57.6271C152.751 57.2876 152.304 56.7816 151.958 56.118L152.165 56.0102C152.496 56.6434 152.915 57.1147 153.427 57.4283C153.939 57.7417 154.549 57.902 155.266 57.902V58.1354ZM158.622 56.3016C157.852 57.3986 156.795 58.1354 155.266 58.1354V57.902C156.702 57.902 157.694 57.2169 158.43 56.1678L158.622 56.3016ZM160.718 57.798L158.462 56.3325L158.589 56.137L160.845 57.6024L160.718 57.798ZM155.266 60.4425C158.254 60.4425 159.976 58.6682 160.685 57.6343L160.878 57.7661C160.144 58.8365 158.359 60.6758 155.266 60.6758V60.4425ZM148.82 54.1096C148.82 57.6577 151.572 60.4425 155.266 60.4425V60.6758C151.444 60.6758 148.586 57.7882 148.586 54.1096H148.82ZM154.94 47.7747C151.601 47.7747 148.82 50.3367 148.82 54.1096H148.586C148.586 50.208 151.472 47.5413 154.94 47.5413V47.7747ZM151.467 53.9122C151.388 51.3461 153.512 50.0305 155.04 50.0305V50.2639C153.618 50.2639 151.627 51.4965 151.7 53.905L151.467 53.9122ZM157.545 51.6242L151.628 54.0167L151.54 53.8004L157.457 51.4079L157.545 51.6242ZM155.04 50.0305C156.226 50.0305 157.26 50.6092 157.609 51.4722L157.393 51.5598C157.089 50.8114 156.162 50.2639 155.04 50.2639V50.0305ZM144.391 60.05H147.299V60.2833H144.391V60.05ZM144.507 41.2083V60.1667H144.274V41.2083H144.507ZM147.299 41.325H144.391V41.0917H147.299V41.325ZM147.182 60.1667V41.2083H147.416V60.1667H147.182ZM139.626 49.2117H139.529V48.9783H139.626V49.2117ZM139.743 48.0505V49.095H139.509V48.0505H139.743ZM142.383 48.1671H139.626V47.9338H142.383V48.1671ZM142.266 59.634V48.0505H142.5V59.634H142.266ZM136.094 66.2343C137.778 66.2343 139.318 65.7514 140.438 64.6929C141.555 63.6356 142.266 61.99 142.266 59.634H142.5C142.5 62.0383 141.772 63.7511 140.598 64.8623C139.425 65.9721 137.821 66.4676 136.094 66.4676V66.2343ZM130.337 62.4908C131.052 64.1696 132.948 66.2343 136.094 66.2343V66.4676C132.83 66.4676 130.864 64.3234 130.122 62.5822L130.337 62.4908ZM132.803 61.6151L130.273 62.6445L130.185 62.4285L132.715 61.399L132.803 61.6151ZM136.094 63.9272C134.253 63.9272 133.118 62.6309 132.651 61.5534L132.866 61.4608C133.31 62.4875 134.38 63.6938 136.094 63.6938V63.9272ZM139.743 60.0188C139.743 61.2727 139.399 62.2529 138.762 62.9201C138.124 63.588 137.208 63.9272 136.094 63.9272V63.6938C137.16 63.6938 138.01 63.3704 138.593 62.7591C139.177 62.1471 139.509 61.2314 139.509 60.0188H139.743ZM139.743 59.0937V60.0188H139.509V59.0937H139.743ZM139.529 58.977H139.626V59.2103H139.529V58.977ZM136.049 60.4425C137.595 60.4425 138.809 59.7685 139.439 59.0187L139.618 59.1687C138.941 59.9735 137.662 60.6758 136.049 60.6758V60.4425ZM129.823 54.1303C129.823 57.6799 132.799 60.4425 136.049 60.4425V60.6758C132.672 60.6758 129.589 57.8115 129.589 54.1303H129.823ZM136.049 47.7747C132.8 47.7747 129.823 50.5592 129.823 54.1303H129.589C129.589 50.4291 132.671 47.5413 136.049 47.5413V47.7747ZM139.44 49.1713C138.809 48.4433 137.595 47.7747 136.049 47.7747V47.5413C137.662 47.5413 138.94 48.2377 139.616 49.0187L139.44 49.1713ZM136.298 58.1354C134.225 58.1354 132.498 56.4436 132.498 54.1303H132.732C132.732 56.3217 134.361 57.902 136.298 57.902V58.1354ZM139.948 54.1303C139.948 56.4378 138.348 58.1354 136.298 58.1354V57.902C138.2 57.902 139.715 56.3275 139.715 54.1303H139.948ZM136.298 50.0818C138.349 50.0818 139.948 51.8035 139.948 54.1303H139.715C139.715 51.911 138.199 50.3151 136.298 50.3151V50.0818ZM132.498 54.1303C132.498 51.7977 134.224 50.0818 136.298 50.0818V50.3151C134.362 50.3151 132.732 51.9169 132.732 54.1303H132.498ZM174.227 41.325H167.269V41.0917H174.227V41.325ZM180.494 47.095C180.494 43.5623 177.395 41.325 174.227 41.325V41.0917C177.488 41.0917 180.727 43.4006 180.727 47.095H180.494ZM174.227 52.8667C177.403 52.8667 180.494 50.6295 180.494 47.095H180.727C180.727 50.791 177.497 53.1 174.227 53.1V52.8667ZM170.171 52.8667H174.227V53.1H170.171V52.8667ZM170.054 60.1667V52.9834H170.287V60.1667H170.054ZM167.269 60.05H170.171V60.2833H167.269V60.05ZM167.386 41.2083V60.1667H167.153V41.2083H167.386ZM174.303 50.4629H170.171V50.2296H174.303V50.4629ZM177.824 47.095C177.824 48.6174 176.543 50.4629 174.303 50.4629V50.2296C176.396 50.2296 177.59 48.5072 177.59 47.095H177.824ZM174.303 43.7288C176.542 43.7288 177.824 45.5433 177.824 47.095H177.59C177.59 45.655 176.397 43.9621 174.303 43.9621V43.7288ZM170.171 43.7288H174.303V43.9621H170.171V43.7288ZM170.054 50.3462V43.8455H170.287V50.3462H170.054ZM192.239 47.7386C190.169 47.7386 188.044 48.6291 187.173 50.5721L186.96 50.4768C187.882 48.4196 190.116 47.5053 192.239 47.5053V47.7386ZM198.033 52.8639C198.033 51.2158 197.402 49.9386 196.37 49.0718C195.335 48.2028 193.886 47.7386 192.239 47.7386V47.5053C193.928 47.5053 195.434 47.9814 196.52 48.8932C197.609 49.8069 198.266 51.1509 198.266 52.8639H198.033ZM198.033 60.1363V52.8639H198.266V60.1363H198.033ZM195.347 60.0197H198.15V60.253H195.347V60.0197ZM195.463 58.6709V60.1363H195.23V58.6709H195.463ZM195.247 58.5542H195.347V58.7875H195.247V58.5542ZM191.541 60.4121C193.45 60.4121 194.492 59.5769 195.15 58.6055L195.344 58.7362C194.649 59.7631 193.537 60.6455 191.541 60.6455V60.4121ZM186.833 56.3522C186.833 58.8077 189.029 60.4121 191.541 60.4121V60.6455C188.946 60.6455 186.6 58.9777 186.6 56.3522H186.833ZM192.315 52.2033C190.947 52.2033 189.572 52.5707 188.542 53.2742C187.515 53.9759 186.833 55.0089 186.833 56.3522H186.6C186.6 54.9182 187.331 53.8185 188.41 53.0816C189.486 52.3467 190.91 51.97 192.315 51.97V52.2033ZM195.289 52.922C194.779 52.6345 193.675 52.2033 192.315 52.2033V51.97C193.72 51.97 194.864 52.4146 195.404 52.7188L195.289 52.922ZM195.463 52.6212V52.8204H195.23V52.6212H195.463ZM192.291 50.0666C193.066 50.0666 193.849 50.2928 194.443 50.7241C195.042 51.1572 195.452 51.7989 195.463 52.6195L195.23 52.623C195.219 51.8872 194.855 51.3099 194.307 50.913C193.756 50.5145 193.023 50.2999 192.291 50.2999V50.0666ZM189.537 51.5224C190.12 50.4169 191.191 50.0666 192.291 50.0666V50.2999C191.237 50.2999 190.271 50.6321 189.744 51.631L189.537 51.5224ZM187.11 50.4165L189.686 51.4687L189.597 51.6846L187.022 50.6324L187.11 50.4165ZM191.889 58.1278C191.399 58.1278 190.81 58.0098 190.339 57.7395C189.866 57.4675 189.501 57.0326 189.501 56.4053H189.735C189.735 56.9251 190.031 57.2932 190.456 57.5372C190.883 57.7829 191.43 57.8945 191.889 57.8945V58.1278ZM195.462 55.0269C195.227 56.8441 193.624 58.1278 191.889 58.1278V57.8945C193.515 57.8945 195.011 56.6908 195.231 54.9969L195.462 55.0269ZM192.694 54.2583C193.997 54.2583 194.614 54.5411 195.397 54.9063L195.298 55.1177C194.528 54.7586 193.947 54.4916 192.694 54.4916V54.2583ZM189.501 56.4053C189.501 55.6182 189.947 55.0765 190.564 54.7377C191.178 54.4011 191.968 54.2583 192.694 54.2583V54.4916C191.993 54.4916 191.245 54.6304 190.676 54.9421C190.113 55.2517 189.735 55.7252 189.735 56.4053H189.501ZM208.467 48.0809L205.132 56.2994L204.915 56.2118L208.251 47.9933L208.467 48.0809ZM211.586 48.1538H208.358V47.9205H211.586V48.1538ZM203.498 65.8655L211.48 47.9897L211.694 48.0847L203.71 65.9604L203.498 65.8655ZM200.572 65.7963H203.604V66.0296H200.572V65.7963ZM203.634 59.5711L200.678 65.9618L200.467 65.8641L203.422 59.4732L203.634 59.5711ZM198.453 47.9892L203.634 59.4742L203.422 59.57L198.241 48.0851L198.453 47.9892ZM201.476 48.1538H198.347V47.9205H201.476V48.1538ZM204.817 56.3007L201.369 48.0822L201.584 47.992L205.032 56.2105L204.817 56.3007ZM205.023 56.3723H204.924V56.139H205.023V56.3723ZM182.204 60.05H185.114V60.2833H182.204V60.05ZM182.321 41.2083V60.1667H182.087V41.2083H182.321ZM185.114 41.325H182.204V41.0917H185.114V41.325ZM184.997 60.1667V41.2083H185.23V60.1667H184.997ZM89.7289 30.2029C89.7289 31.4949 89.3312 32.541 88.539 33.3231L88.3747 33.1572C89.115 32.4262 89.4952 31.4438 89.4952 30.2029H89.7289ZM89.6559 29.4887C89.7129 29.737 89.7289 29.9758 89.7289 30.2029H89.4952C89.4952 29.9865 89.4801 29.7665 89.4282 29.5408L89.6559 29.4887ZM85.0225 29.398H89.542V29.6314H85.0225V29.398ZM84.9057 30.6106V29.5147H85.1394V30.6106H84.9057ZM88.4103 30.7272H85.0225V30.4939H88.4103V30.7272ZM87.5467 32.3719C87.9772 31.9504 88.2275 31.3648 88.2939 30.6005L88.5266 30.6206C88.4567 31.4261 88.1899 32.069 87.7102 32.5385L87.5467 32.3719ZM85.0225 33.3528C86.0351 33.3528 86.8801 33.0217 87.5468 32.3718L87.7101 32.5387C86.9961 33.2346 86.0909 33.5861 85.0225 33.5861V33.3528ZM82.5504 32.3771C83.251 33.0231 84.0726 33.3528 85.0225 33.3528V33.5861C84.0122 33.5861 83.1344 33.2332 82.3918 32.5485L82.5504 32.3771ZM81.5165 29.8332C81.5165 30.8777 81.8635 31.7275 82.5514 32.3781L82.3908 32.5475C81.6514 31.8483 81.2828 30.9348 81.2828 29.8332H81.5165ZM82.5514 27.2961C81.8634 27.9468 81.5165 28.789 81.5165 29.8332H81.2828C81.2828 28.7314 81.6515 27.8257 82.3908 27.1267L82.5514 27.2961ZM85.0225 26.3213C84.0721 26.3213 83.2507 26.6437 82.5509 27.2965L82.3914 27.1261C83.1345 26.4328 84.0128 26.088 85.0225 26.088V26.3213ZM87.4955 27.3542C86.8968 26.665 86.0814 26.3213 85.0225 26.3213V26.088C86.138 26.088 87.0222 26.4533 87.672 27.2012L87.4955 27.3542ZM88.4786 26.5607L87.6657 27.3608L87.5017 27.1946L88.3146 26.3946L88.4786 26.5607ZM86.983 25.3557C87.6032 25.6134 88.1136 25.9645 88.4857 26.4022L88.3075 26.5531C87.9639 26.149 87.4865 25.8177 86.8932 25.571L86.983 25.3557ZM85.0225 24.9618C85.7077 24.9618 86.3606 25.0998 86.9826 25.3554L86.8936 25.5713C86.2982 25.3265 85.6754 25.1951 85.0225 25.1951V24.9618ZM81.5089 26.3654C82.4725 25.432 83.6492 24.9618 85.0225 24.9618V25.1951C83.7084 25.1951 82.5905 25.6427 81.6715 26.5329L81.5089 26.3654ZM80.0595 29.8332C80.0595 28.4547 80.5423 27.2979 81.509 26.3653L81.6714 26.5331C80.7517 27.4204 80.2932 28.5159 80.2932 29.8332H80.0595ZM81.5086 33.3085C80.5423 32.3684 80.0595 31.2119 80.0595 29.8332H80.2932C80.2932 31.1505 80.7517 32.2462 81.6717 33.1413L81.5086 33.3085ZM85.0225 34.7046C83.6493 34.7046 82.4727 34.2347 81.5092 33.3089L81.6711 33.1408C82.5902 34.0238 83.7083 34.4713 85.0225 34.4713V34.7046ZM88.5403 33.3218C87.6348 34.2436 86.456 34.7046 85.0225 34.7046V34.4713C86.4012 34.4713 87.5171 34.0301 88.3734 33.1583L88.5403 33.3218ZM96.7821 26.5205H92.5369V26.2871H96.7821V26.5205ZM96.8989 25.2872V26.4038H96.6653V25.2872H96.8989ZM91.335 25.1705H96.7821V25.4038H91.335V25.1705ZM91.2182 34.3796V25.2872H91.4519V34.3796H91.2182ZM96.7821 34.4963H91.335V34.2629H96.7821V34.4963ZM96.8989 33.2629V34.3796H96.6653V33.2629H96.8989ZM92.5369 33.1462H96.7821V33.3795H92.5369V33.1462ZM92.6537 30.3812V33.2629H92.42V30.3812H92.6537ZM96.364 30.4979H92.5369V30.2645H96.364V30.4979ZM96.4809 29.2855V30.3812H96.2472V29.2855H96.4809ZM92.5369 29.1688H96.364V29.4021H92.5369V29.1688ZM92.6537 26.4038V29.2855H92.42V26.4038H92.6537ZM100.64 34.2629H101.842V34.4963H100.64V34.2629ZM100.757 26.4038V34.3796H100.523V26.4038H100.757ZM98.0363 26.2871H100.64V26.5205H98.0363V26.2871ZM98.1531 25.2872V26.4038H97.9194V25.2872H98.1531ZM104.448 25.4038H98.0363V25.1705H104.448V25.4038ZM104.331 26.4038V25.2872H104.565V26.4038H104.331ZM101.842 26.2871H104.448V26.5205H101.842V26.2871ZM101.725 34.3796V26.4038H101.959V34.3796H101.725ZM108.971 34.3796V25.2872H109.205V34.3796H108.971ZM110.288 34.4963H109.088V34.2629H110.288V34.4963ZM110.405 25.2872V34.3796H110.171V25.2872H110.405ZM109.088 25.1705H110.288V25.4038H109.088V25.1705ZM114.415 34.2629H115.607V34.4963H114.415V34.2629ZM114.531 26.4038V34.3796H114.298V26.4038H114.531ZM111.801 26.2871H114.415V26.5205H111.801V26.2871ZM111.918 25.2872V26.4038H111.684V25.2872H111.918ZM118.22 25.4038H111.801V25.1705H118.22V25.4038ZM118.103 26.4038V25.2872H118.337V26.4038H118.103ZM115.607 26.2871H118.22V26.5205H115.607V26.2871ZM115.49 34.3796V26.4038H115.723V34.3796H115.49ZM130.442 33.2921C129.499 34.2347 128.329 34.7046 126.94 34.7046V34.4713C128.27 34.4713 129.38 34.0238 130.276 33.1273L130.442 33.2921ZM131.851 29.8332C131.851 31.1959 131.383 32.3519 130.442 33.2921L130.276 33.1273C131.171 32.2323 131.617 31.1363 131.617 29.8332H131.851ZM130.434 26.3819C131.383 27.3294 131.851 28.4778 131.851 29.8332H131.617C131.617 28.5383 131.172 27.4496 130.269 26.5468L130.434 26.3819ZM126.94 24.9618C128.321 24.9618 129.491 25.432 130.434 26.3822L130.268 26.5465C129.372 25.6427 128.263 25.1951 126.94 25.1951V24.9618ZM123.431 26.3743C124.374 25.4317 125.544 24.9618 126.94 24.9618V25.1951C125.602 25.1951 124.493 25.6428 123.596 26.5392L123.431 26.3743ZM122.022 29.8332C122.022 28.4707 122.491 27.3146 123.431 26.3743L123.596 26.5392C122.701 27.4342 122.256 28.5303 122.256 29.8332H122.022ZM123.431 33.2921C122.491 32.3519 122.022 31.1959 122.022 29.8332H122.256C122.256 31.1363 122.701 32.2323 123.596 33.1273L123.431 33.2921ZM126.94 34.7046C125.544 34.7046 124.374 34.2347 123.431 33.2921L123.596 33.1273C124.493 34.0236 125.602 34.4713 126.94 34.4713V34.7046ZM124.484 32.3645C125.154 33.023 125.967 33.3528 126.94 33.3528V33.5861C125.907 33.5861 125.035 33.2335 124.321 32.5308L124.484 32.3645ZM123.479 29.8332C123.479 30.8648 123.818 31.7079 124.485 32.3646L124.32 32.5307C123.606 31.8261 123.245 30.9212 123.245 29.8332H123.479ZM124.485 27.3019C123.818 27.9586 123.479 28.8018 123.479 29.8332H123.245C123.245 28.7452 123.606 27.8404 124.32 27.1359L124.485 27.3019ZM126.94 26.3137C125.967 26.3137 125.154 26.6435 124.484 27.302L124.321 27.1358C125.035 26.4331 125.907 26.0804 126.94 26.0804V26.3137ZM129.388 27.3015C128.727 26.6437 127.907 26.3137 126.94 26.3137V26.0804C127.966 26.0804 128.846 26.433 129.553 27.1362L129.388 27.3015ZM130.394 29.8332C130.394 28.8018 130.054 27.9586 129.388 27.3019L129.553 27.1359C130.267 27.8404 130.628 28.7452 130.628 29.8332H130.394ZM129.388 32.3646C130.054 31.7079 130.394 30.8648 130.394 29.8332H130.628C130.628 30.9212 130.267 31.8261 129.553 32.5307L129.388 32.3646ZM126.94 33.3528C127.907 33.3528 128.727 33.0229 129.388 32.365L129.553 32.5303C128.846 33.2336 127.966 33.5861 126.94 33.5861V33.3528ZM133.537 25.2872V34.3796H133.303V25.2872H133.537ZM134.878 25.4038H133.42V25.1705H134.878V25.4038ZM139.315 32.4215L134.78 25.3501L134.977 25.2242L139.512 32.2957L139.315 32.4215ZM139.466 32.4752H139.413V32.2419H139.466V32.4752ZM139.53 30.6072L139.583 32.3551L139.349 32.3621L139.296 30.6142L139.53 30.6072ZM139.53 25.2872V30.6107H139.296V25.2872H139.53ZM140.613 25.4038H139.413V25.1705H140.613V25.4038ZM140.496 34.3796V25.2872H140.73V34.3796H140.496ZM139.361 34.2629H140.613V34.4963H139.361V34.2629ZM134.71 26.8965L139.46 34.3167L139.262 34.4424L134.514 27.0221L134.71 26.8965ZM134.559 26.8426H134.612V27.0759H134.559V26.8426ZM134.495 28.7183L134.443 26.9627L134.676 26.9557L134.729 28.7113L134.495 28.7183ZM134.495 34.3796V28.7148H134.729V34.3796H134.495ZM133.42 34.2629H134.612V34.4963H133.42V34.2629Z" fill="white"/>
<path d="M32.0765 26.1003C31.6195 26.5667 31.3551 27.2928 31.3551 28.2331V61.7742C31.3551 62.7145 31.6195 63.4407 32.0765 63.9071L32.1894 64.0094L51.469 45.2217V44.7781L32.1894 25.9904L32.0765 26.1003Z" fill="#01D7FF"/>
<path d="M58.0401 38.594L35.3124 26.0038C33.9745 25.272 32.798 25.361 32.0765 26.1005L51.4689 45L58.0401 38.594Z" fill="#01F076"/>
<path d="M57.8884 51.4876L51.469 45.2219V44.7782L57.8961 38.5125L58.0401 38.5941L65.6515 42.816C67.8238 44.0142 67.8238 45.9858 65.6515 47.1916L58.0401 51.406L57.8884 51.4876Z" fill="#FFCF01"/>
<path d="M58.0401 51.4059L51.4689 45L32.0765 63.9071C32.798 64.6464 33.9745 64.7356 35.3124 63.9963L58.0401 51.4059Z" fill="#FF3A44"/>
</g>
<defs>
<filter id="filter0_d" x="0" y="0" width="242" height="90" filterUnits="userSpaceOnUse" color-interpolation-filters="sRGB">
<feFlood flood-opacity="0" result="BackgroundImageFix"/>
<feColorMatrix in="SourceAlpha" type="matrix" values="0 0 0 0 0 0 0 0 0 0 0 0 0 0 0 0 0 0 127 0"/>
<feOffset/>
<feGaussianBlur stdDeviation="5"/>
<feColorMatrix type="matrix" values="0 0 0 0 1 0 0 0 0 1 0 0 0 0 1 0 0 0 0.25 0"/>
<feBlend mode="normal" in2="BackgroundImageFix" result="effect1_dropShadow"/>
<feBlend mode="normal" in="SourceGraphic" in2="effect1_dropShadow" result="shape"/>
</filter>
</defs>
</svg>
