<svg width="112" height="50" viewBox="0 0 112 50" fill="none" xmlns="http://www.w3.org/2000/svg">
<path d="M106.797 0H5.20622C2.0453 0.253511 0.307077 1.63374 0 4.15275V45.8462C0.302851 48.3622 2.03825 49.7374 5.17804 50H106.821C109.962 49.7374 111.696 48.3612 112 45.8462V4.15275C111.694 1.63374 109.955 0.253511 106.797 0Z" fill="#F7971D"/>
<path d="M74.9551 20.4951C73.7344 19.1679 72.0949 18.3158 70.3088 17.9241C69.7972 17.7906 69.2128 17.6954 68.5626 17.6669C66.201 17.4558 63.1674 18.3855 61.7572 19.5507L62.0993 10.0246H56.356V39.518H61.6914V37.8933C62.921 38.8681 64.8956 40 67.9034 40C68.0211 40 68.1328 39.999 68.2415 39.9971C68.3192 39.999 68.398 40 68.4758 40C70.9969 40 73.14 39.0144 74.9032 37.0432C76.6674 35.07 77.55 32.2624 77.55 28.6145C77.55 25.0864 76.6843 22.3809 74.9551 20.4951ZM70.3258 33.9352C69.4342 35.0013 68.3542 35.5334 67.0866 35.5334C65.4371 35.5334 64.1158 34.7824 63.1215 33.2804C62.4134 32.2212 62.0584 30.5857 62.0584 28.3721C62.0584 26.2261 62.5151 24.627 63.4276 23.5746C64.3411 22.5223 65.485 21.9951 66.8612 21.9951C68.2654 21.9951 69.4162 22.535 70.3158 23.6139C71.2143 24.6937 71.6651 26.4548 71.6651 28.8943C71.6651 31.1895 71.2183 32.8681 70.3258 33.9352ZM47.1004 27.1646C47.1004 30.2225 46.9578 32.1437 46.6715 32.929C46.3853 33.7134 45.8538 34.3711 45.0769 34.8992C44.301 35.4303 43.4215 35.6944 42.4411 35.6944C41.5825 35.6944 40.8734 35.4971 40.315 35.1014C39.7565 34.7058 39.3705 34.1688 39.1601 33.4915C38.9487 32.8141 38.844 30.9745 38.844 27.9686V18.1518H33.1017V31.6715C33.1017 33.6829 33.36 35.2585 33.8776 36.3992C34.3952 37.5389 35.2329 38.4244 36.3907 39.0546C37.5495 39.6849 38.857 40 40.315 40C40.5334 40 40.7498 39.9921 40.9642 39.9774C40.9742 39.9774 40.9752 39.9774 40.9811 39.9755C44.6361 39.8714 46.5399 38.2399 47.5093 37.1639V39.517H52.8426V18.1518H47.1004V27.1646ZM28.3617 20.2448C27.8232 19.4948 27.0234 18.8773 25.9613 18.3943C24.9999 17.9575 23.9338 17.7209 22.761 17.6787C22.7411 17.6777 22.7231 17.6757 22.7032 17.6747C20.2828 17.5481 17.1873 18.2431 15.7423 19.6116V10.0246H10V39.517H15.7423V28.8158C15.7423 27.0183 15.9168 25.6597 16.2638 24.7418C16.6119 23.822 17.1594 23.1348 17.9093 22.6783C18.6583 22.2238 19.509 21.9951 20.4643 21.9951C21.2941 21.9951 21.9872 22.1728 22.5377 22.5281C23.0891 22.8835 23.4751 23.3636 23.6925 23.9663C23.9099 24.571 24.0196 25.9915 24.0196 28.2307V39.517H29.7619V26.984C29.7619 25.0668 29.6621 23.6512 29.4647 22.7402C29.2682 21.8263 28.8992 20.9958 28.3617 20.2448Z" fill="black"/>
<path d="M99.4051 20.4706C98.1844 19.1433 96.5449 18.2912 94.7588 17.8996C94.2472 17.766 93.6628 17.6708 93.0126 17.6424C90.6511 17.4313 87.6174 18.3609 86.2072 19.5262L86.5493 10H80.806V39.4935H86.1414V37.8688C87.3711 38.8436 89.3457 39.9755 92.3534 39.9755C92.4711 39.9755 92.5828 39.9745 92.6915 39.9725C92.7693 39.9745 92.8481 39.9755 92.9258 39.9755C95.4469 39.9755 97.5901 38.9899 99.3532 37.0187C101.117 35.0455 102 32.2379 102 28.59C102 25.0619 101.134 22.3564 99.4051 20.4706ZM94.7758 33.9107C93.8842 34.9768 92.8042 35.5088 91.5367 35.5088C89.8872 35.5088 88.5658 34.7579 87.5715 33.2559C86.8635 32.1967 86.5084 30.5612 86.5084 28.3475C86.5084 26.2016 86.9652 24.6024 87.8777 23.5501C88.7912 22.4977 89.935 21.9706 91.3113 21.9706C92.7154 21.9706 93.8663 22.5105 94.7658 23.5893C95.6643 24.6692 96.1151 26.4303 96.1151 28.8698C96.1151 31.1649 95.6683 32.8436 94.7758 33.9107Z" fill="black"/>
</svg>
