<svg width="116" height="50" viewBox="0 0 116 50" fill="none" xmlns="http://www.w3.org/2000/svg">
<path d="M0 5C0 2.23858 2.23858 0 5 0H106.978C109.734 0 111.971 2.23101 111.978 4.98757L112 14V28V39.0371C112 39.6732 112.121 40.3034 112.358 40.894L114.886 47.2146C115.419 48.5487 114.437 50 113 50V50H5C2.23858 50 0 47.7614 0 45V24.5V5Z" fill="#0A090D"/>
<path d="M10 38.4597V11H16.0964V21.4697H27.6095V11H33.7259V38.4597H27.6095V26.2016H16.0964V38.4597H10Z" fill="white"/>
<path d="M42.7925 18.1537V30.3932C42.7925 31.5482 42.939 32.4176 43.2322 33.0013C43.7519 34.0322 44.7713 34.5476 46.2904 34.5476C48.2359 34.5476 49.5684 33.8148 50.288 32.3493C50.6611 31.5544 50.8477 30.505 50.8477 29.2009V18.1537H56.6242V38.4597H51.0875V35.5908C51.0342 35.6529 50.901 35.8392 50.6878 36.1497C50.4746 36.4602 50.2214 36.7334 49.9282 36.9694C49.0354 37.7146 48.1693 38.2238 47.3298 38.497C46.5036 38.7702 45.5308 38.9069 44.4115 38.9069C41.1868 38.9069 39.0147 37.8263 37.8954 35.6653C37.2691 34.4731 36.9559 32.7157 36.9559 30.3932V18.1537H42.7925Z" fill="white"/>
<path d="M71.8671 17.7066C74.7321 17.7066 76.9708 18.6691 78.5831 20.5941C80.2088 22.5192 81.0217 25.0031 81.0217 28.0459C81.0217 31.2005 80.2222 33.8148 78.6231 35.8889C77.0241 37.963 74.7921 39 71.9271 39C70.1282 39 68.6824 38.6647 67.5897 37.994C66.9367 37.5966 66.2305 36.9011 65.471 35.9075V38.4597H59.8943V11.0373H65.5709V20.7991C66.2905 19.8552 67.0833 19.1348 67.9495 18.6381C68.9755 18.0171 70.2814 17.7066 71.8671 17.7066ZM70.408 34.6221C71.8738 34.6221 73.0131 34.0694 73.826 32.9641C74.6388 31.8587 75.0452 30.4056 75.0452 28.6048C75.0452 27.1641 74.8454 25.9718 74.4456 25.0279C73.6861 23.2395 72.2869 22.3453 70.2481 22.3453C68.1827 22.3453 66.7635 23.2209 65.9906 24.9721C65.5909 25.9035 65.391 27.1082 65.391 28.5862C65.391 30.3249 65.8041 31.7656 66.6303 32.9082C67.4564 34.0508 68.7157 34.6221 70.408 34.6221Z" fill="white"/>
<path d="M94.8455 17.7066C97.7104 17.7066 99.9491 18.6691 101.561 20.5941C103.187 22.5192 104 25.0031 104 28.0459C104 31.2005 103.2 33.8148 101.601 35.8889C100.002 37.963 97.7704 39 94.9054 39C93.1065 39 91.6607 38.6647 90.568 37.994C89.9151 37.5966 89.2088 36.9011 88.4493 35.9075V38.4597H82.8726V11.0373H88.5492V20.7991C89.2688 19.8552 90.0616 19.1348 90.9278 18.6381C91.9538 18.0171 93.2597 17.7066 94.8455 17.7066ZM93.3863 34.6221C94.8521 34.6221 95.9914 34.0694 96.8043 32.9641C97.6171 31.8587 98.0236 30.4056 98.0236 28.6048C98.0236 27.1641 97.8237 25.9718 97.4239 25.0279C96.6644 23.2395 95.2652 22.3453 93.2264 22.3453C91.161 22.3453 89.7418 23.2209 88.969 24.9721C88.5692 25.9035 88.3693 27.1082 88.3693 28.5862C88.3693 30.3249 88.7824 31.7656 89.6086 32.9082C90.4347 34.0508 91.694 34.6221 93.3863 34.6221Z" fill="white"/>
</svg>
