<svg width="112" height="50" viewBox="0 0 112 50" fill="none" xmlns="http://www.w3.org/2000/svg">
<path d="M106.797 0H5.20622C2.0453 0.253511 0.307077 1.63374 0 4.15275V45.8462C0.302851 48.3622 2.03825 49.7374 5.17804 50H106.821C109.962 49.7374 111.696 48.3612 112 45.8462V4.15275C111.694 1.63374 109.955 0.253511 106.797 0Z" fill="#F7971D"/>
<path d="M9 38.4597V11H15.0964V21.4697H26.6095V11H32.7259V38.4597H26.6095V26.2016H15.0964V38.4597H9Z" fill="black"/>
<path d="M41.7925 18.1537V30.3932C41.7925 31.5482 41.939 32.4176 42.2322 33.0013C42.7519 34.0322 43.7713 34.5476 45.2904 34.5476C47.2359 34.5476 48.5684 33.8148 49.288 32.3493C49.6611 31.5544 49.8477 30.505 49.8477 29.2009V18.1537H55.6242V38.4597H50.0875V35.5908C50.0342 35.6529 49.901 35.8392 49.6878 36.1497C49.4746 36.4602 49.2214 36.7334 48.9282 36.9694C48.0354 37.7146 47.1693 38.2238 46.3298 38.497C45.5036 38.7702 44.5308 38.9069 43.4115 38.9069C40.1868 38.9069 38.0147 37.8263 36.8954 35.6653C36.2691 34.4731 35.9559 32.7157 35.9559 30.3932V18.1537H41.7925Z" fill="black"/>
<path d="M70.8671 17.7066C73.7321 17.7066 75.9708 18.6691 77.5831 20.5941C79.2088 22.5192 80.0217 25.0031 80.0217 28.0459C80.0217 31.2005 79.2222 33.8148 77.6231 35.8889C76.0241 37.963 73.7921 39 70.9271 39C69.1282 39 67.6824 38.6647 66.5897 37.994C65.9367 37.5966 65.2305 36.9011 64.471 35.9075V38.4597H58.8943V11.0373H64.5709V20.7991C65.2905 19.8552 66.0833 19.1348 66.9495 18.6381C67.9755 18.0171 69.2814 17.7066 70.8671 17.7066ZM69.408 34.6221C70.8738 34.6221 72.0131 34.0694 72.826 32.9641C73.6388 31.8587 74.0452 30.4056 74.0452 28.6048C74.0452 27.1641 73.8454 25.9718 73.4456 25.0279C72.6861 23.2395 71.2869 22.3453 69.2481 22.3453C67.1827 22.3453 65.7635 23.2209 64.9906 24.9721C64.5909 25.9035 64.391 27.1082 64.391 28.5862C64.391 30.3249 64.8041 31.7656 65.6303 32.9082C66.4564 34.0508 67.7157 34.6221 69.408 34.6221Z" fill="black"/>
<path d="M93.8455 17.7066C96.7104 17.7066 98.9491 18.6691 100.561 20.5941C102.187 22.5192 103 25.0031 103 28.0459C103 31.2005 102.2 33.8148 100.601 35.8889C99.0024 37.963 96.7704 39 93.9054 39C92.1065 39 90.6607 38.6647 89.568 37.994C88.9151 37.5966 88.2088 36.9011 87.4493 35.9075V38.4597H81.8726V11.0373H87.5492V20.7991C88.2688 19.8552 89.0616 19.1348 89.9278 18.6381C90.9538 18.0171 92.2597 17.7066 93.8455 17.7066ZM92.3863 34.6221C93.8521 34.6221 94.9914 34.0694 95.8043 32.9641C96.6171 31.8587 97.0236 30.4056 97.0236 28.6048C97.0236 27.1641 96.8237 25.9718 96.4239 25.0279C95.6644 23.2395 94.2652 22.3453 92.2264 22.3453C90.161 22.3453 88.7418 23.2209 87.969 24.9721C87.5692 25.9035 87.3693 27.1082 87.3693 28.5862C87.3693 30.3249 87.7824 31.7656 88.6086 32.9082C89.4347 34.0508 90.694 34.6221 92.3863 34.6221Z" fill="black"/>
</svg>
