<svg width="25" height="25" viewBox="0 0 25 25" fill="none" xmlns="http://www.w3.org/2000/svg">
<path d="M17.7383 0H7.2625C5.33697 0.00198542 3.49088 0.76776 2.12933 2.12931C0.767773 3.49087 0.00198542 5.33684 0 7.26237V17.7376C0.00198542 19.6632 0.767773 21.5091 2.12933 22.8707C3.49088 24.2322 5.33697 24.998 7.2625 25H17.7375C19.6629 24.998 21.5089 24.2325 22.8704 22.8711C24.2319 21.5097 24.9978 19.6638 25 17.7384V7.26237C24.998 5.33699 24.2323 3.49125 22.871 2.12972C21.5096 0.768191 19.6637 0.00220597 17.7383 0ZM23.0475 17.7376C23.046 19.1452 22.4861 20.4947 21.4908 21.4901C20.4954 22.4854 19.1459 23.0449 17.7383 23.0465H7.2625C5.85489 23.0449 4.50538 22.4854 3.51006 21.4901C2.51473 20.4947 1.95487 19.1452 1.95333 17.7376V7.26237C1.95487 5.85476 2.51473 4.50526 3.51006 3.50993C4.50538 2.5146 5.85489 1.95508 7.2625 1.95353H17.7375C19.1451 1.95508 20.4946 2.5146 21.4899 3.50993C22.4853 4.50526 23.0451 5.85476 23.0467 7.26237L23.0475 17.7376Z" fill="#0A090D"/>
<path d="M12.5001 5.76172C11.1673 5.76172 9.86455 6.15696 8.75644 6.89738C7.64833 7.6378 6.78466 8.6902 6.27465 9.92147C5.76464 11.1527 5.6312 12.5076 5.8912 13.8147C6.1512 15.1218 6.79296 16.3224 7.73533 17.2648C8.67771 18.2072 9.87837 18.8489 11.1855 19.1089C12.4926 19.3689 13.8474 19.2356 15.0787 18.7256C16.31 18.2156 17.3624 17.3516 18.1028 16.2435C18.8432 15.1354 19.2384 13.8327 19.2384 12.5C19.2353 10.7138 18.5244 9.00187 17.2614 7.73885C15.9984 6.47584 14.2862 5.7648 12.5001 5.76172ZM12.5001 17.2852C11.5537 17.2852 10.6285 17.0045 9.84166 16.4787C9.05477 15.9529 8.44146 15.2054 8.07929 14.3311C7.71713 13.4567 7.62237 12.4948 7.807 11.5666C7.99163 10.6384 8.44735 9.78581 9.11655 9.11662C9.78574 8.44742 10.6384 7.99143 11.5665 7.8068C12.4947 7.62217 13.4569 7.71726 14.3312 8.07943C15.2055 8.44159 15.9529 9.05483 16.4786 9.84172C17.0044 10.6286 17.2851 11.5536 17.2851 12.5C17.2835 13.7686 16.7789 14.9847 15.8819 15.8818C14.9848 16.7788 13.7686 17.2836 12.5001 17.2852Z" fill="#0A090D"/>
<path d="M19.3358 6.64083C19.8752 6.64083 20.3125 6.20357 20.3125 5.66417C20.3125 5.12477 19.8752 4.6875 19.3358 4.6875C18.7964 4.6875 18.3591 5.12477 18.3591 5.66417C18.3591 6.20357 18.7964 6.64083 19.3358 6.64083Z" fill="#0A090D"/>
</svg>
