<svg width="25" height="25" viewBox="0 0 25 25" fill="none" xmlns="http://www.w3.org/2000/svg">
<path d="M25 4.75028C24.0642 5.16511 23.0715 5.43709 22.055 5.55757C23.1246 4.91709 23.9255 3.91047 24.3092 2.72432C23.3012 3.31998 22.1994 3.73989 21.0508 3.96659C20.2778 3.1443 19.2554 2.6001 18.1416 2.41752C17.0279 2.23493 15.8851 2.42424 14.89 2.95666C13.8949 3.48909 13.103 4.33482 12.6369 5.36267C12.1708 6.39052 12.0565 7.54333 12.3117 8.6427C10.2726 8.54043 8.27774 8.01039 6.45674 7.08711C4.63575 6.16384 3.02929 4.86785 1.74166 3.2834C1.08594 4.41198 0.884675 5.7479 1.17879 7.01957C1.47291 8.29124 2.24034 9.40306 3.325 10.1291C2.51045 10.1023 1.714 9.88178 1.00166 9.4858V9.55009C1.00208 10.7342 1.41182 11.8818 2.16146 12.7984C2.9111 13.7149 3.95454 14.3441 5.115 14.5794C4.67431 14.6985 4.21985 14.7589 3.76334 14.7592C3.4408 14.76 3.11898 14.7291 2.80251 14.6669C3.13024 15.6854 3.76816 16.576 4.62704 17.2141C5.48591 17.8521 6.52275 18.2056 7.59249 18.2252C5.77547 19.6497 3.53216 20.4215 1.22334 20.4168C0.814552 20.4161 0.406127 20.3925 0 20.346C2.344 21.8548 5.07322 22.656 7.86083 22.6535C17.295 22.6535 22.4517 14.8391 22.4517 8.06246L22.4342 7.39595C23.4424 6.67644 24.3118 5.78014 25 4.75028Z" fill="#0A090D"/>
</svg>
