<svg width="25" height="25" viewBox="0 0 25 25" fill="none" xmlns="http://www.w3.org/2000/svg">
<path d="M18.75 0.00488281L15.5075 0C11.865 0 9.50749 2.41651 9.50749 6.15234V8.986H6.24999C6.11473 8.986 5.985 9.03969 5.88936 9.13533C5.79372 9.23098 5.73999 9.36059 5.73999 9.49585V13.606C5.73999 13.7412 5.79372 13.8708 5.88936 13.9665C5.985 14.0621 6.11473 14.1158 6.24999 14.1158H9.50999V24.4902C9.50999 24.6254 9.56372 24.755 9.65936 24.8507C9.75501 24.9463 9.88473 25 10.02 25H14.27C14.4052 25 14.535 24.9463 14.6306 24.8507C14.7263 24.755 14.78 24.6254 14.78 24.4902V14.1191H18.5917C18.7269 14.1191 18.8566 14.0654 18.9523 13.9697C19.0479 13.8741 19.1017 13.7445 19.1017 13.6092V9.4991C19.1017 9.36384 19.0479 9.23423 18.9523 9.13859C18.8566 9.04295 18.7269 8.98926 18.5917 8.98926H14.7833V6.58325C14.7833 5.42742 15.0592 4.8409 16.5642 4.8409H18.75C18.8845 4.84046 19.0134 4.78662 19.1087 4.69157C19.2039 4.59651 19.2577 4.46803 19.2583 4.3335V0.515137C19.2583 0.380165 19.2048 0.250625 19.1095 0.155029C19.0143 0.0594335 18.885 0.0053239 18.75 0.00488281Z" fill="#0A090D"/>
</svg>
