<svg width="25" height="25" viewBox="0 0 25 25" fill="none" xmlns="http://www.w3.org/2000/svg">
<g clip-path="url(#clip0)">
<path d="M5.81911 8.04238H0.800776C0.693805 8.04238 0.591229 8.08515 0.515589 8.16079C0.43995 8.23643 0.397435 8.33865 0.397435 8.44562V24.5691C0.397435 24.622 0.407887 24.6748 0.428156 24.7237C0.448426 24.7726 0.478136 24.8169 0.515589 24.8543C0.553042 24.8918 0.597499 24.9215 0.646433 24.9418C0.695368 24.9621 0.747809 24.9723 0.800776 24.9723H5.81911C5.87208 24.9723 5.92452 24.9621 5.97345 24.9418C6.02239 24.9215 6.06685 24.8918 6.1043 24.8543C6.14175 24.8169 6.17146 24.7726 6.19173 24.7237C6.212 24.6748 6.22245 24.622 6.22245 24.5691V8.44562C6.22245 8.33865 6.17994 8.23643 6.1043 8.16079C6.02866 8.08515 5.92608 8.04238 5.81911 8.04238ZM3.31161 0.0276489C2.65698 0.0276493 2.01706 0.221747 1.4728 0.58551C0.928537 0.949274 0.504393 1.46624 0.254028 2.07111C0.00366335 2.67597 -0.0616866 3.34153 0.0662687 3.98354C0.194224 4.62555 0.509741 5.21521 0.97287 5.67788C1.436 6.14054 2.02594 6.45552 2.66807 6.58282C3.31021 6.71013 3.97566 6.64378 4.58028 6.3928C5.18489 6.14183 5.70149 5.71713 6.0647 5.17251C6.42792 4.62788 6.62144 3.98795 6.62078 3.33331C6.6188 2.45658 6.26941 1.61652 5.64915 0.996887C5.0289 0.377257 4.18834 0.0287492 3.31161 0.0276489ZM18.5833 7.64158C17.7597 7.62478 16.9417 7.78096 16.1821 8.09975C15.4225 8.41854 14.7382 8.89303 14.1733 9.49257V8.44562C14.1733 8.33865 14.1308 8.23643 14.0551 8.16079C13.9795 8.08515 13.8769 8.04238 13.7699 8.04238H8.96578C8.85881 8.04238 8.75621 8.08515 8.68057 8.16079C8.60493 8.23643 8.56244 8.33865 8.56244 8.44562V24.5691C8.56244 24.676 8.60493 24.7787 8.68057 24.8543C8.75621 24.9299 8.85881 24.9723 8.96578 24.9723H13.9733C14.0803 24.9723 14.1828 24.9299 14.2585 24.8543C14.3341 24.7787 14.3766 24.676 14.3766 24.5691V16.5918C14.3766 13.9034 15.1066 12.8568 16.9808 12.8568C19.0216 12.8568 19.1841 14.536 19.1841 16.7301V24.5691C19.1841 24.676 19.2266 24.7787 19.3022 24.8543C19.3779 24.9299 19.4805 24.9723 19.5875 24.9723H24.5974C24.7043 24.9721 24.8066 24.9295 24.8821 24.8539C24.9576 24.7783 24.9999 24.6759 24.9999 24.5691V15.7251C24.9999 11.7284 24.2374 7.64158 18.5833 7.64158Z" fill="#0A090D"/>
</g>
<defs>
<clipPath id="clip0">
<rect width="25" height="25" fill="white"/>
</clipPath>
</defs>
</svg>
