<svg width="128" height="121" viewBox="0 0 128 121" fill="none" xmlns="http://www.w3.org/2000/svg">
<path d="M64.8362 21.6853C64.3833 19.9761 63.6 18.3735 62.5311 16.9694C61.4622 15.5653 60.1287 14.3872 58.607 13.5026C57.0854 12.618 55.4053 12.0443 53.6631 11.8142C51.9209 11.5842 50.1507 11.7023 48.4539 12.1619L9.97861 22.5429C8.27413 22.9936 6.67491 23.779 5.27283 24.8539C3.87075 25.9288 2.69345 27.272 1.80857 28.8064C0.923684 30.3408 0.348666 32.0361 0.116545 33.7949C-0.115575 35.5537 -0.000224531 37.3414 0.455976 39.0552C0.912176 40.769 1.70023 42.3751 2.77486 43.7813C3.8495 45.1876 5.18952 46.3661 6.71796 47.2494C8.24639 48.1326 9.93309 48.703 11.6812 48.9279C13.4293 49.1528 15.2042 49.0278 16.9042 48.5599L55.3795 38.1789C58.8035 37.2503 61.7218 34.9924 63.4946 31.9005C65.2674 28.8085 65.7499 25.1349 64.8362 21.6853ZM95.4277 26.9014C96.5999 26.9002 97.7669 26.7445 98.899 26.4385C102.174 25.5505 104.99 23.4418 106.778 20.5401C108.565 17.6385 109.19 14.161 108.525 10.8128C107.86 7.46468 105.955 4.49651 103.196 2.51021C100.438 0.523916 97.0321 -0.331834 93.6701 0.116495C90.3081 0.564825 87.2412 2.28367 85.0914 4.92449C82.9417 7.56531 81.8699 10.9304 82.0935 14.3374C82.317 17.7445 83.8192 20.9384 86.2954 23.2715C88.7715 25.6046 92.0363 26.9023 95.4277 26.9014ZM127.05 80.5275C126.055 78.0257 124.339 75.8805 122.124 74.3672C119.909 72.854 117.295 72.0417 114.618 72.0347C114.04 72.0365 113.463 72.0772 112.89 72.1565C110.362 72.4837 107.98 73.5343 106.026 75.1837C104.073 76.8331 102.631 79.012 101.871 81.4618C101.674 82.1109 101.276 82.6796 100.735 83.0848C100.194 83.49 99.5392 83.7105 98.8651 83.7142C98.1081 83.7133 97.3795 83.4234 96.8264 82.9029C95.171 81.3482 93.1495 80.2438 90.9525 79.6939C88.7556 79.1441 86.4557 79.1668 84.2699 79.7601L30.1467 94.3571C22.8981 96.3122 18.3367 103.605 19.9834 110.613C20.3916 112.37 21.1465 114.026 22.2033 115.483C23.2602 116.939 24.5973 118.167 26.1351 119.093C27.6729 120.019 29.38 120.624 31.1548 120.872C32.9296 121.12 34.7359 121.006 36.4661 120.537L91.1967 105.773C93.3859 105.188 95.3906 104.05 97.0209 102.467C98.6511 100.884 99.8531 98.9079 100.513 96.7263C100.668 96.2293 100.945 95.7796 101.319 95.4191C101.693 95.0586 102.151 94.7989 102.65 94.6641C103.15 94.5293 103.676 94.5236 104.179 94.6478C104.681 94.7719 105.145 95.0218 105.526 95.3742C107.995 97.6916 111.245 98.9805 114.621 98.9811C116.805 98.9803 118.956 98.4412 120.886 97.4108C122.816 96.3803 124.467 94.8899 125.693 93.0696C126.919 91.2494 127.684 89.1546 127.921 86.9681C128.158 84.7817 127.86 82.57 127.053 80.5263L127.05 80.5275ZM23.468 85.2174C20.0685 85.2193 16.7956 83.9194 14.3131 81.5813C11.8306 79.2432 10.3242 76.042 10.0996 72.627C9.87501 69.2119 10.949 65.8387 13.1036 63.1915C15.2583 60.5442 18.3323 58.8212 21.7023 58.3718C25.0723 57.9224 28.4859 58.7803 31.2508 60.7715C34.0157 62.7627 35.9248 65.7382 36.591 69.0943C37.2572 72.4505 36.6306 75.9361 34.8382 78.8443C33.0458 81.7524 30.2219 83.8653 26.9392 84.7545C25.8072 85.0611 24.6402 85.2167 23.468 85.2174ZM57.025 76.1654C53.7797 76.1636 50.6456 74.9742 48.2067 72.8188C45.7677 70.6633 44.1902 67.6887 43.7679 64.4491C43.3456 61.2095 44.1073 57.9258 45.9112 55.2097C47.7151 52.4936 50.4382 50.5303 53.5731 49.6855L101.636 36.7196C103.333 36.2619 105.102 36.1452 106.844 36.3762C108.586 36.6071 110.265 37.1812 111.786 38.0656C114.859 39.8517 117.101 42.7934 118.019 46.2436C118.473 47.952 118.589 49.7338 118.36 51.4873C118.13 53.2408 117.56 54.9316 116.682 56.4632C115.803 57.9949 114.634 59.3373 113.24 60.4139C111.847 61.4905 110.256 62.2802 108.559 62.7378L60.495 75.7037C59.3634 76.0102 58.1968 76.1658 57.025 76.1666V76.1654Z" fill="white"/>
</svg>
