<svg xmlns="http://www.w3.org/2000/svg" width="150" height="150"><defs><clipPath id="a"><path transform="translate(635.5 1501)" fill="#fff" stroke="#707070" d="M0 0h150v150H0z"/></clipPath></defs><g transform="translate(-635.5 -1501)" clip-path="url(#a)"><g transform="translate(643.885 1504.364)"><path d="M111.336 56.286c-.207-4.56.415-8.6-1.658-12.022-4.975-8.5-17.412-13.473-42.286-13.473v.725-.725c-24.874 0-37.933 4.975-42.907 13.577-1.969 3.524-1.762 7.462-2.073 12.022-.207 3.627-1.866 7.462-1.14 11.608.829 5.389 1.14 10.779 1.969 15.753.622 4.042 6.218 7.462 6.737 11.3 1.451 10.571 12.437 15.443 37.311 15.443v.829h.1v-.829c24.874 0 35.445-4.871 36.793-15.443.518-3.938 5.7-7.255 6.322-11.3.829-4.975 1.14-10.364 1.969-15.753.725-4.146-.933-8.084-1.14-11.711z" fill="#efcca3"/><path d="M66.974 60.017c4.457.1 7.566 2.9 10.468 5.493 3.42 3.006 9.224 5.078 11.608 7.669s5.493 5.182 6.633 9.224a47.934 47.934 0 0 1 1.451 10.571c0 1.347.725 1.036 2.8 0 4.871-2.384 10.26-8.809 10.26-8.809-.622 4.042-5.908 7.669-6.426 11.5-1.244 10.571-11.5 15.65-36.9 15.65h.518" fill="#ccac8d"/><path d="M83.353 51.933c.933 3.213 4.249 14.1-2.176 10.468 0 0 2.695 1.555 4.353 7.462 1.762 5.908 6.011 6.633 6.011 6.633s6.944 1.347 12.126-3.109c4.353-3.731 5.078-10.364 3.213-15.443-1.866-4.975-5.182-6.529-10.053-7.566-4.872-1.14-14.615-2.072-13.474 1.555z" fill="#ccac8d"/><circle cx="9.12" cy="9.12" r="9.12" transform="translate(86.566 54.628)"/><circle cx="2.384" cy="2.384" r="2.384" transform="translate(90.919 57.323)" fill="#fff"/><path d="M81.798 63.334s8.188 5.6 12.644 11.09 4.353 6.529 4.353 6.529l-3.213 1.451s-4.56-8.6-10.157-11.815c-5.7-3.213-6.322-5.908-6.322-5.908l2.695-1.347z" fill="#efcca3"/><path d="M67.289 60.017c-4.457.1-7.773 2.9-10.779 5.493-3.42 3.006-9.431 5.078-11.815 7.669s-5.6 5.182-6.737 9.224a49.824 49.824 0 0 0-1.555 10.572c0 1.347.207 1.451-2.8 0-4.871-2.28-10.26-8.809-10.26-8.809.622 4.042 5.908 7.669 6.426 11.5 1.451 10.571 11.711 15.65 37.1 15.65h.518" fill="#ccac8d"/><path d="M91.333 77.533c-4.977-6.115-12.955-11.816-24.045-11.816h-.1c-11.09 0-19.07 5.7-24.045 11.815-5.182 6.322-4.767 8.81-4.767 14.821 0 21.765 7.669 15.546 12.748 18.241 5.182 2.591 10.571 1.762 16.064 1.762h.1c5.6 0 10.882.725 16.064-1.866 5.078-2.591 12.748 3.835 12.748-17.93.1-6.011.415-8.706-4.767-15.028z" fill="#56332b"/><path d="M66.77 71.107s-.725 10.053-2.176 12.022l2.695-.622z" fill="#442823"/><path d="M67.496 71.107s.725 10.053 2.176 12.022l-2.695-.622z" fill="#442823"/><path d="M58.79 68.723c-1.036-2.384 2.695-6.218 8.6-6.322 5.908 0 9.639 3.835 8.6 6.322s-4.767 3.213-8.6 3.317c-3.731-.1-7.566-.829-8.6-3.317z" fill="#56332b"/><path d="M67.392 71.107c0-.415 3.524-.518 5.389-1.762 0 0-3.835 1.244-4.664.725a2.5 2.5 0 0 1-1.036-1.658 3.389 3.389 0 0 1-.933 1.658c-.725.415-5.078-.725-5.078-.725s5.8 1.451 5.8 1.762-.1 1.347-.1 2.073c0 2.591 0 9.017.415 9.535.622.933.415-6.944.415-9.535-.105-.829-.105-1.656-.208-2.073z"/><path d="M67.599 84.994c1.762 0 4.871 1.244 7.669 3.213-2.695-3.006-5.908-5.078-7.669-5.078-1.866 0-5.8 2.28-8.6 5.6 2.9-2.284 6.631-3.735 8.6-3.735z" fill="#7f4a41"/><path d="M66.874 103.34c-3.938 0-7.773-1.244-11.3-2.176-.725-.207-1.451.311-2.176.1-6.529-2.073-11.815-5.6-15.028-10.053v1.039c0 21.765 7.669 15.65 12.748 18.241 5.182 2.591 10.571 1.762 16.064 1.762h.1c5.6 0 10.882.725 16.064-1.866 5.078-2.591 12.748 3.731 12.748-18.034a17.569 17.569 0 0 1 .1-2.384c-3.006 4.871-8.5 8.706-15.339 10.986-.622.207-2.073-.311-2.695-.207-3.731 1.244-7.048 2.591-11.3 2.591z" fill="#442823"/><path d="M57.028 91.628s-2.591 7.773-.829 11.193l-2.384-1.036s1.762-7.877 3.213-10.157zm20.521 0s2.591 7.773.829 11.193l2.384-1.036s-1.866-7.877-3.213-10.157z" fill="#442823"/><path d="M50.395 51.933c-.933 3.213-4.249 14.1 2.176 10.468 0 0-2.695 1.555-4.353 7.462s-6.011 6.63-6.011 6.63-6.944 1.35-12.126-3.106c-4.353-3.731-5.078-10.364-3.21-15.443s5.182-6.529 10.053-7.566c4.871-1.14 14.51-2.073 13.473 1.555z" fill="#ccac8d"/><path d="M67.289 83.129c2.8 0 11.5 6.011 11.608 13.37v-.415c0-7.669-7.048-13.784-11.608-13.784s-11.608 6.218-11.608 13.784v.415c.103-7.358 8.809-13.37 11.608-13.37z"/><ellipse cx=".829" cy="1.555" rx=".829" ry="1.555" transform="rotate(-14.53 293.89 -234.266)" fill="#331712"/><ellipse cx=".829" cy="1.555" rx=".829" ry="1.555" transform="rotate(17.235 -184.088 245.093)" fill="#331712"/><circle cx="9.12" cy="9.12" r="9.12" transform="translate(29.459 54.628)"/><circle cx="2.384" cy="2.384" r="2.384" transform="translate(38.58 57.323)" fill="#fff"/><path d="M69.983 63.852c0-.1-2.384 1.036-3.006 1.14-.622-.1-3.006-1.244-3.006-1.14z" fill="#7f4a41"/><path d="M51.846 63.334s-8.188 5.6-12.644 11.09-4.353 6.529-4.353 6.529l3.213 1.451s4.56-8.6 10.157-11.815 6.322-5.907 6.322-5.907z" fill="#efcca3"/><path d="M33.916 46.751s-2.8 7.669-9.017 10.882c.002 0 9.742-1.14 9.017-10.882zm65.4 0s2.8 7.669 9.017 10.882c-.003 0-9.745-1.14-9.02-10.882zm-17.723 14.3s-6.115-6.426-14.3-6.633h.207c-8.291.207-14.3 6.633-14.3 6.633 7.151-4.975 13.266-4.871 14.3-4.871a26.631 26.631 0 0 1 14.1 4.871zM74.439 47.58s-3.109-4.353-7.255-4.457h.207c-3.109.1-7.151 4.457-7.151 4.457a10.743 10.743 0 0 1 7.151-3.317s3.421-.103 7.048 3.317zm-35.86 31.821s-4.871 2.384-8.395.933h-.1c-3.109-1.762-4.664-7.048-4.664-7.048s3.106 9.325 13.159 6.115zm56.8 0s4.871 2.384 8.395.933c4.146-1.762 4.767-7.048 4.767-7.048s-3.113 9.325-13.166 6.115z" fill="#ccac8d"/><path d="M44.174 46.233a23.769 23.769 0 0 1 10.675.518c4.457 1.555.829 7.255 1.762 7.566s2.176-3.938 10.468-3.524c8.395.415 9.328 4.146 10.468 3.524s-1.14-10.364 11.4-8.084c0 0-13.162-3.524-12.541 6.011 0 0-7.566-5.8-18.137-.622.105.001 2.805-8.913-14.095-5.389zm45.913 0c.207 0 .311.1.415.1s-.102-.1-.413-.1zm.002 0zM40.548 33.485S29.355 47.581 27.697 52.97c-1.658 5.493-2.9 27.983-4.353 31.2l-5.182-22.183 9.535-23.112 12.851-5.389zm52.65 0s11.193 14.1 12.852 19.485c1.658 5.493 2.9 27.983 4.353 31.2l5.182-22.179-9.535-23.112-12.852-5.394z" fill="#ccac8d"/><path d="M92.681 33.485s12.022 10.053 15.546 21.661 2.073 25.7 4.767 27.465c3.835 2.487 8.188-12.333 9.639-13.888 2.28-2.487 9.846-8.809 10.364-9.95s-15.339-18.448-22.283-21.868c-8.395-3.938-18.759-4.249-18.034-3.42z" fill="#56332b"/><path d="M102.941 39.704s14.198 18.141 13.991 40.731l5.7-11.608a85.189 85.189 0 0 0-19.692-29.123z" fill="#442823"/><path d="M40.549 33.485S28.527 43.538 25 55.146s-2.073 25.7-4.767 27.465C16.4 85.099 12.048 70.278 10.6 68.723 8.317 66.236.751 59.913.233 58.773s15.338-18.448 22.282-21.868c8.395-3.938 18.759-4.249 18.034-3.42z" fill="#56332b"/><path d="M30.289 39.704S16.09 57.845 16.297 80.435l-5.6-11.608s4.978-14.821 19.592-29.123z" fill="#442823"/><path d="M22.619 80.849s1.036 5.6 2.695 7.359.518-1.347.518-1.347-1.762-.933-1.451-8.084-1.762 2.073-1.762 2.073zm88.406 0s-1.036 5.6-2.695 7.359-.518-1.347-.518-1.347 1.762-.933 1.451-8.084 1.762 2.073 1.762 2.073z" fill="#ccac8d"/><g transform="translate(49.358 75.771)" fill="#442823"><circle cx=".829" cy=".829" r=".829" transform="translate(6.322)"/><circle cx=".829" cy=".829" r=".829" transform="translate(1.555 4.975)"/><circle cx=".829" cy=".829" r=".829"/></g><g transform="translate(75.891 75.771)" fill="#442823"><circle cx=".829" cy=".829" r=".829"/><circle cx=".829" cy=".829" r=".829" transform="translate(4.767 4.975)"/><circle cx=".829" cy=".829" r=".829" transform="translate(6.322)"/></g></g></g></svg>