<svg xmlns="http://www.w3.org/2000/svg" width="150" height="150"><defs><clipPath id="a"><path transform="translate(801.5 1501)" fill="#fff" stroke="#707070" d="M0 0h150v150H0z"/></clipPath></defs><g transform="translate(-801.5 -1501)" clip-path="url(#a)"><path d="M920.483 1582.782a25.111 25.111 0 0 0-11.047 2.572c-1.143-2.262-2.286-4.238-2.476-5.714a15.8 15.8 0 0 1-.214-4.809 38.536 38.536 0 0 1 1.452-5.19c-.024-.214-.262-1.262-2.714-1.286s-4.571.476-4.809 1.119a27.343 27.343 0 0 0-1.024 3.643c-.429 2.238-4.9 10.166-7.452 14.332a14.622 14.622 0 0 1-1.691-4.19 15.8 15.8 0 0 1-.217-4.811 38.557 38.557 0 0 1 1.452-5.19c-.024-.214-.262-1.262-2.714-1.286s-4.571.476-4.809 1.119-.5 2.167-1.024 3.643c-.5 1.476-6.452 14.713-8 18.166-.786 1.762-1.476 3.166-1.976 4.119s-.024.071-.071.167c-.429.809-.667 1.262-.667 1.262v.024c-.333.6-.69 1.166-.857 1.166a7.94 7.94 0 0 1 .048-3.785c.881-4.6 3.024-11.761 3-12.023 0-.119.4-1.381-1.381-2.024a2.17 2.17 0 0 0-2.5.429c-.143 0-.262.381-.262.381s1.928-8.071-3.69-8.071c-3.524 0-8.38 3.833-10.785 7.333-1.524.833-4.762 2.595-8.19 4.476-1.309.714-2.667 1.476-3.952 2.167l-.262-.286c-6.809-7.261-19.4-12.4-18.88-22.165.19-3.547 1.428-12.9 24.189-24.237 18.646-9.285 33.573-6.739 36.168-1.073 3.69 8.095-7.976 23.141-27.355 25.308-7.381.833-11.261-2.024-12.237-3.1-1.024-1.119-1.167-1.167-1.548-.952-.619.333-.238 1.333 0 1.928.571 1.5 2.952 4.166 7 5.5 3.547 1.167 12.214 1.809 22.689-2.238 11.737-4.542 20.903-17.158 18.214-27.707-2.739-10.738-20.548-14.261-37.38-8.286-10.02 3.572-20.88 9.143-28.689 16.452-9.285 8.666-10.761 16.237-10.142 19.383 2.167 11.21 17.618 18.519 23.811 23.924-.31.166-.6.333-.857.476-3.1 1.523-14.88 7.69-17.832 14.213-3.333 7.381.524 12.69 3.1 13.4 7.952 2.214 16.094-1.762 20.5-8.309 4.38-6.547 3.857-15.047 1.833-18.927l-.072-.143 2.428-1.428a144.612 144.612 0 0 1 4.476-2.524 29.643 29.643 0 0 0-1.595 8.095c-.333 4.19 1.381 9.618 3.643 11.761a4.03 4.03 0 0 0 2.928.952c2.619 0 3.809-2.167 5.119-4.762 1.61-3.162 3.039-6.828 3.039-6.828s-1.786 9.928 3.1 9.928c1.786 0 3.571-2.309 4.381-3.5v.024s.048-.071.143-.238q.15-.222.286-.452v-.048c.714-1.238 2.309-4.071 4.69-8.761 3.071-6.047 6.023-13.618 6.023-13.618a43.455 43.455 0 0 0 1.167 4.9 46.932 46.932 0 0 0 2.547 5.714c-.714 1-1.143 1.572-1.143 1.572l.024.024a66.41 66.41 0 0 1-1.881 2.381c-2.428 2.9-5.333 6.214-5.714 7.166a1.962 1.962 0 0 0 .524 2.619 4.766 4.766 0 0 0 3 .476 13.363 13.363 0 0 0 4.476-1.024 15.5 15.5 0 0 0 3.857-2.024 8.587 8.587 0 0 0 3.69-7.595 15.27 15.27 0 0 0-1.4-5.357c.214-.31.429-.619.643-.952a100.5 100.5 0 0 0 6.666-11.547 43.455 43.455 0 0 0 1.167 4.9 34.384 34.384 0 0 0 2.167 4.9 21.166 21.166 0 0 0-6.5 8.4c-1.4 4.047-.31 5.881 1.762 6.309a6.338 6.338 0 0 0 3.261-.667 14.78 14.78 0 0 0 4.119-2.119c2.381-1.762 4.666-4.214 4.547-7.523a14.423 14.423 0 0 0-1.024-4.452 23.194 23.194 0 0 1 11.799-1.336c10.595 1.238 12.69 7.857 12.285 10.618a7.112 7.112 0 0 1-3.357 4.762c-.738.452-.976.619-.9.952.1.5.429.476 1.071.381a8.241 8.241 0 0 0 5.762-7.356c.286-6.548-5.928-13.691-16.951-13.619zm-81.709 27.546c-3.5 3.833-8.428 5.285-10.523 4.047-2.26-1.309-1.382-6.952 2.928-11.027a56.019 56.019 0 0 1 8.261-6.166c.5-.31 1.262-.762 2.167-1.309a2.537 2.537 0 0 1 .238-.143c.167-.1.357-.214.548-.333a15.186 15.186 0 0 1-3.619 14.931zm25.594-17.4c-1.214 2.976-3.785 10.618-5.333 10.19-1.333-.357-2.143-6.142-.262-11.856a26.469 26.469 0 0 1 4.166-7.643c1.929-2.143 4.024-2.857 4.548-1.976.618 1.139-2.358 9.424-3.12 11.281zm21.117 10.091c-.524.262-1 .452-1.214.31-.167-.1.214-.452.214-.452s2.643-2.833 3.69-4.143c.6-.762 1.309-1.643 2.071-2.643v.286c0 3.428-3.285 5.714-4.761 6.642zm16.284-3.714c-.381-.286-.333-1.167.952-3.928a14.72 14.72 0 0 1 3.619-4.666 5.889 5.889 0 0 1 .357 2.047c-.023 4.285-3.07 5.88-4.927 6.547z" fill="#cf649a"/></g></svg>