<svg width="1500" height="600" viewBox="0 0 1500 600" fill="none" xmlns="http://www.w3.org/2000/svg">
<path opacity="0.3" fill-rule="evenodd" clip-rule="evenodd" d="M701.569 251.222L664.427 210.401C664.025 209.942 663.304 209.16 662.266 208.054L663.238 207.897L665.393 210.261C674.842 220.777 680.824 227.418 683.339 230.181C685.078 232.094 693.601 241.453 702.445 251.094L701.569 251.222ZM720.198 249.22L718.23 243.614L719.13 243.563C719.775 245.386 720.445 247.267 721.116 249.158L720.198 249.22ZM745.702 248.607L746.245 245.499L747.163 245.519C746.988 246.547 746.807 247.588 746.632 248.629L745.702 248.607ZM820.808 262.669L826.44 260.738L827.297 261.134L821.707 263.065C821.411 262.928 821.11 262.797 820.808 262.669ZM842.901 276.674L848.262 275.899L890.982 269.708L891.525 270.22C872.335 272.997 854.865 275.532 843.414 277.171C843.233 277.002 843.07 276.831 842.901 276.662V276.674ZM847.863 302.751L884.933 306.204L978.764 314.95L978.269 315.464C923.79 310.394 865.055 304.92 861.288 304.533C859.526 304.352 854.389 303.862 847.585 303.222C847.682 303.058 847.772 302.901 847.863 302.744V302.751ZM841.054 310.961L843.668 311.444L843.233 311.9L840.559 311.396C840.722 311.239 840.879 311.096 841.054 310.947V310.961ZM827.913 319.827L833.038 321.377L832.259 321.761C830.78 321.31 829.066 320.796 827.17 320.211C827.424 320.073 827.671 319.94 827.913 319.813V319.827ZM797.169 330.896L807.6 337.557L806.779 337.755C803.658 335.756 799.819 333.308 796.342 331.094L797.169 330.896ZM778.528 334.518C786.376 343.135 794.537 352.052 794.537 352.052L817.409 377.106L816.395 377.26C803.628 363.297 789.158 347.45 788.331 346.458C787.438 345.388 782.06 339.496 777.623 334.65L778.528 334.518ZM752.143 337.026L752.831 338.975L751.883 339.021C751.648 338.362 751.413 337.707 751.189 337.067L752.143 337.026ZM711.584 335.879C709.882 338.794 708.276 341.554 706.851 343.997L705.608 343.893C706.495 342.445 708.3 339.381 710.437 335.754L711.584 335.879ZM669.51 327.329C653.815 335.628 640.867 342.476 640.867 342.476C640.867 342.476 592.629 367.969 560.021 385.214L558.976 384.883C596.607 364.975 651.334 336.015 654.352 334.51C655.952 333.701 661.705 330.678 668.635 327.025L669.51 327.329ZM653.857 321.09C634.963 327.629 619.679 332.922 619.679 332.922L569.317 350.362L568.429 349.942C603.073 337.941 634.486 327.069 636.955 326.253C638.808 325.639 645.195 323.442 653.097 320.699C653.362 320.841 653.616 320.967 653.875 321.09H653.857ZM634.601 307.298C603.543 311.767 551.901 319.253 551.901 319.253L447.845 334.259L447.489 333.849L448.092 333.759C461.711 331.794 590.396 313.144 594.012 312.622L634.184 306.793C634.335 306.962 634.474 307.134 634.619 307.298H634.601ZM629.41 298.14C607.153 299.347 571.9 301.307 552.433 302.387L552.282 301.904L583.013 300.197L629.265 297.616C629.325 297.785 629.379 297.958 629.428 298.14H629.41ZM631.408 283.051C609.954 281.032 573.796 277.659 548.412 275.293L548.666 274.81L572.208 277.002L631.716 282.529C631.625 282.703 631.528 282.877 631.414 283.051H631.408ZM639.587 273.687C605.783 267.32 537.348 254.494 537.348 254.494L412.996 231.123L413.401 230.72L419.612 231.891C435.229 234.817 582.446 262.397 586.575 263.174C588.132 263.466 611.487 267.834 640.191 273.209L639.587 273.687ZM650.229 266.62L638.99 263.206L639.738 262.776L651.032 266.19L650.229 266.62ZM460.274 387.916L460.534 388.039C429.5 398.786 374.756 417.738 364.481 421.295C350.308 426.194 227.369 468.693 217.91 471.96L141.996 498.204L141.392 497.82C141.392 497.82 206.767 475.314 214.5 472.641C219.655 470.859 230.977 466.93 248.467 460.853C310.526 439.255 344.207 427.54 349.511 425.706C354.485 423.985 369.794 418.719 381.323 414.735L381.166 414.665L459.64 387.38L460.57 387.81L460.274 387.916ZM582.675 219.876L582.386 219.743L583.46 219.371L618.979 235.713L617.904 236.087L617.174 235.752L617.047 235.798L592.442 224.43L582.633 219.89L582.675 219.876ZM925.969 226.902L912.26 231.654L867.168 247.332L866.232 246.902L925.389 226.34L926.325 226.77L925.969 226.902ZM465.773 283.79L465.852 283.341L558.849 285.997L558.765 286.48L539.865 285.939L465.773 283.79ZM322.25 279.685L321.562 279.668C255.475 277.857 219.27 276.846 212.948 276.635C203.459 276.314 131.528 274.259 125.347 274.081C121.222 273.96 110.075 273.616 91.9051 273.047L92.1828 272.451C149.948 274.082 183.873 275.047 193.958 275.348L322.347 279.084L322.25 279.685ZM1011.19 299.579C994.724 299.096 939.569 297.536 895.177 296.261L895.37 295.711L1007.74 298.944L1011.37 299.047L1011.19 299.579ZM1063.87 301.131L1064.07 300.564C1095.46 301.467 1129.87 302.454 1138.13 302.696L1300.77 307.443L1385.02 309.901C1384.88 310.203 1384.81 310.353 1384.81 310.353C1384.81 310.353 1312.37 308.179 1303.82 307.919L1266.06 306.854C1196.97 304.948 1159.48 303.914 1153.57 303.753C1144.74 303.498 1106.7 302.341 1103.14 302.283C1101.45 302.244 1083.3 301.716 1063.87 301.143V301.131ZM726.265 360.204C727.315 354.129 728.076 349.763 728.208 349.249C728.426 348.353 729.156 344.205 729.88 339.953H730.84C729.452 347.979 728.19 355.36 728.19 355.36C728.19 355.36 727.87 357.224 727.357 360.204H726.265ZM721.961 385.378V385.832H722.987C721.52 394.344 720.295 401.464 720.192 402.039C719.932 403.524 714.156 436.999 713.341 441.795C712.526 446.59 705.234 488.196 704.672 491.395C704.298 493.529 702.801 502.093 700.181 517.086L699.288 517.059C699.288 517.059 703.284 494.973 703.743 492.358C704.044 490.612 704.692 486.773 705.686 480.843C709.159 459.783 711.051 448.354 711.361 446.556C711.831 443.862 713.95 432.26 714.047 431.178C714.143 430.096 718.2 407.416 718.719 404.475C718.882 403.352 720.277 395.14 721.961 385.378ZM749.125 229.013L752.034 212.352L752.988 212.371C751.724 219.221 750.901 223.75 750.519 225.958C750.423 226.487 750.242 227.552 749.988 229.02L749.125 229.013ZM754.787 195.87C754.932 194.933 755.087 193.927 755.252 192.852C758.552 172.71 760.399 161.673 760.793 159.741C761.397 156.844 765.133 134.912 765.465 133.026C765.683 131.771 766.312 128.37 767.355 122.825L768.562 122.856C765.592 140.466 763.84 150.81 763.304 153.888L755.958 195.902L754.787 195.87ZM1071.31 176.022L1072.18 176.423L1064.43 179.101C1031.43 190.438 1010.59 197.606 1001.9 200.605C997.93 201.977 983.738 206.883 965.828 213.098L965.091 212.758L1063.73 178.679C1065.19 178.167 1067.72 177.281 1071.31 176.022ZM1111.02 162.158C1162.73 144.165 1191.26 134.261 1196.61 132.447C1205.23 129.523 1269.97 107.094 1275.55 105.162C1279.26 103.874 1289.34 100.413 1305.78 94.7793L1306.6 95.2839C1254.65 113.313 1224.12 123.901 1215.04 127.05L1112.06 162.646L1111.02 162.158ZM894.247 363.183L957.95 392.617C961.741 394.372 1047.33 433.906 1059.58 439.581L1186.24 498.211L1251.85 528.577L1250.89 528.818C1250.89 528.818 1194.62 502.685 1187.98 499.592C1183.52 497.53 1173.7 493.001 1158.51 486.003C1104.51 461.175 1075.21 447.7 1070.6 445.578C1063.73 442.394 1034.18 428.652 1031.37 427.401C1028.55 426.151 970.681 399.313 963.153 395.838C959.465 394.129 926.415 378.878 893.209 363.546L894.247 363.183ZM508.572 185.611L453.036 159.896C449.588 158.302 439.326 153.606 422.25 145.807C370.594 122.063 342.324 109.042 337.438 106.744C330.146 103.293 274.055 77.3944 269.226 75.1657C266.007 73.6799 257.354 69.6492 243.269 63.0735L244.537 62.7451C289.629 83.533 316.105 95.7419 323.965 99.3718L454.111 159.603C482.458 172.803 500.378 181.141 507.872 184.616L509.399 185.323L508.572 185.611ZM312.592 353.931C271.52 359.927 248.581 363.26 243.776 363.93C234.782 365.18 166.981 375.005 161.149 375.845C157.262 376.406 146.73 377.905 129.555 380.344L129.198 379.755C183.623 371.844 215.594 367.203 225.112 365.83L312.037 353.291L312.592 353.931ZM998.147 254.769L997.622 254.286C1019.4 251.147 1102.32 239.135 1115.48 237.237L1268.86 215.1L1348.32 203.64L1348.59 204.087C1348.59 204.087 1280.22 213.873 1272.14 215.04C1266.73 215.817 1254.88 217.54 1236.57 220.209C1171.51 229.707 1136.19 234.858 1130.63 235.662C1122.3 236.87 1086.38 241.993 1083.07 242.52C1079.76 243.046 1009.57 253.12 1000.48 254.433L998.147 254.769ZM839.388 401.182C848.038 410.656 865.659 429.951 868.804 433.411C872.914 437.929 908.578 477.115 911.318 480.133L933.339 504.332L932.494 504.455C932.494 504.455 913.691 483.627 911.445 481.164C909.956 479.521 906.646 475.909 901.515 470.328C883.265 450.528 873.373 439.781 871.84 438.086C869.528 435.548 859.67 424.605 858.656 423.598C857.823 422.768 844.41 407.974 838.392 401.331L839.388 401.182ZM632.144 175.431C628.349 171.291 626.096 168.817 625.383 168.009C622.969 165.266 604.105 144.619 602.487 142.844C601.413 141.661 598.531 138.451 593.843 133.215L594.96 133.053C610.155 149.626 619.071 159.362 621.707 162.259L633.496 175.218L632.144 175.431ZM641.561 374.358L642.805 374.6L595.195 415.189C592.732 417.287 537.245 464.646 529.271 471.429C521.297 478.211 452.203 537.035 446.891 541.56L404.22 577.885L403.266 577.644C403.266 577.644 440.088 546.447 444.446 542.748C447.344 540.282 453.694 534.85 463.498 526.452C498.255 496.622 517.125 480.436 520.107 477.893C524.58 474.085 543.951 457.7 545.648 456.161C547.344 454.623 585.114 422.551 590.004 418.393C592.636 416.15 618.134 394.365 641.561 374.358ZM830.78 213.147L831.86 213.388L809 232.91C808.584 233.262 804.95 236.372 799.451 241.074L798.328 240.832C813.715 227.716 830.695 213.207 830.695 213.207L830.78 213.147ZM853.217 194.04L921.375 136.018C923.617 134.11 930.172 128.454 941.042 119.048C974.255 90.5127 992.495 74.8872 995.762 72.1716C1000.67 68.0958 1037 37.0637 1040.14 34.398C1042.22 32.6273 1047.91 27.8272 1057.2 19.9975L1058.47 20.3283C1029.35 45.2483 1012.23 59.8863 1007.11 64.2422C1002 68.5981 973.782 92.6182 922.468 136.303C903.831 152.031 892.078 161.971 887.209 166.123C884.088 168.779 869.788 180.984 854.244 194.257L853.217 194.04ZM310.274 211.896L301.944 210.355C230.605 197.072 191.541 189.776 184.752 188.467C174.562 186.504 96.9818 171.971 90.3175 170.72C85.8908 169.885 73.8903 167.608 54.3161 163.892L55.137 163.387C117.461 175.03 154.061 181.877 164.934 183.928L310.835 211.35L310.274 211.896ZM1067.95 354.095L1050.34 350.772C1044.95 349.758 994.374 340.291 946.022 331.229L946.511 330.715L1042.33 348.684L1068.47 353.588L1067.95 354.095ZM1170.75 373.39L1171.25 372.868C1176.59 373.87 1180.64 374.629 1182.89 375.041L1358.23 407.993L1449.04 425.062C1448.62 425.318 1448.44 425.443 1448.44 425.443C1448.44 425.443 1370.45 410.714 1361.2 408.971C1355.03 407.812 1341.45 405.273 1320.46 401.353C1245.88 387.455 1205.42 379.909 1199.08 378.716C1194.43 377.859 1182.37 375.58 1170.75 373.39H1170.75ZM409.876 310.232L360.528 312.946C356.133 313.187 343.145 313.934 321.562 315.186C255.966 318.908 220.025 320.927 213.739 321.242C204.292 321.725 132.85 325.69 126.729 326.028C122.637 326.252 111.554 326.842 93.4806 327.8L93.4444 327.192C150.783 323.984 184.466 322.103 194.495 321.549L360.497 312.422C381.299 311.311 397.712 310.432 409.737 309.785L409.876 310.232ZM1065.37 274.09C1042.99 275.317 1016.36 276.766 1010.87 277.068C1007.25 277.268 981.009 278.729 949.668 280.47L949.505 279.926L1002.79 276.976L1065.2 273.516L1065.37 274.09ZM1171.22 268.223L1171.06 267.67L1293.84 260.909L1377.51 256.322C1377.51 256.626 1377.54 256.78 1377.54 256.78C1377.54 256.78 1305.58 260.665 1297.07 261.127C1291.39 261.44 1278.89 262.14 1259.57 263.225L1171.22 268.223ZM706.133 209.191L705.034 206.053C704.564 204.713 703.109 200.757 700.67 194.185C693.426 174.208 689.495 163.262 688.875 161.347C687.951 158.464 680.219 136.699 679.561 134.827C679.118 133.582 677.967 130.201 676.108 124.686L677.315 124.621C683.561 142.09 687.223 152.352 688.301 155.409C689.38 158.466 695.304 175.33 706.073 205.999C706.447 207.086 706.805 208.132 707.147 209.138L706.133 209.191ZM760.757 364.42L761.844 364.367C766.504 377.531 774.701 400.677 775.069 401.73C775.589 403.203 787.366 436.425 789.038 441.189C790.71 445.953 805.222 487.249 806.338 490.424C807.083 492.541 810.069 501.042 815.296 515.927L814.409 515.975C814.409 515.975 806.839 494.039 805.928 491.443C805.32 489.713 803.958 485.905 801.841 480.02C794.292 459.131 790.203 447.795 789.575 446.013C788.633 443.34 784.679 431.813 784.209 430.748C783.738 429.683 775.92 407.16 774.9 404.241C774.224 402.319 766.268 379.991 760.757 364.42ZM473.192 431.108C456.531 439.914 441.627 447.79 437.179 450.137L320.144 511.89L259.526 543.868L258.717 543.545C258.717 543.545 310.968 516.094 317.138 512.836C321.254 510.665 330.289 505.88 344.241 498.482C393.74 472.192 420.602 457.93 424.828 455.695C431.184 452.344 458.632 437.929 461.113 436.553C461.958 436.07 468.81 432.448 477.725 427.754L472.172 430.811L473.192 431.108ZM843.487 234.644L866.232 222.624L913.492 197.691L914.5 197.906L844.501 234.938L843.487 234.644ZM945.72 180.683L995.026 154.666C998.213 152.985 1007.57 147.995 1023.08 139.695C1070.41 114.545 1096.36 100.777 1100.95 98.3915C1107.87 94.8131 1159.51 67.4849 1163.99 65.1356C1166.95 63.5709 1175.01 59.3486 1188.17 52.4687L1189.23 52.8961C1147.78 74.8542 1123.43 87.7497 1116.19 91.5824L995.943 155.035C970.425 168.409 954.004 177.025 946.68 180.885L945.72 180.683ZM1059.96 390.053L1059.06 390.495C1038.24 384.176 1014.57 376.973 1009.52 375.449C1006 374.382 980.629 366.711 950.392 357.565L951.25 357.142L1002.77 372.74C1005.07 373.436 1031.76 381.517 1059.96 390.053ZM1178.12 425.854L1280.94 457.04L1360.9 481.287L1360.09 481.609C1360.09 481.609 1291.48 460.701 1283.35 458.24C1277.92 456.597 1265.96 452.984 1247.46 447.401L1177.3 426.264L1178.12 425.854ZM578.208 244.785L557.829 238.615L411.922 194.373L412.604 193.982C433.655 200.403 447.593 204.65 454.419 206.721C464.699 209.827 540.263 232.693 578.897 244.382L578.208 244.785ZM321.393 167.101C276.929 153.709 252.211 146.245 247.241 144.708C238.295 141.941 169.975 121.286 164.101 119.495C160.19 118.307 149.634 115.083 132.434 109.822L133.502 109.397C188.398 125.977 220.635 135.716 230.212 138.613L322.347 166.557L321.393 167.101ZM379.615 381.503L378.794 380.974L414.373 372.141C445.569 364.463 465.268 359.606 473.47 357.57C480.4 355.848 520.283 345.914 554.358 337.422L554.998 337.833L414.916 372.603C411.145 373.54 400.038 376.336 381.595 380.991L379.591 381.493L379.615 381.503ZM257.503 411.926C238.47 416.657 217.626 421.848 214.644 422.587C211.139 423.458 201.616 425.801 186.074 429.616L185.422 429.067C218.095 420.911 241.805 414.995 256.55 411.32L257.503 411.926ZM1050.83 214.571C1048.96 215.04 1047.65 215.37 1047.16 215.503C1044.19 216.293 980.756 231.983 972.558 234.023C966.649 235.489 892.201 254.049 848.901 264.816L848.231 264.333L965.079 235.257L1050.15 214.086L1050.83 214.571ZM1095.68 203.45L1094.98 202.943L1214.64 173.243L1286.41 155.424L1286.89 155.839C1286.89 155.839 1225.11 171.097 1217.8 172.91C1212.93 174.119 1202.22 176.791 1185.68 180.926C1137.88 192.893 1107.88 200.401 1095.68 203.45ZM872.395 378.919L871.478 379.139C862.634 373.498 851.159 366.177 840.692 359.504L841.627 359.279C851.781 365.755 863.775 373.412 872.395 378.919ZM906.429 400.65C919.25 408.838 933.4 417.876 936.786 420.042L1002.66 462.212L1036.77 484.05L1036.01 484.24C1036.01 484.24 1006.79 465.433 1003.32 463.21C1001 461.724 995.885 458.467 987.969 453.438C959.827 435.581 944.565 425.891 942.183 424.366C938.609 422.077 923.271 412.192 921.761 411.294C921.025 410.854 913.461 406.013 905.463 400.887L906.429 400.65ZM662.556 245.54L621.629 219.345L622.516 219.14C636.818 228.376 645.887 234.223 649.722 236.679C651.304 237.693 656.525 241.025 663.322 245.371L662.556 245.54ZM575.202 189.935C566.896 184.655 562.067 181.573 560.715 180.687C556.942 178.205 527.744 159.579 525.238 157.978C523.572 156.91 519.085 154.012 511.777 149.286L512.785 149.044C536.267 163.971 550.054 172.745 554.147 175.366L576.482 189.648L575.202 189.935ZM674.116 397.83C678.184 390.828 682.512 383.393 686.611 376.357L687.957 376.471L675.48 397.944L674.116 397.83ZM662.646 417.528L655.831 430.359L656.507 430.417C648.473 444.204 627.925 479.489 624.43 485.469C620.162 492.766 583.146 556.052 580.303 560.92C578.4 564.165 570.779 577.192 557.443 600L556.381 599.836C556.381 599.836 576.198 566.259 578.522 562.277C580.076 559.623 583.462 553.782 588.682 544.755C607.165 512.687 617.206 495.288 618.804 492.556C621.218 488.452 631.631 470.825 632.482 469.166C633.333 467.508 653.61 433.02 656.242 428.546C656.809 427.604 659.181 423.483 662.664 417.528H662.646ZM781.848 213.294L783.056 213.378C778.015 222.052 774.351 228.349 774.037 228.89C773.79 229.307 771.454 233.34 768.001 239.294L766.745 239.207C772.238 229.822 778.281 219.449 781.866 213.294H781.848ZM803.121 176.894L833.635 124.783C834.842 122.73 838.315 116.651 844.054 106.546C861.705 75.874 871.423 59.0726 873.21 56.1413C875.896 51.7467 895.304 18.3725 896.982 15.5064C898.096 13.5941 901.165 8.42526 906.187 0L907.594 0.217312C892.06 27.0223 882.927 42.7645 880.194 47.444C877.462 52.1234 862.345 77.965 834.842 124.969C824.782 141.903 818.452 152.603 815.852 157.068C814.602 159.207 809.99 167.127 804.268 176.971L803.121 176.894ZM438.12 264.983L311.958 253.175C306.827 252.692 291.629 251.303 266.365 249.008C189.686 241.948 147.682 238.063 140.354 237.353C129.367 236.278 45.9314 228.515 38.7661 227.844C33.9853 227.393 21.0632 226.164 0 224.155L0.543281 223.59C67.556 229.803 106.912 233.456 118.61 234.549L312.423 252.688C354.759 256.712 381.508 259.244 392.672 260.284L438.356 264.538L438.12 264.983ZM1089.62 325.83L1090.12 325.318C1130.12 329.046 1200.47 335.604 1213.67 336.838L1402.3 354.491L1500 363.635L1499.59 364.06C1499.59 364.06 1415.65 356.133 1405.69 355.203C1399.06 354.583 1384.45 353.229 1361.89 351.139C1281.72 343.746 1238.22 339.731 1231.39 339.093C1221.13 338.127 1177.06 333.96 1172.91 333.619C1169.75 333.361 1118.52 328.549 1089.62 325.835V325.83Z" fill="white"/>
</svg>
